SplineFontDB: 3.2
FontName: Vazir-Regular
FullName: Vazir Regular
FamilyName: Vazir
Weight: Book
Copyright: Copyright (c) 2015, Saber Rastikerdar <saber.rastikerdar@gmail.com>.
Version: 29.1.0
ItalicAngle: 0
UnderlinePosition: -780
UnderlineWidth: 100
Ascent: 1638
Descent: 410
InvalidEm: 0
sfntRevision: 0x001d0042
LayerCount: 2
Layer: 0 1 "Back" 1
Layer: 1 1 "Fore" 0
XUID: [1021 841 671137566 9070069]
StyleMap: 0x0040
FSType: 0
OS2Version: 4
OS2_WeightWidthSlopeOnly: 0
OS2_UseTypoMetrics: 0
CreationTime: 1431850356
ModificationTime: 1624775642
PfmFamily: 81
TTFWeight: 400
TTFWidth: 5
LineGap: 0
VLineGap: 0
Panose: 0 0 0 0 0 0 0 0 0 0
OS2TypoAscent: 2200
OS2TypoAOffset: 0
OS2TypoDescent: -1100
OS2TypoDOffset: 0
OS2TypoLinegap: 0
OS2WinAscent: 2200
OS2WinAOffset: 0
OS2WinDescent: 1100
OS2WinDOffset: 0
HheadAscent: 2200
HheadAOffset: 0
HheadDescent: -1100
HheadDOffset: 0
OS2SubXSize: 1331
OS2SubYSize: 1433
OS2SubXOff: 0
OS2SubYOff: 286
OS2SupXSize: 1331
OS2SupYSize: 1433
OS2SupXOff: 0
OS2SupYOff: 983
OS2StrikeYSize: 102
OS2StrikeYPos: 530
OS2CapHeight: 1638
OS2XHeight: 1082
OS2Vendor: '    '
OS2CodePages: 00000041.20080000
OS2UnicodeRanges: 80002003.80000000.00000008.00000000
Lookup: 1 9 0 "'fina' Terminal Forms in Arabic lookup 0" { "'fina' Terminal Forms in Arabic lookup 0 subtable"  } ['fina' ('DFLT' <'dflt' > 'arab' <'FAR ' 'KUR ' 'URD ' 'dflt' > ) ]
Lookup: 1 9 0 "'medi' Medial Forms in Arabic lookup 1" { "'medi' Medial Forms in Arabic lookup 1 subtable"  } ['medi' ('DFLT' <'dflt' > 'arab' <'FAR ' 'KUR ' 'URD ' 'dflt' > ) ]
Lookup: 1 9 0 "'init' Initial Forms in Arabic lookup 2" { "'init' Initial Forms in Arabic lookup 2 subtable"  } ['init' ('DFLT' <'dflt' > 'arab' <'FAR ' 'KUR ' 'URD ' 'dflt' > ) ]
Lookup: 4 9 1 "'rlig' Required Ligatures in Arabic lookup 3" { "'rlig' Required Ligatures in Arabic lookup 3 subtable"  } ['rlig' ('DFLT' <'dflt' > 'arab' <'FAR ' 'KUR ' 'URD ' 'dflt' > ) ]

StartChar: .notdef
Encoding: 65536 -1 0
Width: 1024
Flags: W
LayerCount: 2
Fore
SplineSet
102 -410 m 1,0,-1
 102 1638 l 1,1,-1
 922 1638 l 1,2,-1
 922 -410 l 1,3,-1
 102 -410 l 1,0,-1
204 -308 m 1,4,-1
 820 -308 l 1,5,-1
 820 1536 l 1,6,-1
 204 1536 l 1,7,-1
 204 -308 l 1,4,-1
EndSplineSet
EndChar

StartChar: uni060C
Encoding: 1548 1548 8
Width: 669
GlyphClass: 2
Flags: W
LayerCount: 2
Fore
SplineSet
503 573 m 1,0,1
 428 505 428 505 384.5 438.5 c 128,-1,2
 341 372 341 372 341 277 c 1,3,4
 417 277 417 277 446.5 242.5 c 128,-1,5
 476 208 476 208 476 143 c 256,6,7
 476 78 476 78 441.5 39.5 c 128,-1,8
 407 1 407 1 341 1 c 0,9,10
 257 1 257 1 220 48.5 c 128,-1,11
 183 96 183 96 183 175 c 0,12,13
 183 320 183 320 251.5 433.5 c 128,-1,14
 320 547 320 547 429 632 c 1,15,-1
 503 573 l 1,0,1
EndSplineSet
EndChar

StartChar: uni060D
Encoding: 1549 1549 9
Width: 828
GlyphClass: 2
Flags: W
LayerCount: 2
Fore
SplineSet
611 1457 m 1,0,-1
 754 1414 l 1,1,-1
 198 -211 l 1,2,-1
 55 -168 l 1,3,-1
 611 1457 l 1,0,-1
EndSplineSet
EndChar

StartChar: uni0610
Encoding: 1552 1552 10
Width: 0
GlyphClass: 4
Flags: W
AnchorPoint: "Anchor-4" 534 1760 basemark 0
AnchorPoint: "Anchor-4" 494 1224 mark 0
AnchorPoint: "Anchor-2" 494 1224 mark 0
AnchorPoint: "Anchor-1" 494 1224 mark 0
LayerCount: 2
Fore
SplineSet
137 1192 m 1,0,1
 167 1245 167 1245 167 1326 c 0,2,3
 167 1420 167 1420 122 1513 c 1,4,-1
 207 1542 l 1,5,-1
 237 1450 l 2,6,7
 258 1386 258 1386 289 1382 c 1,8,9
 461 1673 461 1673 632 1673 c 0,10,11
 715 1673 715 1673 769.5 1620 c 128,-1,12
 824 1567 824 1567 824 1489 c 0,13,14
 823 1276 823 1276 460 1276 c 2,15,-1
 434 1276 l 2,16,17
 310 1276 310 1276 250 1305 c 1,18,19
 249 1211 249 1211 212 1146 c 1,20,-1
 137 1192 l 1,0,1
458 1367 m 2,21,22
 734 1367 734 1367 734 1485 c 0,23,24
 734 1526 734 1526 706.5 1554 c 128,-1,25
 679 1582 679 1582 635 1582 c 0,26,27
 577 1582 577 1582 514 1527 c 128,-1,28
 451 1472 451 1472 383 1367 c 1,29,-1
 458 1367 l 2,21,22
EndSplineSet
EndChar

StartChar: uni0611
Encoding: 1553 1553 11
Width: 0
GlyphClass: 4
Flags: W
AnchorPoint: "Anchor-4" 534 1790 basemark 0
AnchorPoint: "Anchor-4" 497 1248 mark 0
AnchorPoint: "Anchor-2" 497 1248 mark 0
AnchorPoint: "Anchor-1" 497 1248 mark 0
LayerCount: 2
Fore
SplineSet
254 1275 m 1,0,1
 253 1239 253 1239 241.5 1204 c 128,-1,2
 230 1169 230 1169 212 1137 c 1,3,-1
 137 1183 l 1,4,5
 167 1236 167 1236 167 1317 c 0,6,7
 167 1410 167 1410 122 1503 c 1,8,-1
 207 1533 l 1,9,-1
 237 1440 l 2,10,11
 258 1376 258 1376 289 1372 c 1,12,-1
 384 1372 l 1,13,14
 362 1401 362 1401 344.5 1434 c 128,-1,15
 327 1467 327 1467 327 1516 c 0,16,17
 327 1609 327 1609 387 1676.5 c 128,-1,18
 447 1744 447 1744 550 1744 c 0,19,20
 661 1744 661 1744 735 1670 c 1,21,-1
 699 1591 l 1,22,23
 633 1643 633 1643 567 1645 c 0,24,25
 503 1645 503 1645 461 1606.5 c 128,-1,26
 419 1568 419 1568 419 1512 c 0,27,28
 419 1497 419 1497 433 1459 c 128,-1,29
 447 1421 447 1421 501 1397 c 0,30,31
 504 1396 504 1396 510 1394 c 128,-1,32
 516 1392 516 1392 521 1393 c 2,33,-1
 752 1451 l 1,34,-1
 752 1354 l 1,35,36
 624 1314 624 1314 511 1294.5 c 128,-1,37
 398 1275 398 1275 291 1275 c 2,38,-1
 254 1275 l 1,0,1
EndSplineSet
EndChar

StartChar: uni0612
Encoding: 1554 1554 12
Width: 0
GlyphClass: 4
Flags: W
AnchorPoint: "Anchor-4" 522 1913 basemark 0
AnchorPoint: "Anchor-4" 518 963 mark 0
AnchorPoint: "Anchor-2" 518 963 mark 0
AnchorPoint: "Anchor-1" 518 963 mark 0
LayerCount: 2
Fore
SplineSet
539 998 m 1,0,1
 502 995 502 995 460 995 c 0,2,3
 294 995 294 995 189.5 1065.5 c 128,-1,4
 85 1136 85 1136 85 1284 c 0,5,6
 85 1417 85 1417 187.5 1520.5 c 128,-1,7
 290 1624 290 1624 489 1668 c 1,8,9
 479 1672 479 1672 470.5 1675.5 c 128,-1,10
 462 1679 462 1679 439 1689 c 0,11,12
 384 1712 384 1712 348 1725 c 128,-1,13
 312 1738 312 1738 292 1738 c 0,14,15
 261 1738 261 1738 231.5 1719.5 c 128,-1,16
 202 1701 202 1701 182 1675 c 2,17,-1
 167 1656 l 1,18,-1
 84 1697 l 1,19,-1
 92 1711 l 2,20,21
 127 1767 127 1767 179 1801 c 128,-1,22
 231 1835 231 1835 293 1835 c 0,23,24
 328 1835 328 1835 369 1820.5 c 128,-1,25
 410 1806 410 1806 459 1783 c 0,26,27
 545 1742 545 1742 601 1722 c 128,-1,28
 657 1702 657 1702 704 1700 c 1,29,-1
 697 1607 l 1,30,31
 551 1595 551 1595 432.5 1552 c 128,-1,32
 314 1509 314 1509 245 1442.5 c 128,-1,33
 176 1376 176 1376 176 1293 c 0,34,35
 176 1089 176 1089 468 1089 c 0,36,37
 482 1089 482 1089 495.5 1089.5 c 128,-1,38
 509 1090 509 1090 522 1091 c 1,39,-1
 539 998 l 1,0,1
878 1606 m 1,40,41
 928 1490 928 1490 928 1379 c 0,42,43
 928 1258 928 1258 857.5 1157 c 128,-1,44
 787 1056 787 1056 628 1020 c 1,45,-1
 588 1101 l 1,46,47
 722 1133 722 1133 779.5 1206 c 128,-1,48
 837 1279 837 1279 837 1370 c 0,49,50
 837 1418 837 1418 824.5 1469.5 c 128,-1,51
 812 1521 812 1521 789 1574 c 1,52,-1
 878 1606 l 1,40,41
EndSplineSet
EndChar

StartChar: uni0615
Encoding: 1557 1557 13
Width: 0
GlyphClass: 4
Flags: W
AnchorPoint: "Anchor-4" 437 1958 basemark 0
AnchorPoint: "Anchor-4" 438 1191 mark 0
AnchorPoint: "Anchor-2" 438 1191 mark 0
AnchorPoint: "Anchor-1" 438 1191 mark 0
LayerCount: 2
Fore
SplineSet
236 1364 m 1,0,1
 245 1379 245 1379 254 1393.5 c 128,-1,2
 263 1408 263 1408 272 1422 c 1,3,-1
 272 1897 l 1,4,-1
 357 1897 l 1,5,-1
 357 1542 l 1,6,7
 458 1668 458 1668 572 1668 c 0,8,9
 658 1668 658 1668 710 1616.5 c 128,-1,10
 762 1565 762 1565 762 1485 c 0,11,12
 760 1274 760 1274 402 1274 c 2,13,-1
 125 1274 l 1,14,-1
 125 1364 l 1,15,-1
 236 1364 l 1,0,1
400 1365 m 2,16,17
 674 1365 674 1365 674 1481 c 0,18,19
 674 1522 674 1522 647 1549.5 c 128,-1,20
 620 1577 620 1577 576 1577 c 0,21,22
 518 1577 518 1577 455.5 1522.5 c 128,-1,23
 393 1468 393 1468 326 1364 c 1,24,-1
 400 1365 l 2,16,17
EndSplineSet
EndChar

StartChar: uni061B
Encoding: 1563 1563 14
Width: 669
GlyphClass: 2
Flags: W
LayerCount: 2
Fore
SplineSet
503 1005 m 1,0,1
 428 937 428 937 384.5 870.5 c 128,-1,2
 341 804 341 804 341 709 c 1,3,4
 417 709 417 709 446.5 674.5 c 128,-1,5
 476 640 476 640 476 575 c 256,6,7
 476 510 476 510 441.5 471.5 c 128,-1,8
 407 433 407 433 341 433 c 0,9,10
 257 433 257 433 220 480.5 c 128,-1,11
 183 528 183 528 183 607 c 0,12,13
 183 752 183 752 251.5 865.5 c 128,-1,14
 320 979 320 979 429 1064 c 1,15,-1
 503 1005 l 1,0,1
211 134 m 0,16,17
 211 189 211 189 250 228.5 c 128,-1,18
 289 268 289 268 344 268 c 256,19,20
 399 268 399 268 438 228.5 c 128,-1,21
 477 189 477 189 477 134 c 256,22,23
 477 79 477 79 438 40 c 128,-1,24
 399 1 399 1 344 1 c 256,25,26
 289 1 289 1 250 39 c 128,-1,27
 211 77 211 77 211 134 c 0,16,17
EndSplineSet
EndChar

StartChar: uni061F
Encoding: 1567 1567 15
Width: 924
GlyphClass: 2
Flags: W
LayerCount: 2
Fore
SplineSet
99 1011 m 0,0,1
 99 1118 99 1118 150.5 1198 c 128,-1,2
 202 1278 202 1278 286.5 1322 c 128,-1,3
 371 1366 371 1366 469 1366 c 0,4,5
 657 1366 657 1366 741 1267 c 128,-1,6
 825 1168 825 1168 826 971 c 1,7,-1
 670 971 l 1,8,9
 669 1074 669 1074 626.5 1130 c 128,-1,10
 584 1186 584 1186 480 1186 c 0,11,12
 390 1186 390 1186 335 1138.5 c 128,-1,13
 280 1091 280 1091 280 1002 c 0,14,15
 280 947 280 947 314 902 c 128,-1,16
 348 857 348 857 398.5 813 c 128,-1,17
 449 769 449 769 499 717 c 128,-1,18
 549 665 549 665 583.5 596.5 c 128,-1,19
 618 528 618 528 618 432 c 1,20,-1
 433 432 l 1,21,22
 432 530 432 530 398.5 591.5 c 128,-1,23
 365 653 365 653 315 695 c 128,-1,24
 265 737 265 737 215.5 776.5 c 128,-1,25
 166 816 166 816 132.5 870 c 128,-1,26
 99 924 99 924 99 1011 c 0,0,1
392 134 m 0,27,28
 392 189 392 189 431 228.5 c 128,-1,29
 470 268 470 268 525 268 c 256,30,31
 580 268 580 268 619 228.5 c 128,-1,32
 658 189 658 189 658 134 c 256,33,34
 658 79 658 79 619 40 c 128,-1,35
 580 1 580 1 525 1 c 256,36,37
 470 1 470 1 431 39 c 128,-1,38
 392 77 392 77 392 134 c 0,27,28
EndSplineSet
EndChar

StartChar: uni0621
Encoding: 1569 1569 16
Width: 830
GlyphClass: 2
Flags: W
AnchorPoint: "Anchor-2" 402 999 basechar 0
AnchorPoint: "Anchor-0" 445 -106 basechar 0
LayerCount: 2
Fore
SplineSet
305 192 m 1,0,1
 218 237 218 237 170.5 293.5 c 128,-1,2
 123 350 123 350 123 434 c 0,3,4
 123 586 123 586 213.5 674.5 c 128,-1,5
 304 763 304 763 443 763 c 0,6,7
 573 763 573 763 662 678 c 1,8,-1
 611 553 l 1,9,10
 532 606 532 606 456 606 c 0,11,12
 375 606 375 606 325 561 c 128,-1,13
 275 516 275 516 275 435 c 0,14,15
 275 385 275 385 321.5 340 c 128,-1,16
 368 295 368 295 454 256 c 1,17,18
 515 275 515 275 578 290.5 c 128,-1,19
 641 306 641 306 702 314 c 1,20,-1
 726 155 l 1,21,22
 601 139 601 139 444.5 76.5 c 128,-1,23
 288 14 288 14 103 -87 c 1,24,-1
 103 86 l 1,25,26
 159 121 159 121 207.5 145 c 128,-1,27
 256 169 256 169 305 192 c 1,0,1
EndSplineSet
Position2: "Single Positioning lookup 3 per glyph data 1" dx=0 dy=0 dh=-100 dv=0
Position2: "Single Positioning lookup 2 per glyph data 1" dx=0 dy=0 dh=-100 dv=0
EndChar

StartChar: uni0622
Encoding: 1570 1570 17
Width: 465
GlyphClass: 3
Flags: W
AnchorPoint: "Anchor-2" 250 1698 basechar 0
AnchorPoint: "Anchor-0" 222 -193 basechar 0
LayerCount: 2
Fore
SplineSet
119 1439 m 0,0,1
 71 1439 71 1439 35.5 1404 c 128,-1,2
 0 1369 0 1369 -59 1304 c 1,3,-1
 -148 1385 l 1,4,5
 -87 1453 -87 1453 -23.5 1510 c 128,-1,6
 40 1567 40 1567 95 1567 c 0,7,8
 137 1567 137 1567 178.5 1545.5 c 128,-1,9
 220 1524 220 1524 261 1502.5 c 128,-1,10
 302 1481 302 1481 344 1481 c 0,11,12
 371 1481 371 1481 390 1485.5 c 128,-1,13
 409 1490 409 1490 435 1508 c 128,-1,14
 461 1526 461 1526 508 1565 c 1,15,-1
 585 1464 l 1,16,17
 512 1409 512 1409 460.5 1381.5 c 128,-1,18
 409 1354 409 1354 366 1354 c 0,19,20
 326 1354 326 1354 283.5 1375.5 c 128,-1,21
 241 1397 241 1397 199.5 1418 c 128,-1,22
 158 1439 158 1439 119 1439 c 0,0,1
148 1228 m 1,23,-1
 317 1228 l 1,24,-1
 317 1 l 1,25,-1
 148 1 l 1,26,-1
 148 1228 l 1,23,-1
EndSplineSet
Ligature2: "'liga' Standard Ligatures in Arabic lookup 8 subtable" uni0627 uni0653
Substitution2: "'fina' Terminal Forms in Arabic lookup 0 subtable" uniFE82
Position2: "Single Positioning lookup 3 per glyph data 2" dx=0 dy=0 dh=-140 dv=0
Position2: "Single Positioning lookup 2 per glyph data 2" dx=0 dy=0 dh=-80 dv=0
Position2: "Single Positioning lookup 1 subtable" dx=0 dy=0 dh=320 dv=0
EndChar

StartChar: uni0627
Encoding: 1575 1575 22
Width: 465
GlyphClass: 2
Flags: W
AnchorPoint: "Anchor-2" 225 1495 basechar 0
AnchorPoint: "Anchor-0" 229 -238 basechar 0
LayerCount: 2
Fore
SplineSet
148 1366 m 1,0,-1
 317 1366 l 1,1,-1
 317 1 l 1,2,-1
 148 1 l 1,3,-1
 148 1366 l 1,0,-1
EndSplineSet
Substitution2: "'fina' Terminal Forms in Arabic lookup 0 subtable" uniFE8E
Position2: "Single Positioning lookup 3 per glyph data 2" dx=0 dy=0 dh=-140 dv=0
Position2: "Single Positioning lookup 2 per glyph data 2" dx=0 dy=0 dh=-80 dv=0
Position2: "Single Positioning lookup 1 subtable" dx=0 dy=0 dh=130 dv=0
EndChar

StartChar: uni062D
Encoding: 1581 1581 28
Width: 1347
GlyphClass: 2
Flags: W
AnchorPoint: "Anchor-2" 601 1176 basechar 0
AnchorPoint: "Anchor-0" 691 -831 basechar 0
LayerCount: 2
Fore
SplineSet
836 550 m 1,0,1
 817 558 817 558 802 564 c 128,-1,2
 787 570 787 570 745 587 c 0,3,4
 644 628 644 628 578 652 c 128,-1,5
 512 676 512 676 477 676 c 0,6,7
 420 676 420 676 366.5 643 c 128,-1,8
 313 610 313 610 276 562 c 2,9,-1
 249 527 l 1,10,-1
 98 602 l 1,11,-1
 113 628 l 2,12,13
 176 731 176 731 270.5 792.5 c 128,-1,14
 365 854 365 854 478 854 c 0,15,16
 541 854 541 854 617 827.5 c 128,-1,17
 693 801 693 801 781 758 c 0,18,19
 936 682 936 682 1039 647.5 c 128,-1,20
 1142 613 1142 613 1228 608 c 1,21,-1
 1215 438 l 1,22,23
 1015 422 1015 422 842.5 373 c 128,-1,24
 670 324 670 324 540 248 c 128,-1,25
 410 172 410 172 337.5 75 c 128,-1,26
 265 -22 265 -22 265 -135 c 0,27,28
 265 -506 265 -506 798 -506 c 0,29,30
 906 -506 906 -506 1010 -489 c 128,-1,31
 1114 -472 1114 -472 1213 -426 c 1,32,-1
 1258 -591 l 1,33,34
 1158 -639 1158 -639 1038 -658 c 128,-1,35
 918 -677 918 -677 784 -677 c 0,36,37
 582 -677 582 -677 427.5 -620.5 c 128,-1,38
 273 -564 273 -564 186 -447.5 c 128,-1,39
 99 -331 99 -331 99 -151 c 0,40,41
 99 10 99 10 183 149.5 c 128,-1,42
 267 289 267 289 431 392.5 c 128,-1,43
 595 496 595 496 836 550 c 1,0,1
EndSplineSet
Substitution2: "'init' Initial Forms in Arabic lookup 2 subtable" uniFEA3
Substitution2: "'medi' Medial Forms in Arabic lookup 1 subtable" uniFEA4
Substitution2: "'fina' Terminal Forms in Arabic lookup 0 subtable" uniFEA2
EndChar

StartChar: uni062F
Encoding: 1583 1583 30
Width: 963
GlyphClass: 2
Flags: W
AnchorPoint: "Anchor-2" 371 1169 basechar 0
AnchorPoint: "Anchor-0" 432 -241 basechar 0
LayerCount: 2
Fore
SplineSet
98 207 m 1,0,1
 226 181 226 181 317 181 c 0,2,3
 689 181 689 181 689 364 c 0,4,5
 689 554 689 554 275 815 c 1,6,-1
 373 963 l 1,7,8
 865 669 865 669 865 367 c 0,9,10
 865 2 865 2 330 2 c 0,11,12
 267 2 267 2 209 8.5 c 128,-1,13
 151 15 151 15 98 26 c 1,14,-1
 98 207 l 1,0,1
EndSplineSet
Substitution2: "'fina' Terminal Forms in Arabic lookup 0 subtable" uniFEAA
Position2: "Single Positioning lookup 3 per glyph data 0" dx=0 dy=0 dh=-160 dv=0
Position2: "Single Positioning lookup 2 per glyph data 0" dx=0 dy=0 dh=-130 dv=0
EndChar

StartChar: uni0631
Encoding: 1585 1585 32
Width: 710
GlyphClass: 2
Flags: W
AnchorPoint: "Anchor-2" 423 848 basechar 0
AnchorPoint: "Anchor-0" 323 -640 basechar 0
LayerCount: 2
Fore
SplineSet
530 527 m 1,0,1
 574 426 574 426 593 320.5 c 128,-1,2
 612 215 612 215 612 113 c 0,3,4
 612 -33 612 -33 555.5 -166.5 c 128,-1,5
 499 -300 499 -300 378 -399 c 128,-1,6
 257 -498 257 -498 63 -542 c 1,7,-1
 -10 -394 l 1,8,9
 233 -335 233 -335 339.5 -202 c 128,-1,10
 446 -69 446 -69 446 97 c 0,11,12
 446 184 446 184 427.5 278 c 128,-1,13
 409 372 409 372 368 469 c 1,14,-1
 530 527 l 1,0,1
EndSplineSet
Substitution2: "'fina' Terminal Forms in Arabic lookup 0 subtable" uniFEAE
Position2: "Single Positioning lookup 3 per glyph data 1" dx=0 dy=0 dh=-30 dv=0
Position2: "Single Positioning lookup 2 per glyph data 1" dx=0 dy=0 dh=-30 dv=0
EndChar

StartChar: uni0633
Encoding: 1587 1587 34
Width: 2456
GlyphClass: 2
Flags: W
AnchorPoint: "Anchor-2" 1771 930 basechar 0
AnchorPoint: "Anchor-0" 711 -716 basechar 0
LayerCount: 2
Fore
SplineSet
1531 0 m 0,0,1
 1415 0 1415 0 1342 58 c 1,2,3
 1340 -131 1340 -131 1260.5 -259.5 c 128,-1,4
 1181 -388 1181 -388 1042 -454 c 128,-1,5
 903 -520 903 -520 721 -520 c 0,6,7
 425 -520 425 -520 261.5 -372 c 128,-1,8
 98 -224 98 -224 98 56 c 0,9,10
 98 266 98 266 188 485 c 1,11,-1
 343 422 l 1,12,13
 270 230 270 230 270 61 c 0,14,15
 270 -143 270 -143 379.5 -242.5 c 128,-1,16
 489 -342 489 -342 718 -342 c 0,17,18
 942 -342 942 -342 1059 -232.5 c 128,-1,19
 1176 -123 1176 -123 1177 100 c 0,20,21
 1177 282 1177 282 1087 469 c 1,22,-1
 1256 527 l 1,23,-1
 1315 344 l 2,24,25
 1341 262 1341 262 1393.5 221.5 c 128,-1,26
 1446 181 1446 181 1533 180 c 0,27,28
 1632 180 1632 180 1675 234 c 128,-1,29
 1718 288 1718 288 1718 389 c 0,30,31
 1718 413 1718 413 1715.5 457.5 c 128,-1,32
 1713 502 1713 502 1708 567 c 1,33,-1
 1873 587 l 1,34,-1
 1889 361 l 2,35,36
 1894 285 1894 285 1931.5 232.5 c 128,-1,37
 1969 180 1969 180 2047 180 c 0,38,39
 2186 180 2186 180 2186 402 c 0,40,41
 2186 507 2186 507 2142 666 c 1,42,-1
 2310 711 l 1,43,44
 2358 558 2358 558 2358 417 c 0,45,46
 2358 303 2358 303 2328 208.5 c 128,-1,47
 2298 114 2298 114 2230 57.5 c 128,-1,48
 2162 1 2162 1 2048 0 c 0,49,50
 1877 0 1877 0 1806 143 c 1,51,52
 1702 0 1702 0 1531 0 c 0,0,1
EndSplineSet
Substitution2: "'init' Initial Forms in Arabic lookup 2 subtable" uniFEB3
Substitution2: "'medi' Medial Forms in Arabic lookup 1 subtable" uniFEB4
Substitution2: "'fina' Terminal Forms in Arabic lookup 0 subtable" uniFEB2
Position2: "Single Positioning lookup 3 per glyph data 0" dx=0 dy=0 dh=-160 dv=0
Position2: "Single Positioning lookup 2 per glyph data 0" dx=0 dy=0 dh=-130 dv=0
EndChar

StartChar: uni0635
Encoding: 1589 1589 36
Width: 2575
GlyphClass: 2
Flags: W
AnchorPoint: "Anchor-2" 2053 1128 basechar 0
AnchorPoint: "Anchor-0" 711 -716 basechar 0
LayerCount: 2
Fore
SplineSet
343 422 m 1,0,1
 270 229 270 229 270 61 c 0,2,3
 270 -152 270 -152 384.5 -247 c 128,-1,4
 499 -342 499 -342 718 -342 c 0,5,6
 941 -342 941 -342 1058.5 -232.5 c 128,-1,7
 1176 -123 1176 -123 1177 100 c 0,8,9
 1177 281 1177 281 1087 469 c 1,10,-1
 1256 527 l 1,11,-1
 1315 344 l 2,12,13
 1357 216 1357 216 1419 209 c 1,14,15
 1759 787 1759 787 2098 787 c 0,16,17
 2208 787 2208 787 2293.5 738.5 c 128,-1,18
 2379 690 2379 690 2428 607.5 c 128,-1,19
 2477 525 2477 525 2477 422 c 0,20,21
 2475 0 2475 0 1757 0 c 2,22,-1
 1706 0 l 2,23,24
 1579 0 1579 0 1489.5 14.5 c 128,-1,25
 1400 29 1400 29 1342 57 c 1,26,27
 1340 -136 1340 -136 1258.5 -264 c 128,-1,28
 1177 -392 1177 -392 1038 -456 c 128,-1,29
 899 -520 899 -520 721 -520 c 0,30,31
 424 -520 424 -520 261 -372 c 128,-1,32
 98 -224 98 -224 98 56 c 0,33,34
 98 266 98 266 188 485 c 1,35,-1
 343 422 l 1,0,1
1753 181 m 2,36,37
 2299 181 2299 181 2299 413 c 0,38,39
 2299 495 2299 495 2245 550 c 128,-1,40
 2191 605 2191 605 2104 605 c 0,41,42
 1989 605 1989 605 1864 496.5 c 128,-1,43
 1739 388 1739 388 1605 180 c 1,44,-1
 1753 181 l 2,36,37
EndSplineSet
Substitution2: "'init' Initial Forms in Arabic lookup 2 subtable" uniFEBB
Substitution2: "'medi' Medial Forms in Arabic lookup 1 subtable" uniFEBC
Substitution2: "'fina' Terminal Forms in Arabic lookup 0 subtable" uniFEBA
Position2: "Single Positioning lookup 3 per glyph data 0" dx=0 dy=0 dh=-160 dv=0
Position2: "Single Positioning lookup 2 per glyph data 0" dx=0 dy=0 dh=-130 dv=0
EndChar

StartChar: uni0637
Encoding: 1591 1591 38
Width: 1471
GlyphClass: 2
Flags: W
AnchorPoint: "Anchor-2" 476 1499 basechar 0
AnchorPoint: "Anchor-0" 637 -238 basechar 0
LayerCount: 2
Fore
SplineSet
320 180 m 1,0,1
 338 209 338 209 356.5 238.5 c 128,-1,2
 375 268 375 268 393 296 c 1,3,-1
 393 1366 l 1,4,-1
 562 1366 l 1,5,-1
 562 536 l 1,6,7
 662 659 662 659 768.5 723 c 128,-1,8
 875 787 875 787 991 787 c 0,9,10
 1105 787 1105 787 1191 739.5 c 128,-1,11
 1277 692 1277 692 1325 610 c 128,-1,12
 1373 528 1373 528 1373 422 c 0,13,14
 1370 0 1370 0 653 0 c 2,15,-1
 98 0 l 1,16,-1
 98 180 l 1,17,-1
 320 180 l 1,0,1
649 182 m 2,18,19
 1195 182 1195 182 1195 414 c 0,20,21
 1195 496 1195 496 1141 551 c 128,-1,22
 1087 606 1087 606 1000 606 c 0,23,24
 885 606 885 606 760 497.5 c 128,-1,25
 635 389 635 389 501 181 c 1,26,-1
 649 182 l 2,18,19
EndSplineSet
Substitution2: "'init' Initial Forms in Arabic lookup 2 subtable" uniFEC3
Substitution2: "'medi' Medial Forms in Arabic lookup 1 subtable" uniFEC4
Substitution2: "'fina' Terminal Forms in Arabic lookup 0 subtable" uniFEC2
Position2: "Single Positioning lookup 3 per glyph data 0" dx=0 dy=0 dh=-160 dv=0
Position2: "Single Positioning lookup 2 per glyph data 0" dx=0 dy=0 dh=-130 dv=0
EndChar

StartChar: uni0639
Encoding: 1593 1593 40
Width: 1306
GlyphClass: 2
Flags: W
AnchorPoint: "Anchor-2" 694 1324 basechar 0
AnchorPoint: "Anchor-0" 671 -831 basechar 0
LayerCount: 2
Fore
SplineSet
968 743 m 1,0,1
 818 831 818 831 715 831 c 0,2,3
 627 831 627 831 561 777 c 128,-1,4
 495 723 495 723 495 630 c 0,5,6
 495 558 495 558 531.5 501 c 128,-1,7
 568 444 568 444 605 409 c 1,8,9
 786 441 786 441 912 441 c 0,10,11
 959 441 959 441 1004 438.5 c 128,-1,12
 1049 436 1049 436 1093 431 c 1,13,-1
 1070 260 l 1,14,15
 1037 262 1037 262 1012 262 c 128,-1,16
 987 262 987 262 971 262 c 0,17,18
 612 262 612 262 438 146.5 c 128,-1,19
 264 31 264 31 264 -157 c 0,20,21
 264 -320 264 -320 392.5 -411 c 128,-1,22
 521 -502 521 -502 766 -502 c 0,23,24
 870 -502 870 -502 972 -485.5 c 128,-1,25
 1074 -469 1074 -469 1173 -423 c 1,26,-1
 1218 -588 l 1,27,28
 1119 -637 1119 -637 1001 -655.5 c 128,-1,29
 883 -674 883 -674 755 -674 c 0,30,31
 572 -674 572 -674 423 -618 c 128,-1,32
 274 -562 274 -562 186 -449 c 128,-1,33
 98 -336 98 -336 98 -164 c 0,34,35
 98 4 98 4 178.5 135 c 128,-1,36
 259 266 259 266 437 345 c 1,37,38
 377 415 377 415 349.5 489.5 c 128,-1,39
 322 564 322 564 322 643 c 0,40,41
 322 740 322 740 375.5 823 c 128,-1,42
 429 906 429 906 516.5 957.5 c 128,-1,43
 604 1009 604 1009 705 1009 c 0,44,45
 859 1009 859 1009 1034 889 c 1,46,-1
 968 743 l 1,0,1
EndSplineSet
Substitution2: "'init' Initial Forms in Arabic lookup 2 subtable" uniFECB
Substitution2: "'medi' Medial Forms in Arabic lookup 1 subtable" uniFECC
Substitution2: "'fina' Terminal Forms in Arabic lookup 0 subtable" uniFECA
Position2: "Single Positioning lookup 5 subtable" dx=0 dy=0 dh=-60 dv=0
EndChar

StartChar: uni0640
Encoding: 1600 1600 43
Width: 540
GlyphClass: 2
Flags: W
AnchorPoint: "Anchor-2" 282 876 basechar 0
AnchorPoint: "Anchor-0" 286 -231 basechar 0
LayerCount: 2
Fore
SplineSet
-20 0 m 1,0,-1
 -20 180 l 1,1,-1
 560 180 l 1,2,-1
 560 0 l 1,3,-1
 -20 0 l 1,0,-1
EndSplineSet
Position2: "Single Positioning lookup 3 per glyph data 0" dx=0 dy=0 dh=-160 dv=0
Position2: "Single Positioning lookup 2 per glyph data 0" dx=0 dy=0 dh=-130 dv=0
EndChar

StartChar: uni0643
Encoding: 1603 1603 46
Width: 1831
GlyphClass: 2
Flags: W
AnchorPoint: "Anchor-2" 916 1240 basechar 0
AnchorPoint: "Anchor-0" 900 -226 basechar 0
LayerCount: 2
Fore
SplineSet
978 180 m 2,0,1
 1155 180 1155 180 1262 198 c 128,-1,2
 1369 216 1369 216 1423.5 252 c 128,-1,3
 1478 288 1478 288 1496 342.5 c 128,-1,4
 1514 397 1514 397 1514 470 c 2,5,-1
 1514 1366 l 1,6,-1
 1683 1366 l 1,7,-1
 1683 472 l 2,8,9
 1683 354 1683 354 1654.5 265.5 c 128,-1,10
 1626 177 1626 177 1551 118 c 128,-1,11
 1476 59 1476 59 1339 29.5 c 128,-1,12
 1202 0 1202 0 985 0 c 2,13,-1
 840 0 l 2,14,15
 481 0 481 0 289.5 121.5 c 128,-1,16
 98 243 98 243 98 484 c 0,17,18
 98 551 98 551 112.5 615 c 128,-1,19
 127 679 127 679 152 738 c 1,20,-1
 305 681 l 1,21,22
 289 639 289 639 281 591 c 128,-1,23
 273 543 273 543 273 499 c 0,24,25
 274 334 274 334 414 257 c 128,-1,26
 554 180 554 180 830 180 c 2,27,-1
 978 180 l 2,0,1
733 583 m 1,28,29
 801 584 801 584 867 589.5 c 128,-1,30
 933 595 933 595 976.5 611 c 128,-1,31
 1020 627 1020 627 1020 660 c 0,32,33
 1020 704 1020 704 992.5 720.5 c 128,-1,34
 965 737 965 737 924.5 742.5 c 128,-1,35
 884 748 884 748 843.5 757 c 128,-1,36
 803 766 803 766 775.5 795 c 128,-1,37
 748 824 748 824 748 889 c 0,38,39
 748 957 748 957 798 997.5 c 128,-1,40
 848 1038 848 1038 926 1056.5 c 128,-1,41
 1004 1075 1004 1075 1087 1075 c 1,42,-1
 1087 970 l 1,43,44
 1039 967 1039 967 984 958.5 c 128,-1,45
 929 950 929 950 889.5 933 c 128,-1,46
 850 916 850 916 850 888 c 0,47,48
 850 864 850 864 877 855.5 c 128,-1,49
 904 847 904 847 944 841.5 c 128,-1,50
 984 836 984 836 1024 821 c 128,-1,51
 1064 806 1064 806 1091 770 c 128,-1,52
 1118 734 1118 734 1118 664 c 0,53,54
 1118 577 1118 577 1061.5 538 c 128,-1,55
 1005 499 1005 499 917 489.5 c 128,-1,56
 829 480 829 480 733 479 c 1,57,-1
 733 583 l 1,28,29
EndSplineSet
Substitution2: "'init' Initial Forms in Arabic lookup 2 subtable" uniFEDB
Substitution2: "'medi' Medial Forms in Arabic lookup 1 subtable" uniFEDC
Substitution2: "'fina' Terminal Forms in Arabic lookup 0 subtable" uniFEDA
Position2: "Single Positioning lookup 3 per glyph data 2" dx=0 dy=0 dh=-140 dv=0
Position2: "Single Positioning lookup 2 per glyph data 2" dx=0 dy=0 dh=-80 dv=0
Position2: "Single Positioning lookup 1 subtable" dx=0 dy=0 dh=130 dv=0
EndChar

StartChar: uni0644
Encoding: 1604 1604 47
Width: 1377
GlyphClass: 2
Flags: W
AnchorPoint: "Anchor-2" 655 1006 basechar 0
AnchorPoint: "Anchor-0" 663 -708 basechar 0
LayerCount: 2
Fore
SplineSet
335 358 m 1,0,1
 302 274 302 274 285.5 187 c 128,-1,2
 269 100 269 100 269 36 c 0,3,4
 269 -167 269 -167 365.5 -254.5 c 128,-1,5
 462 -342 462 -342 675 -342 c 0,6,7
 1058 -342 1058 -342 1058 68 c 2,8,-1
 1061 1366 l 1,9,-1
 1229 1366 l 1,10,-1
 1228 107 l 2,11,12
 1228 -520 1228 -520 674 -520 c 0,13,14
 393 -520 393 -520 245.5 -381.5 c 128,-1,15
 98 -243 98 -243 98 35 c 0,16,17
 98 115 98 115 118.5 218 c 128,-1,18
 139 321 139 321 180 421 c 1,19,-1
 335 358 l 1,0,1
EndSplineSet
Substitution2: "'init' Initial Forms in Arabic lookup 2 subtable" uniFEDF
Substitution2: "'medi' Medial Forms in Arabic lookup 1 subtable" uniFEE0
Substitution2: "'fina' Terminal Forms in Arabic lookup 0 subtable" uniFEDE
Position2: "Single Positioning lookup 3 per glyph data 4" dx=0 dy=0 dh=-60 dv=0
Position2: "Single Positioning lookup 2 per glyph data 4" dx=0 dy=0 dh=-58 dv=0
Position2: "Single Positioning lookup 1 subtable" dx=0 dy=0 dh=130 dv=0
EndChar

StartChar: uni0645
Encoding: 1605 1605 48
Width: 1230
GlyphClass: 2
Flags: W
AnchorPoint: "Anchor-2" 774 980 basechar 0
AnchorPoint: "Anchor-0" 207 -789 basechar 0
LayerCount: 2
Fore
SplineSet
112 -655 m 1,0,1
 107 -567 107 -567 104 -489.5 c 128,-1,2
 101 -412 101 -412 101 -333 c 0,3,4
 101 -159 101 -159 121 -18 c 128,-1,5
 141 123 141 123 202 214 c 128,-1,6
 263 305 263 305 385 329 c 1,7,8
 459 515 459 515 557.5 604.5 c 128,-1,9
 656 694 656 694 780 695 c 0,10,11
 888 695 888 695 967 643 c 128,-1,12
 1046 591 1046 591 1089 503 c 128,-1,13
 1132 415 1132 415 1132 307 c 0,14,15
 1132 162 1132 162 1060.5 69.5 c 128,-1,16
 989 -23 989 -23 843 -23 c 0,17,18
 742 -23 742 -23 599 59 c 0,19,20
 575 74 575 74 549.5 88 c 128,-1,21
 524 102 524 102 496 116 c 0,22,23
 453 138 453 138 419 138 c 0,24,25
 341 137 341 137 307.5 28 c 128,-1,26
 274 -81 274 -81 274 -305 c 0,27,28
 274 -403 274 -403 277.5 -489 c 128,-1,29
 281 -575 281 -575 288 -655 c 1,30,-1
 112 -655 l 1,0,1
554 291 m 1,31,32
 644 229 644 229 717.5 192 c 128,-1,33
 791 155 791 155 842 155 c 0,34,35
 964 156 964 156 964 295 c 0,36,37
 964 387 964 387 915 451.5 c 128,-1,38
 866 516 866 516 780 516 c 0,39,40
 708 516 708 516 650.5 450 c 128,-1,41
 593 384 593 384 554 291 c 1,31,32
EndSplineSet
Substitution2: "'init' Initial Forms in Arabic lookup 2 subtable" uniFEE3
Substitution2: "'medi' Medial Forms in Arabic lookup 1 subtable" uniFEE4
Substitution2: "'fina' Terminal Forms in Arabic lookup 0 subtable" uniFEE2
Position2: "Single Positioning lookup 3 per glyph data 0" dx=0 dy=0 dh=-160 dv=0
Position2: "Single Positioning lookup 2 per glyph data 0" dx=0 dy=0 dh=-130 dv=0
EndChar

StartChar: uni0647
Encoding: 1607 1607 50
Width: 922
GlyphClass: 2
Flags: W
AnchorPoint: "Anchor-2" 410 1209 basechar 0
AnchorPoint: "Anchor-0" 436 -243 basechar 0
LayerCount: 2
Fore
SplineSet
369 922 m 1,0,1
 587 752 587 752 705.5 609.5 c 128,-1,2
 824 467 824 467 824 324 c 0,3,4
 824 178 824 178 724 91 c 128,-1,5
 624 4 624 4 461 4 c 0,6,7
 295 4 295 4 196.5 86 c 128,-1,8
 98 168 98 168 98 324 c 0,9,10
 98 435 98 435 154.5 528 c 128,-1,11
 211 621 211 621 323 746 c 1,12,-1
 272 792 l 1,13,-1
 369 922 l 1,0,1
447 625 m 1,14,15
 353 542 353 542 309 468 c 128,-1,16
 265 394 265 394 265 329 c 0,17,18
 265 260 265 260 311 220 c 128,-1,19
 357 180 357 180 460 180 c 0,20,21
 564 180 564 180 610.5 216.5 c 128,-1,22
 657 253 657 253 657 330 c 0,23,24
 657 391 657 391 605.5 465 c 128,-1,25
 554 539 554 539 447 625 c 1,14,15
EndSplineSet
Substitution2: "'init' Initial Forms in Arabic lookup 2 subtable" uniFEEB
Substitution2: "'medi' Medial Forms in Arabic lookup 1 subtable" uniFEEC
Substitution2: "'fina' Terminal Forms in Arabic lookup 0 subtable" uniFEEA
Position2: "Single Positioning lookup 3 per glyph data 0" dx=0 dy=0 dh=-160 dv=0
Position2: "Single Positioning lookup 2 per glyph data 0" dx=0 dy=0 dh=-130 dv=0
EndChar

StartChar: uni0648
Encoding: 1608 1608 51
Width: 880
GlyphClass: 2
Flags: W
AnchorPoint: "Anchor-2" 430 1030 basechar 0
AnchorPoint: "Anchor-0" 416 -630 basechar 0
LayerCount: 2
Fore
SplineSet
612 25 m 1,0,1
 578 14 578 14 529.5 7 c 128,-1,2
 481 0 481 0 448 0 c 0,3,4
 98 0 98 0 98 296 c 0,5,6
 98 395 98 395 133.5 490.5 c 128,-1,7
 169 586 169 586 242.5 649 c 128,-1,8
 316 712 316 712 428 712 c 0,9,10
 550 712 550 712 628.5 633.5 c 128,-1,11
 707 555 707 555 744.5 430 c 128,-1,12
 782 305 782 305 782 166 c 0,13,14
 782 -113 782 -113 628.5 -296 c 128,-1,15
 475 -479 475 -479 168 -538 c 1,16,-1
 108 -384 l 1,17,18
 326 -343 326 -343 457 -231.5 c 128,-1,19
 588 -120 588 -120 612 25 c 1,0,1
616 199 m 1,20,21
 595 535 595 535 420 535 c 0,22,23
 359 535 359 535 324.5 494 c 128,-1,24
 290 453 290 453 276.5 398.5 c 128,-1,25
 263 344 263 344 263 301 c 0,26,27
 263 232 263 232 309.5 204 c 128,-1,28
 356 176 356 176 453 176 c 0,29,30
 492 176 492 176 534 181.5 c 128,-1,31
 576 187 576 187 616 199 c 1,20,21
EndSplineSet
Substitution2: "'fina' Terminal Forms in Arabic lookup 0 subtable" uniFEEE
Position2: "Single Positioning lookup 3 per glyph data 1" dx=0 dy=0 dh=-30 dv=0
Position2: "Single Positioning lookup 2 per glyph data 1" dx=0 dy=0 dh=-30 dv=0
EndChar

StartChar: uni0649
Encoding: 1609 1609 52
Width: 1477
GlyphClass: 2
Flags: W
AnchorPoint: "Anchor-2" 645 936 basechar 0
AnchorPoint: "Anchor-0" 717 -676 basechar 0
LayerCount: 2
Fore
SplineSet
361 475 m 1,0,1
 269 250 269 250 269 72 c 0,2,3
 269 -132 269 -132 378 -227 c 128,-1,4
 487 -322 487 -322 714 -323 c 0,5,6
 802 -323 802 -323 890.5 -306.5 c 128,-1,7
 979 -290 979 -290 1053 -256.5 c 128,-1,8
 1127 -223 1127 -223 1172 -172 c 128,-1,9
 1217 -121 1217 -121 1217 -52 c 0,10,11
 1217 -15 1217 -15 1183.5 0.5 c 128,-1,12
 1150 16 1150 16 1118 16 c 2,13,-1
 974 16 l 2,14,15
 728 16 728 16 728 263 c 0,16,17
 728 384 728 384 783 489.5 c 128,-1,18
 838 595 838 595 939.5 661 c 128,-1,19
 1041 727 1041 727 1182 727 c 0,20,21
 1211 727 1211 727 1264.5 722.5 c 128,-1,22
 1318 718 1318 718 1372 695 c 1,23,-1
 1340 530 l 1,24,25
 1297 544 1297 544 1254 547.5 c 128,-1,26
 1211 551 1211 551 1182 551 c 0,27,28
 1100 551 1100 551 1045 521.5 c 128,-1,29
 990 492 990 492 957.5 448 c 128,-1,30
 925 404 925 404 911 357.5 c 128,-1,31
 897 311 897 311 897 276 c 0,32,33
 897 232 897 232 913.5 212 c 128,-1,34
 930 192 930 192 984 192 c 2,35,-1
 1144 192 l 2,36,37
 1263 191 1263 191 1320.5 123 c 128,-1,38
 1378 55 1378 55 1378 -48 c 0,39,40
 1378 -186 1378 -186 1291.5 -287.5 c 128,-1,41
 1205 -389 1205 -389 1056 -444 c 128,-1,42
 907 -499 907 -499 719 -499 c 0,43,44
 424 -499 424 -499 261 -354.5 c 128,-1,45
 98 -210 98 -210 98 79 c 0,46,47
 98 186 98 186 125 298.5 c 128,-1,48
 152 411 152 411 206 538 c 1,49,-1
 361 475 l 1,0,1
EndSplineSet
Substitution2: "'init' Initial Forms in Arabic lookup 2 subtable" uniFBE8
Substitution2: "'medi' Medial Forms in Arabic lookup 1 subtable" uniFBE9
Substitution2: "'fina' Terminal Forms in Arabic lookup 0 subtable" uniFEF0
Position2: "Single Positioning lookup 3 per glyph data 4" dx=0 dy=0 dh=-60 dv=0
Position2: "Single Positioning lookup 2 per glyph data 4" dx=0 dy=0 dh=-58 dv=0
EndChar

StartChar: uni064B
Encoding: 1611 1611 54
Width: 0
GlyphClass: 4
Flags: W
AnchorPoint: "Anchor-4" 266 1512 basemark 0
AnchorPoint: "Anchor-4" 297 1040 mark 0
AnchorPoint: "Anchor-2" 297 1040 mark 0
AnchorPoint: "Anchor-1" 297 1040 mark 0
LayerCount: 2
Fore
SplineSet
40 1204 m 1,0,-1
 40 1308 l 1,1,-1
 495 1494 l 1,2,-1
 495 1391 l 1,3,-1
 40 1204 l 1,0,-1
40 992 m 1,4,-1
 40 1096 l 1,5,-1
 495 1282 l 1,6,-1
 495 1179 l 1,7,-1
 40 992 l 1,4,-1
EndSplineSet
EndChar

StartChar: uni064C
Encoding: 1612 1612 55
Width: 0
GlyphClass: 4
Flags: W
AnchorPoint: "Anchor-4" 438 1452 basemark 0
AnchorPoint: "Anchor-4" 459 937 mark 0
AnchorPoint: "Anchor-2" 459 937 mark 0
AnchorPoint: "Anchor-1" 459 937 mark 0
LayerCount: 2
Fore
SplineSet
289 1229 m 0,0,1
 289 1302 289 1302 335.5 1346.5 c 128,-1,2
 382 1391 382 1391 452 1391 c 0,3,4
 523 1391 523 1391 568.5 1346.5 c 128,-1,5
 614 1302 614 1302 614 1228 c 0,6,7
 614 1171 614 1171 587 1107 c 1,8,9
 610 1103 610 1103 630 1103 c 1,10,-1
 630 1027 l 1,11,12
 615 1028 615 1028 596.5 1030 c 128,-1,13
 578 1032 578 1032 554 1036 c 1,14,15
 507 969 507 969 417 930 c 128,-1,16
 327 891 327 891 232 891 c 0,17,18
 160 891 160 891 134.5 930.5 c 128,-1,19
 109 970 109 970 109 1034 c 0,20,21
 109 1058 109 1058 112 1085.5 c 128,-1,22
 115 1113 115 1113 119 1142 c 1,23,-1
 14 1118 l 1,24,-1
 18 1200 l 1,25,-1
 207 1244 l 1,26,27
 197 1187 197 1187 188 1135.5 c 128,-1,28
 179 1084 179 1084 179 1046 c 0,29,30
 179 1011 179 1011 191 990 c 128,-1,31
 203 969 203 969 233 969 c 0,32,33
 289 969 289 969 362.5 992 c 128,-1,34
 436 1015 436 1015 480 1056 c 1,35,36
 408 1069 408 1069 348.5 1113.5 c 128,-1,37
 289 1158 289 1158 289 1229 c 0,0,1
509 1123 m 1,38,39
 520 1148 520 1148 528 1175.5 c 128,-1,40
 536 1203 536 1203 536 1227 c 0,41,42
 536 1263 536 1263 512.5 1287 c 128,-1,43
 489 1311 489 1311 456 1311 c 0,44,45
 419 1311 419 1311 394 1287.5 c 128,-1,46
 369 1264 369 1264 369 1225 c 0,47,48
 369 1182 369 1182 414.5 1159 c 128,-1,49
 460 1136 460 1136 509 1123 c 1,38,39
EndSplineSet
EndChar

StartChar: uni064D
Encoding: 1613 1613 56
Width: 0
GlyphClass: 4
Flags: W
AnchorPoint: "Anchor-5" 300 -607 basemark 0
AnchorPoint: "Anchor-5" 250 -167 mark 0
AnchorPoint: "Anchor-3" 250 -167 mark 0
AnchorPoint: "Anchor-0" 250 -167 mark 0
LayerCount: 2
Fore
SplineSet
40 -434 m 1,0,-1
 40 -330 l 1,1,-1
 496 -144 l 1,2,-1
 496 -248 l 1,3,-1
 40 -434 l 1,0,-1
40 -646 m 1,4,-1
 40 -542 l 1,5,-1
 496 -356 l 1,6,-1
 496 -460 l 1,7,-1
 40 -646 l 1,4,-1
EndSplineSet
EndChar

StartChar: uni064E
Encoding: 1614 1614 57
Width: 0
GlyphClass: 4
Flags: W
AnchorPoint: "Anchor-4" 289 1421 basemark 0
AnchorPoint: "Anchor-4" 294 1167 mark 0
AnchorPoint: "Anchor-2" 294 1167 mark 0
AnchorPoint: "Anchor-1" 294 1167 mark 0
LayerCount: 2
Fore
SplineSet
44 1118 m 1,0,-1
 44 1222 l 1,1,-1
 500 1408 l 1,2,-1
 500 1304 l 1,3,-1
 44 1118 l 1,0,-1
EndSplineSet
EndChar

StartChar: uni064F
Encoding: 1615 1615 58
Width: 0
GlyphClass: 4
Flags: W
AnchorPoint: "Anchor-4" 281 1467 basemark 0
AnchorPoint: "Anchor-4" 290 961 mark 0
AnchorPoint: "Anchor-2" 290 961 mark 0
AnchorPoint: "Anchor-1" 290 961 mark 0
LayerCount: 2
Fore
SplineSet
462 1049 m 1,0,1
 421 1049 421 1049 382 1055 c 1,2,3
 333 987 333 987 237.5 949.5 c 128,-1,4
 142 912 142 912 19 905 c 1,5,-1
 19 983 l 1,6,7
 117 992 117 992 193.5 1016 c 128,-1,8
 270 1040 270 1040 305 1077 c 1,9,10
 236 1090 236 1090 177.5 1134 c 128,-1,11
 119 1178 119 1178 119 1248 c 0,12,13
 119 1322 119 1322 165.5 1366 c 128,-1,14
 212 1410 212 1410 282 1410 c 0,15,16
 353 1410 353 1410 399 1365.5 c 128,-1,17
 445 1321 445 1321 445 1247 c 0,18,19
 445 1191 445 1191 419 1128 c 1,20,21
 429 1127 429 1127 440 1125.5 c 128,-1,22
 451 1124 451 1124 462 1124 c 1,23,-1
 462 1049 l 1,0,1
339 1142 m 1,24,25
 350 1167 350 1167 358 1194.5 c 128,-1,26
 366 1222 366 1222 366 1246 c 0,27,28
 366 1283 366 1283 342.5 1306 c 128,-1,29
 319 1329 319 1329 286 1329 c 0,30,31
 248 1329 248 1329 223.5 1306 c 128,-1,32
 199 1283 199 1283 199 1244 c 0,33,34
 199 1201 199 1201 244.5 1178 c 128,-1,35
 290 1155 290 1155 339 1142 c 1,24,25
EndSplineSet
EndChar

StartChar: uni0650
Encoding: 1616 1616 59
Width: 0
GlyphClass: 4
Flags: W
AnchorPoint: "Anchor-5" 316 -485 basemark 0
AnchorPoint: "Anchor-5" 268 -205 mark 0
AnchorPoint: "Anchor-3" 268 -205 mark 0
AnchorPoint: "Anchor-0" 268 -205 mark 0
LayerCount: 2
Fore
SplineSet
40 -506 m 1,0,-1
 40 -402 l 1,1,-1
 495 -216 l 1,2,-1
 495 -319 l 1,3,-1
 40 -506 l 1,0,-1
EndSplineSet
EndChar

StartChar: uni0651
Encoding: 1617 1617 60
Width: 0
GlyphClass: 4
Flags: W
AnchorPoint: "Anchor-4" 300 1370 basemark 0
AnchorPoint: "Anchor-4" 329 985 mark 0
AnchorPoint: "Anchor-2" 329 985 mark 0
AnchorPoint: "Anchor-1" 329 985 mark 0
LayerCount: 2
Fore
SplineSet
338 1289 m 1,0,1
 339 1248 339 1248 342.5 1205.5 c 128,-1,2
 346 1163 346 1163 360.5 1134 c 128,-1,3
 375 1105 375 1105 411 1105 c 0,4,5
 478 1105 478 1105 478 1206 c 0,6,7
 478 1242 478 1242 461 1324 c 1,8,-1
 549 1338 l 1,9,10
 567 1277 567 1277 567 1216 c 0,11,12
 567 1015 567 1015 420 1013 c 0,13,14
 388 1013 388 1013 356.5 1028 c 128,-1,15
 325 1043 325 1043 311 1070 c 1,16,17
 296 1012 296 1012 252 990.5 c 128,-1,18
 208 969 208 969 162 969 c 0,19,20
 24 969 24 969 24 1147 c 0,21,22
 24 1198 24 1198 37 1247 c 1,23,-1
 115 1234 l 1,24,25
 110 1211 110 1211 108 1190 c 128,-1,26
 106 1169 106 1169 106 1151 c 0,27,28
 106 1067 106 1067 174 1067 c 0,29,30
 238 1067 238 1067 249.5 1113 c 128,-1,31
 261 1159 261 1159 261 1250 c 2,32,-1
 261 1289 l 1,33,-1
 338 1289 l 1,0,1
EndSplineSet
EndChar

StartChar: uni0652
Encoding: 1618 1618 61
Width: 0
GlyphClass: 4
Flags: W
AnchorPoint: "Anchor-4" 210 1368 basemark 0
AnchorPoint: "Anchor-4" 213 944 mark 0
AnchorPoint: "Anchor-2" 213 944 mark 0
AnchorPoint: "Anchor-1" 213 944 mark 0
LayerCount: 2
Fore
SplineSet
41 1147 m 256,0,1
 41 1218 41 1218 92 1269 c 128,-1,2
 143 1320 143 1320 214 1320 c 256,3,4
 285 1320 285 1320 336 1269 c 128,-1,5
 387 1218 387 1218 387 1147 c 256,6,7
 387 1076 387 1076 336 1025 c 128,-1,8
 285 974 285 974 214 974 c 256,9,10
 143 974 143 974 92 1025 c 128,-1,11
 41 1076 41 1076 41 1147 c 256,0,1
120 1147 m 256,12,13
 120 1108 120 1108 147.5 1081 c 128,-1,14
 175 1054 175 1054 214 1054 c 256,15,16
 253 1054 253 1054 280 1081 c 128,-1,17
 307 1108 307 1108 307 1147 c 256,18,19
 307 1186 307 1186 280 1213.5 c 128,-1,20
 253 1241 253 1241 214 1241 c 256,21,22
 175 1241 175 1241 147.5 1213.5 c 128,-1,23
 120 1186 120 1186 120 1147 c 256,12,13
EndSplineSet
EndChar

StartChar: uni0653
Encoding: 1619 1619 62
Width: 0
GlyphClass: 4
Flags: W
AnchorPoint: "Anchor-4" 294 1386 basemark 0
AnchorPoint: "Anchor-4" 306 1052 mark 0
AnchorPoint: "Anchor-2" 306 1052 mark 0
AnchorPoint: "Anchor-1" 306 1052 mark 0
LayerCount: 2
Fore
SplineSet
230 1193 m 0,0,1
 191 1193 191 1193 161.5 1164.5 c 128,-1,2
 132 1136 132 1136 85 1083 c 1,3,-1
 12 1149 l 1,4,5
 62 1205 62 1205 113.5 1251.5 c 128,-1,6
 165 1298 165 1298 210 1298 c 0,7,8
 244 1298 244 1298 278 1280.5 c 128,-1,9
 312 1263 312 1263 345.5 1245.5 c 128,-1,10
 379 1228 379 1228 413 1228 c 0,11,12
 435 1228 435 1228 450.5 1231.5 c 128,-1,13
 466 1235 466 1235 487 1249.5 c 128,-1,14
 508 1264 508 1264 547 1296 c 1,15,-1
 610 1214 l 1,16,17
 550 1168 550 1168 508 1146 c 128,-1,18
 466 1124 466 1124 431 1124 c 0,19,20
 398 1124 398 1124 363.5 1141.5 c 128,-1,21
 329 1159 329 1159 295 1176 c 128,-1,22
 261 1193 261 1193 230 1193 c 0,0,1
EndSplineSet
EndChar

StartChar: uni0657
Encoding: 1623 1623 66
Width: 0
GlyphClass: 4
Flags: W
AnchorPoint: "Anchor-4" 304 1617 basemark 0
AnchorPoint: "Anchor-4" 280 948 mark 0
AnchorPoint: "Anchor-2" 280 948 mark 0
AnchorPoint: "Anchor-1" 280 948 mark 0
LayerCount: 2
Fore
SplineSet
32 1352 m 1,0,1
 91 1351 91 1351 162 1343 c 1,2,3
 237 1441 237 1441 326.5 1504 c 128,-1,4
 416 1567 416 1567 552 1580 c 1,5,-1
 552 1502 l 1,6,7
 367 1472 367 1472 253 1325 c 1,8,9
 318 1306 318 1306 371.5 1263 c 128,-1,10
 425 1220 425 1220 425 1146 c 0,11,12
 425 1078 425 1078 381 1031.5 c 128,-1,13
 337 985 337 985 268 985 c 256,14,15
 199 985 199 985 149 1030 c 128,-1,16
 99 1075 99 1075 99 1150 c 0,17,18
 99 1197 99 1197 122 1269 c 1,19,20
 102 1271 102 1271 80 1272 c 128,-1,21
 58 1273 58 1273 32 1273 c 1,22,-1
 32 1352 l 1,0,1
268 1063 m 0,23,24
 304 1063 304 1063 324 1085.5 c 128,-1,25
 344 1108 344 1108 344 1144 c 0,26,27
 344 1190 344 1190 299 1217 c 128,-1,28
 254 1244 254 1244 204 1256 c 1,29,30
 177 1192 177 1192 177 1152 c 0,31,32
 177 1113 177 1113 204 1088 c 128,-1,33
 231 1063 231 1063 268 1063 c 0,23,24
EndSplineSet
EndChar

StartChar: uni0658
Encoding: 1624 1624 67
Width: 0
GlyphClass: 2
Flags: W
AnchorPoint: "Anchor-4" 317 1297 basemark 0
AnchorPoint: "Anchor-4" 321 975 mark 0
AnchorPoint: "Anchor-2" 321 975 mark 0
AnchorPoint: "Anchor-1" 321 975 mark 0
AnchorPoint: "Anchor-0" 280 -174 basechar 0
LayerCount: 2
Fore
SplineSet
555 1275 m 1,0,1
 545 1164 545 1164 484 1086 c 128,-1,2
 423 1008 423 1008 309 1008 c 0,3,4
 194 1008 194 1008 134 1086.5 c 128,-1,5
 74 1165 74 1165 63 1275 c 1,6,-1
 164 1275 l 1,7,8
 174 1202 174 1202 205.5 1156 c 128,-1,9
 237 1110 237 1110 309 1110 c 256,10,11
 381 1110 381 1110 412 1157 c 128,-1,12
 443 1204 443 1204 453 1275 c 1,13,-1
 555 1275 l 1,0,1
EndSplineSet
EndChar

StartChar: uni065A
Encoding: 1626 1626 68
Width: 0
GlyphClass: 4
Flags: W
AnchorPoint: "Anchor-4" 571 1862 basemark 0
AnchorPoint: "Anchor-4" 573 1351 mark 0
AnchorPoint: "Anchor-2" 573 1351 mark 0
AnchorPoint: "Anchor-1" 573 1351 mark 0
LayerCount: 2
Fore
SplineSet
502 1444 m 1,0,-1
 309 1768 l 1,1,-1
 433 1768 l 1,2,-1
 573 1528 l 1,3,-1
 714 1768 l 1,4,-1
 838 1768 l 1,5,-1
 644 1444 l 1,6,-1
 502 1444 l 1,0,-1
EndSplineSet
EndChar

StartChar: uni065B
Encoding: 1627 1627 69
Width: 0
GlyphClass: 4
Flags: W
AnchorPoint: "Anchor-4" 571 1862 basemark 0
AnchorPoint: "Anchor-4" 573 1351 mark 0
AnchorPoint: "Anchor-2" 573 1351 mark 0
AnchorPoint: "Anchor-1" 573 1351 mark 0
LayerCount: 2
Fore
SplineSet
502 1768 m 1,0,-1
 644 1768 l 1,1,-1
 838 1444 l 1,2,-1
 714 1444 l 1,3,-1
 573 1684 l 1,4,-1
 433 1444 l 1,5,-1
 309 1444 l 1,6,-1
 502 1768 l 1,0,-1
EndSplineSet
EndChar

StartChar: uni0660
Encoding: 1632 1632 70
Width: 799
GlyphClass: 2
Flags: W
LayerCount: 2
Fore
SplineSet
175 489 m 1,0,-1
 398 713 l 1,1,-1
 624 488 l 1,2,-1
 400 264 l 1,3,-1
 175 489 l 1,0,-1
EndSplineSet
EndChar

StartChar: uni0661
Encoding: 1633 1633 71
Width: 651
GlyphClass: 2
Flags: W
LayerCount: 2
Fore
SplineSet
274 1320 m 1,0,1
 375 1095 375 1095 426 829.5 c 128,-1,2
 477 564 477 564 477 245 c 2,3,-1
 477 0 l 1,4,-1
 307 0 l 1,5,-1
 307 248 l 2,6,7
 307 568 307 568 260 819 c 128,-1,8
 213 1070 213 1070 118 1263 c 1,9,-1
 274 1320 l 1,0,1
EndSplineSet
EndChar

StartChar: uni0662
Encoding: 1634 1634 72
Width: 1114
GlyphClass: 2
Flags: W
LayerCount: 2
Fore
SplineSet
307 248 m 2,0,1
 307 568 307 568 260 819 c 128,-1,2
 213 1070 213 1070 118 1263 c 1,3,-1
 273 1319 l 1,4,5
 296 1259 296 1259 319 1199.5 c 128,-1,6
 342 1140 342 1140 364 1080 c 0,7,8
 399 988 399 988 459 941.5 c 128,-1,9
 519 895 519 895 624 895 c 0,10,11
 731 895 731 895 780.5 964.5 c 128,-1,12
 830 1034 830 1034 830 1150 c 0,13,14
 830 1190 830 1190 824 1234.5 c 128,-1,15
 818 1279 818 1279 813 1310 c 1,16,-1
 982 1329 l 1,17,18
 987 1296 987 1296 991.5 1250 c 128,-1,19
 996 1204 996 1204 996 1160 c 0,20,21
 996 956 996 956 901 839 c 128,-1,22
 806 722 806 722 626 722 c 0,23,24
 570 722 570 722 530.5 731.5 c 128,-1,25
 491 741 491 741 438 763 c 1,26,27
 458 621 458 621 467.5 492.5 c 128,-1,28
 477 364 477 364 477 245 c 2,29,-1
 477 0 l 1,30,-1
 307 0 l 1,31,-1
 307 248 l 2,0,1
EndSplineSet
EndChar

StartChar: uni0663
Encoding: 1635 1635 73
Width: 1411
GlyphClass: 2
Flags: W
LayerCount: 2
Fore
SplineSet
307 248 m 2,0,1
 307 568 307 568 260 819 c 128,-1,2
 213 1070 213 1070 118 1263 c 1,3,-1
 273 1319 l 1,4,5
 300 1243 300 1243 327.5 1168 c 128,-1,6
 355 1093 355 1093 382 1017 c 0,7,8
 425 897 425 897 566 895 c 0,9,10
 696 895 696 895 698 1161 c 0,11,12
 698 1185 698 1185 698.5 1209.5 c 128,-1,13
 699 1234 699 1234 699 1258 c 1,14,-1
 853 1271 l 1,15,16
 854 1246 854 1246 855 1220 c 128,-1,17
 856 1194 856 1194 857 1168 c 0,18,19
 868 895 868 895 999 895 c 0,20,21
 1076 895 1076 895 1102 956.5 c 128,-1,22
 1128 1018 1128 1018 1128 1094 c 0,23,24
 1128 1165 1128 1165 1121 1218 c 128,-1,25
 1114 1271 1114 1271 1107 1310 c 1,26,-1
 1276 1330 l 1,27,28
 1281 1289 1281 1289 1287 1231.5 c 128,-1,29
 1293 1174 1293 1174 1293 1100 c 0,30,31
 1293 935 1293 935 1221 828.5 c 128,-1,32
 1149 722 1149 722 995 722 c 0,33,34
 933 722 933 722 877.5 748.5 c 128,-1,35
 822 775 822 775 772 833 c 1,36,37
 724 775 724 775 671 748.5 c 128,-1,38
 618 722 618 722 568 722 c 0,39,40
 536 722 536 722 504 729 c 128,-1,41
 472 736 472 736 440 755 c 1,42,43
 460 613 460 613 468.5 492.5 c 128,-1,44
 477 372 477 372 477 245 c 2,45,-1
 477 0 l 1,46,-1
 307 0 l 1,47,-1
 307 248 l 2,0,1
EndSplineSet
EndChar

StartChar: uni0664
Encoding: 1636 1636 74
Width: 1001
GlyphClass: 2
Flags: W
LayerCount: 2
Fore
SplineSet
763 624 m 1,0,1
 537 533 537 533 423 460 c 128,-1,2
 309 387 309 387 309 311 c 0,3,4
 309 238 309 238 413.5 209 c 128,-1,5
 518 180 518 180 699 180 c 2,6,-1
 891 180 l 1,7,-1
 893 0 l 1,8,-1
 692 0 l 2,9,10
 130 2 130 2 130 307 c 0,11,12
 130 422 130 422 229 512 c 128,-1,13
 328 602 328 602 521 688 c 1,14,15
 366 721 366 721 296 792.5 c 128,-1,16
 226 864 226 864 226 973 c 0,17,18
 226 1077 226 1077 288 1152 c 128,-1,19
 350 1227 350 1227 454 1267 c 128,-1,20
 558 1307 558 1307 683 1307 c 0,21,22
 738 1307 738 1307 793 1300 c 1,23,-1
 780 1122 l 1,24,25
 734 1128 734 1128 690 1128 c 0,26,27
 571 1128 571 1128 487.5 1088.5 c 128,-1,28
 404 1049 404 1049 404 976 c 0,29,30
 404 835 404 835 761 805 c 1,31,-1
 763 624 l 1,0,1
EndSplineSet
EndChar

StartChar: uni0665
Encoding: 1637 1637 75
Width: 1157
GlyphClass: 2
Flags: W
LayerCount: 2
Fore
SplineSet
478 1249 m 1,0,1
 774 1015 774 1015 907.5 815 c 128,-1,2
 1041 615 1041 615 1041 412 c 0,3,4
 1041 222 1041 222 922.5 111 c 128,-1,5
 804 0 804 0 581 0 c 0,6,7
 345 0 345 0 231 109 c 128,-1,8
 117 218 117 218 117 411 c 0,9,10
 117 564 117 564 196 713.5 c 128,-1,11
 275 863 275 863 422 1056 c 1,12,-1
 371 1095 l 1,13,-1
 478 1249 l 1,0,1
556 952 m 1,14,15
 421 785 421 785 355 647 c 128,-1,16
 289 509 289 509 289 411 c 0,17,18
 289 294 289 294 359 236 c 128,-1,19
 429 178 429 178 585 178 c 0,20,21
 730 178 730 178 798.5 235 c 128,-1,22
 867 292 867 292 867 413 c 0,23,24
 867 529 867 529 789 668 c 128,-1,25
 711 807 711 807 556 952 c 1,14,15
EndSplineSet
EndChar

StartChar: uni0666
Encoding: 1638 1638 76
Width: 1100
GlyphClass: 2
Flags: W
LayerCount: 2
Fore
SplineSet
761 0 m 1,0,1
 736 167 736 167 721.5 330 c 128,-1,2
 707 493 707 493 699.5 668 c 128,-1,3
 692 843 692 843 688 1046 c 1,4,5
 639 1038 639 1038 582 1033 c 128,-1,6
 525 1028 525 1028 464 1028 c 0,7,8
 378 1028 378 1028 288.5 1039.5 c 128,-1,9
 199 1051 199 1051 118 1080 c 1,10,-1
 118 1277 l 1,11,12
 209 1247 209 1247 298 1233 c 128,-1,13
 387 1219 387 1219 474 1219 c 0,14,15
 571 1219 571 1219 664.5 1235 c 128,-1,16
 758 1251 758 1251 849 1279 c 1,17,18
 853 991 853 991 862.5 763 c 128,-1,19
 872 535 872 535 892 348.5 c 128,-1,20
 912 162 912 162 945 0 c 1,21,-1
 761 0 l 1,0,1
EndSplineSet
PairPos2: "'kern' Horizontal Kerning in Arabic lookup 0 subtable" uni0668 dx=-150 dy=0 dh=-150 dv=0 dx=0 dy=0 dh=0 dv=0
PairPos2: "'kern' Horizontal Kerning in Arabic lookup 0 subtable" uni0665 dx=-150 dy=0 dh=-150 dv=0 dx=0 dy=0 dh=0 dv=0
EndChar

StartChar: uni0667
Encoding: 1639 1639 77
Width: 1246
GlyphClass: 2
Flags: W
LayerCount: 2
Fore
SplineSet
542 0 m 1,0,1
 475 385 475 385 358.5 701.5 c 128,-1,2
 242 1018 242 1018 100 1235 c 1,3,-1
 255 1319 l 1,4,5
 365 1132 365 1132 468 873.5 c 128,-1,6
 571 615 571 615 624 304 c 1,7,8
 676 615 676 615 778.5 873.5 c 128,-1,9
 881 1132 881 1132 991 1319 c 1,10,-1
 1146 1235 l 1,11,12
 1004 1018 1004 1018 888.5 701.5 c 128,-1,13
 773 385 773 385 705 0 c 1,14,-1
 542 0 l 1,0,1
EndSplineSet
EndChar

StartChar: uni0668
Encoding: 1640 1640 78
Width: 1246
GlyphClass: 2
Flags: W
LayerCount: 2
Fore
SplineSet
542 1305 m 1,0,-1
 705 1305 l 1,1,2
 773 920 773 920 888.5 603.5 c 128,-1,3
 1004 287 1004 287 1146 70 c 1,4,-1
 991 -14 l 1,5,6
 881 173 881 173 778.5 432 c 128,-1,7
 676 691 676 691 624 1001 c 1,8,9
 571 691 571 691 468 432 c 128,-1,10
 365 173 365 173 255 -14 c 1,11,-1
 100 70 l 1,12,13
 242 287 242 287 358.5 603.5 c 128,-1,14
 475 920 475 920 542 1305 c 1,0,-1
EndSplineSet
EndChar

StartChar: uni0669
Encoding: 1641 1641 79
Width: 1026
GlyphClass: 2
Flags: W
LayerCount: 2
Fore
SplineSet
107 930 m 0,0,1
 107 1026 107 1026 151.5 1114.5 c 128,-1,2
 196 1203 196 1203 274 1259.5 c 128,-1,3
 352 1316 352 1316 452 1316 c 0,4,5
 586 1316 586 1316 662 1253.5 c 128,-1,6
 738 1191 738 1191 772.5 1081 c 128,-1,7
 807 971 807 971 814 830 c 0,8,9
 825 598 825 598 833.5 395 c 128,-1,10
 842 192 842 192 847 0 c 1,11,-1
 679 0 l 1,12,13
 678 51 678 51 675.5 137.5 c 128,-1,14
 673 224 673 224 670 321.5 c 128,-1,15
 667 419 667 419 665 505 c 128,-1,16
 663 591 663 591 661 642 c 1,17,18
 636 635 636 635 590.5 626 c 128,-1,19
 545 617 545 617 483 617 c 0,20,21
 296 617 296 617 201.5 697 c 128,-1,22
 107 777 107 777 107 930 c 0,0,1
451 1145 m 0,23,24
 398 1145 398 1145 358 1113.5 c 128,-1,25
 318 1082 318 1082 295.5 1032.5 c 128,-1,26
 273 983 273 983 273 930 c 0,27,28
 273 859 273 859 321.5 823 c 128,-1,29
 370 787 370 787 486 787 c 0,30,31
 524 787 524 787 573 796 c 128,-1,32
 622 805 622 805 647 812 c 1,33,34
 642 901 642 901 628 977 c 128,-1,35
 614 1053 614 1053 574.5 1099 c 128,-1,36
 535 1145 535 1145 451 1145 c 0,23,24
EndSplineSet
EndChar

StartChar: uni066A
Encoding: 1642 1642 80
Width: 1033
GlyphClass: 2
Flags: W
LayerCount: 2
Fore
SplineSet
742 1352 m 1,0,-1
 874 1292 l 1,1,-1
 292 5 l 1,2,-1
 160 65 l 1,3,-1
 742 1352 l 1,0,-1
130 1159 m 0,4,5
 130 1214 130 1214 169 1253.5 c 128,-1,6
 208 1293 208 1293 263 1293 c 256,7,8
 318 1293 318 1293 357 1253.5 c 128,-1,9
 396 1214 396 1214 396 1159 c 256,10,11
 396 1104 396 1104 357 1065 c 128,-1,12
 318 1026 318 1026 263 1026 c 256,13,14
 208 1026 208 1026 169 1064 c 128,-1,15
 130 1102 130 1102 130 1159 c 0,4,5
637 193 m 0,16,17
 637 248 637 248 676 287.5 c 128,-1,18
 715 327 715 327 770 327 c 256,19,20
 825 327 825 327 864 287.5 c 128,-1,21
 903 248 903 248 903 193 c 256,22,23
 903 138 903 138 864 99 c 128,-1,24
 825 60 825 60 770 60 c 256,25,26
 715 60 715 60 676 98 c 128,-1,27
 637 136 637 136 637 193 c 0,16,17
EndSplineSet
EndChar

StartChar: uni066B
Encoding: 1643 1643 81
Width: 772
GlyphClass: 2
Flags: W
LayerCount: 2
Fore
SplineSet
534 713 m 1,0,-1
 661 659 l 1,1,-1
 199 -408 l 1,2,-1
 69 -352 l 1,3,-1
 534 713 l 1,0,-1
EndSplineSet
PairPos2: "'kern' Horizontal Kerning in Arabic lookup 0 subtable" uni06F4 dx=-110 dy=0 dh=-110 dv=0 dx=0 dy=0 dh=0 dv=0
PairPos2: "'kern' Horizontal Kerning in Arabic lookup 0 subtable" uni06F3 dx=-130 dy=0 dh=-130 dv=0 dx=0 dy=0 dh=0 dv=0
PairPos2: "'kern' Horizontal Kerning in Arabic lookup 0 subtable" uni06F2 dx=-130 dy=0 dh=-130 dv=0 dx=0 dy=0 dh=0 dv=0
EndChar

StartChar: uni066C
Encoding: 1644 1644 82
Width: 560
GlyphClass: 2
Flags: W
LayerCount: 2
Fore
SplineSet
178 -300 m 1,0,-1
 83 -228 l 1,1,2
 130 -163 130 -163 158.5 -90.5 c 128,-1,3
 187 -18 187 -18 187 52 c 2,4,-1
 187 219 l 1,5,-1
 358 219 l 1,6,-1
 358 74 l 2,7,8
 358 -2 358 -2 331.5 -74 c 128,-1,9
 305 -146 305 -146 263.5 -205 c 128,-1,10
 222 -264 222 -264 178 -300 c 1,0,-1
EndSplineSet
EndChar

StartChar: uni066D
Encoding: 1645 1645 83
Width: 1436
GlyphClass: 2
Flags: W
LayerCount: 2
Fore
SplineSet
151 1039 m 1,0,-1
 583 1039 l 1,1,-1
 718 1450 l 1,2,-1
 853 1039 l 1,3,-1
 1285 1039 l 1,4,-1
 936 783 l 1,5,-1
 1070 373 l 1,6,-1
 718 627 l 1,7,-1
 366 373 l 1,8,-1
 500 783 l 1,9,-1
 151 1039 l 1,0,-1
EndSplineSet
EndChar

StartChar: uni066E
Encoding: 1646 1646 84
Width: 1777
GlyphClass: 2
Flags: W
AnchorPoint: "Anchor-2" 901 971 basechar 0
AnchorPoint: "Anchor-0" 900 -226 basechar 0
LayerCount: 2
Fore
SplineSet
975 0 m 2,0,-1
 840 0 l 2,1,2
 481 0 481 0 289.5 121.5 c 128,-1,3
 98 243 98 243 98 484 c 0,4,5
 98 551 98 551 112.5 615 c 128,-1,6
 127 679 127 679 152 738 c 1,7,-1
 305 681 l 1,8,9
 289 639 289 639 281 591 c 128,-1,10
 273 543 273 543 273 499 c 0,11,12
 274 334 274 334 414 257 c 128,-1,13
 554 180 554 180 830 180 c 2,14,-1
 968 180 l 2,15,16
 1071 180 1071 180 1167 185 c 128,-1,17
 1263 190 1263 190 1339.5 213.5 c 128,-1,18
 1416 237 1416 237 1461 292.5 c 128,-1,19
 1506 348 1506 348 1506 448 c 0,20,21
 1506 538 1506 538 1470 698 c 1,22,-1
 1634 738 l 1,23,24
 1657 663 1657 663 1668 582 c 128,-1,25
 1679 501 1679 501 1679 463 c 0,26,27
 1679 312 1679 312 1627.5 219.5 c 128,-1,28
 1576 127 1576 127 1481.5 80 c 128,-1,29
 1387 33 1387 33 1258 16.5 c 128,-1,30
 1129 0 1129 0 975 0 c 2,0,-1
EndSplineSet
Substitution2: "'init' Initial Forms in Arabic lookup 2 subtable" uni066E.init.compact
Substitution2: "'medi' Medial Forms in Arabic lookup 1 subtable" uni066E.medi.compact
Substitution2: "'fina' Terminal Forms in Arabic lookup 0 subtable" uni066E.fina
EndChar

StartChar: uni066F
Encoding: 1647 1647 85
Width: 1437
GlyphClass: 2
Flags: W
AnchorPoint: "Anchor-2" 956 1168 basechar 0
AnchorPoint: "Anchor-0" 738 -656 basechar 0
LayerCount: 2
Fore
SplineSet
343 482 m 1,0,1
 270 289 270 289 270 121 c 0,2,3
 270 -82 270 -82 378 -182 c 128,-1,4
 486 -282 486 -282 715 -282 c 0,5,6
 967 -282 967 -282 1071 -180.5 c 128,-1,7
 1175 -79 1175 -79 1178 109 c 1,8,9
 1129 95 1129 95 1084 87 c 128,-1,10
 1039 79 1039 79 981 79 c 0,11,12
 651 79 651 79 651 349 c 0,13,14
 651 446 651 446 683.5 540 c 128,-1,15
 716 634 716 634 788 696.5 c 128,-1,16
 860 759 860 759 978 759 c 0,17,18
 1079 759 1079 759 1148 708 c 128,-1,19
 1217 657 1217 657 1259 571 c 128,-1,20
 1301 485 1301 485 1320 377.5 c 128,-1,21
 1339 270 1339 270 1339 156 c 0,22,23
 1339 -460 1339 -460 721 -460 c 0,24,25
 422 -460 422 -460 260 -312 c 128,-1,26
 98 -164 98 -164 98 116 c 0,27,28
 98 326 98 326 188 545 c 1,29,-1
 343 482 l 1,0,1
1163 276 m 1,30,31
 1155 344 1155 344 1134.5 415 c 128,-1,32
 1114 486 1114 486 1075 535 c 128,-1,33
 1036 584 1036 584 971 584 c 0,34,35
 914 584 914 584 879 545 c 128,-1,36
 844 506 844 506 827.5 452.5 c 128,-1,37
 811 399 811 399 811 356 c 0,38,39
 811 293 811 293 855.5 271 c 128,-1,40
 900 249 900 249 987 249 c 0,41,42
 1031 249 1031 249 1075.5 256 c 128,-1,43
 1120 263 1120 263 1163 276 c 1,30,31
EndSplineSet
Substitution2: "'init' Initial Forms in Arabic lookup 2 subtable" uni066F.init
Substitution2: "'medi' Medial Forms in Arabic lookup 1 subtable" uni066F.medi
Substitution2: "'fina' Terminal Forms in Arabic lookup 0 subtable" uni066F.fina
EndChar

StartChar: uni0670
Encoding: 1648 1648 86
Width: 0
GlyphClass: 4
Flags: W
AnchorPoint: "Anchor-4" 107 1482 basemark 0
AnchorPoint: "Anchor-4" 107 1026 mark 0
AnchorPoint: "Anchor-2" 107 1026 mark 0
AnchorPoint: "Anchor-1" 107 1026 mark 0
LayerCount: 2
Fore
SplineSet
65 1095 m 1,0,-1
 65 1453 l 1,1,-1
 149 1453 l 1,2,-1
 149 1095 l 1,3,-1
 65 1095 l 1,0,-1
EndSplineSet
EndChar

StartChar: uni0674
Encoding: 1652 1652 88
Width: 551
GlyphClass: 2
Flags: W
LayerCount: 2
Fore
SplineSet
205 1245 m 1,0,1
 173 1277 173 1277 151.5 1317.5 c 128,-1,2
 130 1358 130 1358 130 1413 c 0,3,4
 130 1452 130 1452 141.5 1483 c 128,-1,5
 153 1514 153 1514 172 1537 c 0,6,7
 198 1569 198 1569 235.5 1585 c 128,-1,8
 273 1601 273 1601 313 1601 c 0,9,10
 354 1601 354 1601 379 1591.5 c 128,-1,11
 404 1582 404 1582 432 1565 c 1,12,-1
 433 1467 l 1,13,14
 378 1496 378 1496 327 1496 c 0,15,16
 309 1496 309 1496 287.5 1490.5 c 128,-1,17
 266 1485 266 1485 250 1470 c 0,18,19
 222 1445 222 1445 222 1400 c 0,20,21
 223 1367 223 1367 245.5 1337 c 128,-1,22
 268 1307 268 1307 317 1293 c 0,23,24
 322 1292 322 1292 327 1290 c 128,-1,25
 332 1288 332 1288 339 1288 c 0,26,27
 345 1288 345 1288 349 1289 c 2,28,-1
 471 1314 l 1,29,-1
 471 1216 l 1,30,-1
 92 1125 l 1,31,-1
 92 1219 l 1,32,-1
 205 1245 l 1,0,1
EndSplineSet
EndChar

StartChar: uni06A1
Encoding: 1697 1697 103
Width: 1781
GlyphClass: 2
Flags: W
AnchorPoint: "Anchor-2" 1289 1386 basechar 0
AnchorPoint: "Anchor-0" 887 -225 basechar 0
LayerCount: 2
Fore
SplineSet
1529 390 m 1,0,1
 1436 361 1436 361 1328 361 c 0,2,3
 1165 361 1165 361 1083.5 427.5 c 128,-1,4
 1002 494 1002 494 1002 633 c 0,5,6
 1002 727 1002 727 1035 821 c 128,-1,7
 1068 915 1068 915 1140 978 c 128,-1,8
 1212 1041 1212 1041 1328 1041 c 0,9,10
 1423 1041 1423 1041 1490 992.5 c 128,-1,11
 1557 944 1557 944 1600 861.5 c 128,-1,12
 1643 779 1643 779 1663 675 c 128,-1,13
 1683 571 1683 571 1683 461 c 0,14,15
 1682 270 1682 270 1626 170.5 c 128,-1,16
 1570 71 1570 71 1448 35.5 c 128,-1,17
 1326 0 1326 0 1127 0 c 2,18,-1
 837 0 l 2,19,20
 472 0 472 0 285 121.5 c 128,-1,21
 98 243 98 243 98 484 c 0,22,23
 98 551 98 551 112.5 615 c 128,-1,24
 127 679 127 679 152 738 c 1,25,-1
 305 681 l 1,26,27
 289 639 289 639 281 591 c 128,-1,28
 273 543 273 543 273 499 c 0,29,30
 273 334 273 334 418.5 257 c 128,-1,31
 564 180 564 180 833 180 c 2,32,-1
 1148 180 l 2,33,34
 1336 180 1336 180 1432.5 220.5 c 128,-1,35
 1529 261 1529 261 1529 390 c 1,0,1
1514 558 m 1,36,37
 1506 625 1506 625 1485 696 c 128,-1,38
 1464 767 1464 767 1425 816 c 128,-1,39
 1386 865 1386 865 1322 865 c 0,40,41
 1265 865 1265 865 1229.5 826.5 c 128,-1,42
 1194 788 1194 788 1178 734.5 c 128,-1,43
 1162 681 1162 681 1162 637 c 0,44,45
 1162 574 1162 574 1206.5 552.5 c 128,-1,46
 1251 531 1251 531 1339 531 c 0,47,48
 1383 531 1383 531 1426.5 538 c 128,-1,49
 1470 545 1470 545 1514 558 c 1,36,37
EndSplineSet
Substitution2: "'init' Initial Forms in Arabic lookup 2 subtable" uni06A1.init
Substitution2: "'medi' Medial Forms in Arabic lookup 1 subtable" uni06A1.medi
Substitution2: "'fina' Terminal Forms in Arabic lookup 0 subtable" uni06A1.fina
EndChar

StartChar: uni06A9
Encoding: 1705 1705 105
Width: 1865
GlyphClass: 2
Flags: W
AnchorPoint: "Anchor-2" 1194 1345 basechar 0
AnchorPoint: "Anchor-0" 900 -226 basechar 0
LayerCount: 2
Fore
SplineSet
1080 180 m 2,0,1
 1286 180 1286 180 1376 221.5 c 128,-1,2
 1466 263 1466 263 1466 359 c 0,3,4
 1466 413 1466 413 1425 472.5 c 128,-1,5
 1384 532 1384 532 1317 596.5 c 128,-1,6
 1250 661 1250 661 1169 728.5 c 128,-1,7
 1088 796 1088 796 1008 865 c 0,8,9
 957 908 957 908 957 983 c 0,10,11
 957 1027 957 1027 981.5 1069.5 c 128,-1,12
 1006 1112 1006 1112 1061 1133 c 2,13,-1
 1805 1410 l 1,14,-1
 1805 1234 l 1,15,-1
 1130 984 l 1,16,17
 1206 923 1206 923 1294.5 852.5 c 128,-1,18
 1383 782 1383 782 1462 703 c 128,-1,19
 1541 624 1541 624 1591.5 537 c 128,-1,20
 1642 450 1642 450 1642 356 c 0,21,22
 1642 177 1642 177 1509 88.5 c 128,-1,23
 1376 0 1376 0 1081 0 c 2,24,-1
 840 0 l 2,25,26
 482 0 482 0 290 121.5 c 128,-1,27
 98 243 98 243 98 484 c 0,28,29
 98 551 98 551 112.5 615 c 128,-1,30
 127 679 127 679 152 738 c 1,31,-1
 305 681 l 1,32,33
 289 639 289 639 281 591 c 128,-1,34
 273 543 273 543 273 499 c 0,35,36
 274 334 274 334 414 257 c 128,-1,37
 554 180 554 180 830 180 c 2,38,-1
 1080 180 l 2,0,1
EndSplineSet
Substitution2: "'init' Initial Forms in Arabic lookup 2 subtable" uniFB90
Substitution2: "'medi' Medial Forms in Arabic lookup 1 subtable" uniFB91
Substitution2: "'fina' Terminal Forms in Arabic lookup 0 subtable" uniFB8F
Position2: "Single Positioning lookup 3 per glyph data 3" dx=0 dy=0 dh=-220 dv=0
Position2: "Single Positioning lookup 2 per glyph data 3" dx=0 dy=0 dh=-200 dv=0
Position2: "Single Positioning lookup 1 subtable" dx=0 dy=0 dh=180 dv=0
EndChar

StartChar: uni06AA
Encoding: 1706 1706 106
Width: 2010
GlyphClass: 2
Flags: W
AnchorPoint: "Anchor-2" 734 1019 basechar 0
AnchorPoint: "Anchor-0" 900 -226 basechar 0
LayerCount: 2
Fore
SplineSet
1191 0 m 2,0,-1
 840 0 l 2,1,2
 808 0 808 0 729 1 c 128,-1,3
 650 2 650 2 543 8 c 128,-1,4
 436 14 436 14 318.5 27 c 128,-1,5
 201 40 201 40 93 64 c 1,6,-1
 146 219 l 1,7,8
 279 201 279 201 410.5 193 c 128,-1,9
 542 185 542 185 652 182.5 c 128,-1,10
 762 180 762 180 830 180 c 2,11,-1
 1190 180 l 2,12,13
 1293 180 1293 180 1391.5 185 c 128,-1,14
 1490 190 1490 190 1569 204.5 c 128,-1,15
 1648 219 1648 219 1694.5 248 c 128,-1,16
 1741 277 1741 277 1741 325 c 0,17,18
 1741 369 1741 369 1671.5 398.5 c 128,-1,19
 1602 428 1602 428 1481 443.5 c 128,-1,20
 1360 459 1360 459 1204 459 c 2,21,-1
 836 459 l 2,22,23
 773 462 773 462 723 474 c 128,-1,24
 673 486 673 486 643.5 519.5 c 128,-1,25
 614 553 614 553 614 619 c 0,26,27
 614 663 614 663 645.5 704 c 128,-1,28
 677 745 677 745 718 779 c 0,29,30
 790 838 790 838 908.5 906.5 c 128,-1,31
 1027 975 1027 975 1171 1040.5 c 128,-1,32
 1315 1106 1315 1106 1462 1156 c 1,33,-1
 1462 985 l 1,34,35
 1272 924 1272 924 1105.5 835.5 c 128,-1,36
 939 747 939 747 787 635 c 1,37,-1
 1209 635 l 2,38,39
 1541 635 1541 635 1726.5 556 c 128,-1,40
 1912 477 1912 477 1912 322 c 0,41,42
 1912 232 1912 232 1855.5 170.5 c 128,-1,43
 1799 109 1799 109 1699 71.5 c 128,-1,44
 1599 34 1599 34 1468.5 17 c 128,-1,45
 1338 0 1338 0 1191 0 c 2,0,-1
EndSplineSet
Substitution2: "'init' Initial Forms in Arabic lookup 2 subtable" uni06AA.init
Substitution2: "'medi' Medial Forms in Arabic lookup 1 subtable" uni06AA.medi
Substitution2: "'fina' Terminal Forms in Arabic lookup 0 subtable" uni06AA.fina
EndChar

StartChar: uni06BA
Encoding: 1722 1722 111
Width: 1447
GlyphClass: 2
Flags: W
AnchorPoint: "Anchor-2" 742 778 basechar 0
AnchorPoint: "Anchor-0" 712 -612 basechar 0
LayerCount: 2
Fore
SplineSet
1087 539 m 1,0,-1
 1260 599 l 1,1,2
 1307 481 1307 481 1328 365.5 c 128,-1,3
 1349 250 1349 250 1349 140 c 0,4,5
 1349 -53 1349 -53 1268.5 -184.5 c 128,-1,6
 1188 -316 1188 -316 1046 -383 c 128,-1,7
 904 -450 904 -450 721 -450 c 0,8,9
 424 -450 424 -450 261 -302 c 128,-1,10
 98 -154 98 -154 98 126 c 0,11,12
 98 336 98 336 188 555 c 1,13,-1
 343 492 l 1,14,15
 270 299 270 299 270 131 c 0,16,17
 270 -72 270 -72 379.5 -172 c 128,-1,18
 489 -272 489 -272 718 -272 c 0,19,20
 941 -272 941 -272 1058.5 -162.5 c 128,-1,21
 1176 -53 1176 -53 1177 170 c 0,22,23
 1177 351 1177 351 1087 539 c 1,0,-1
EndSplineSet
Substitution2: "'init' Initial Forms in Arabic lookup 2 subtable" uni06BA.init
Substitution2: "'medi' Medial Forms in Arabic lookup 1 subtable" uni06BA.medi
Substitution2: "'fina' Terminal Forms in Arabic lookup 0 subtable" uniFB9F
EndChar

StartChar: uni06BE
Encoding: 1726 1726 113
Width: 1487
GlyphClass: 2
Flags: W
AnchorPoint: "Anchor-2" 727 1223 basechar 0
AnchorPoint: "Anchor-0" 511 -240 basechar 0
LayerCount: 2
Fore
SplineSet
47 180 m 1,0,-1
 181 180 l 2,1,2
 247 180 247 180 295 181.5 c 128,-1,3
 343 183 343 183 398 190 c 1,4,5
 334 244 334 244 302.5 310.5 c 128,-1,6
 271 377 271 377 271 466 c 0,7,8
 271 566 271 566 318 638 c 128,-1,9
 365 710 365 710 443 748.5 c 128,-1,10
 521 787 521 787 613 787 c 0,11,12
 659 787 659 787 698 777 c 1,13,-1
 627 813 l 1,14,-1
 703 951 l 1,15,16
 1047 784 1047 784 1218 638 c 128,-1,17
 1389 492 1389 492 1389 353 c 0,18,19
 1389 183 1389 183 1281 96.5 c 128,-1,20
 1173 10 1173 10 997 10 c 0,21,22
 931 10 931 10 857 20.5 c 128,-1,23
 783 31 783 31 716 46.5 c 128,-1,24
 649 62 649 62 603 77 c 1,25,26
 521 46 521 46 409 23 c 128,-1,27
 297 0 297 0 193 0 c 2,28,-1
 95 0 l 1,29,-1
 47 180 l 1,0,-1
846 699 m 1,30,31
 901 651 901 651 922 602 c 128,-1,32
 943 553 943 553 943 483 c 0,33,34
 943 392 943 392 907.5 318 c 128,-1,35
 872 244 872 244 807 186 c 1,36,37
 848 181 848 181 895.5 178 c 128,-1,38
 943 175 943 175 980 175 c 0,39,40
 1214 175 1214 175 1214 350 c 0,41,42
 1214 492 1214 492 846 699 c 1,30,31
621 240 m 1,43,44
 706 274 706 274 749 335 c 128,-1,45
 792 396 792 396 793 463 c 0,46,47
 793 546 793 546 746 589 c 128,-1,48
 699 632 699 632 622 632 c 0,49,50
 541 632 541 632 491 587.5 c 128,-1,51
 441 543 441 543 441 468 c 0,52,53
 441 398 441 398 486.5 336 c 128,-1,54
 532 274 532 274 621 240 c 1,43,44
EndSplineSet
Substitution2: "'init' Initial Forms in Arabic lookup 2 subtable" uniFBAC
Substitution2: "'medi' Medial Forms in Arabic lookup 1 subtable" uniFBAD
Substitution2: "'fina' Terminal Forms in Arabic lookup 0 subtable" uniFBAB
EndChar

StartChar: uni06CD
Encoding: 1741 1741 124
Width: 1681
GlyphClass: 2
Flags: W
AnchorPoint: "Anchor-2" 849 936 basechar 0
AnchorPoint: "Anchor-0" 921 -676 basechar 0
LayerCount: 2
Fore
SplineSet
567 475 m 1,0,1
 475 250 475 250 475 72 c 0,2,3
 475 -132 475 -132 584 -227 c 128,-1,4
 693 -322 693 -322 920 -323 c 0,5,6
 1008 -323 1008 -323 1096.5 -306.5 c 128,-1,7
 1185 -290 1185 -290 1259 -256.5 c 128,-1,8
 1333 -223 1333 -223 1378 -172 c 128,-1,9
 1423 -121 1423 -121 1423 -52 c 0,10,11
 1423 -15 1423 -15 1389.5 0.5 c 128,-1,12
 1356 16 1356 16 1324 16 c 2,13,-1
 1180 16 l 2,14,15
 934 16 934 16 934 263 c 0,16,17
 934 384 934 384 988.5 489.5 c 128,-1,18
 1043 595 1043 595 1145 661 c 128,-1,19
 1247 727 1247 727 1388 727 c 0,20,21
 1417 727 1417 727 1470.5 722.5 c 128,-1,22
 1524 718 1524 718 1578 695 c 1,23,-1
 1546 530 l 1,24,25
 1503 544 1503 544 1460 547.5 c 128,-1,26
 1417 551 1417 551 1388 551 c 0,27,28
 1306 551 1306 551 1251 521.5 c 128,-1,29
 1196 492 1196 492 1163.5 448 c 128,-1,30
 1131 404 1131 404 1117 357.5 c 128,-1,31
 1103 311 1103 311 1103 276 c 0,32,33
 1103 232 1103 232 1119.5 212 c 128,-1,34
 1136 192 1136 192 1190 192 c 2,35,-1
 1350 192 l 2,36,37
 1469 191 1469 191 1526.5 123 c 128,-1,38
 1584 55 1584 55 1584 -48 c 0,39,40
 1584 -186 1584 -186 1497.5 -287.5 c 128,-1,41
 1411 -389 1411 -389 1262 -444 c 128,-1,42
 1113 -499 1113 -499 925 -499 c 0,43,44
 630 -499 630 -499 467 -355 c 128,-1,45
 304 -211 304 -211 304 79 c 0,46,47
 304 211 304 211 347 357 c 1,48,-1
 58 243 l 1,49,-1
 94 412 l 1,50,-1
 412 538 l 1,51,-1
 567 475 l 1,0,1
EndSplineSet
Substitution2: "'fina' Terminal Forms in Arabic lookup 0 subtable" uni06CD.fina
EndChar

StartChar: uni06D2
Encoding: 1746 1746 127
Width: 1744
GlyphClass: 2
Flags: W
AnchorPoint: "Anchor-2" 586 1100 basechar 0
AnchorPoint: "Anchor-0" 882 -180 basechar 0
LayerCount: 2
Fore
SplineSet
791 453 m 1,0,1
 750 507 750 507 700 575.5 c 128,-1,2
 650 644 650 644 591 696 c 1,3,4
 559 649 559 649 539 617 c 128,-1,5
 519 585 519 585 498.5 555 c 128,-1,6
 478 525 478 525 443 483 c 0,7,8
 380 407 380 407 342 373.5 c 128,-1,9
 304 340 304 340 287.5 327.5 c 128,-1,10
 271 315 271 315 271 299 c 0,11,12
 271 260 271 260 347.5 231 c 128,-1,13
 424 202 424 202 546.5 186 c 128,-1,14
 669 170 669 170 808 170 c 0,15,16
 1089 170 1089 170 1299 194 c 128,-1,17
 1509 218 1509 218 1640 237 c 1,18,-1
 1646 59 l 1,19,20
 1528 43 1528 43 1311 22 c 128,-1,21
 1094 1 1094 1 810 1 c 0,22,23
 692 1 692 1 567 11 c 128,-1,24
 442 21 442 21 335.5 50.5 c 128,-1,25
 229 80 229 80 163.5 136 c 128,-1,26
 98 192 98 192 98 283 c 0,27,28
 98 335 98 335 118.5 370.5 c 128,-1,29
 139 406 139 406 174 437.5 c 128,-1,30
 209 469 209 469 252 508 c 128,-1,31
 295 547 295 547 340 605 c 0,32,33
 412 698 412 698 447 757 c 128,-1,34
 482 816 482 816 509.5 844 c 128,-1,35
 537 872 537 872 584 872 c 0,36,37
 629 872 629 872 679.5 833.5 c 128,-1,38
 730 795 730 795 777 739.5 c 128,-1,39
 824 684 824 684 859 633 c 128,-1,40
 894 582 894 582 908 556 c 1,41,-1
 791 453 l 1,0,1
EndSplineSet
Substitution2: "'fina' Terminal Forms in Arabic lookup 0 subtable" uniFBAF
Position2: "Single Positioning lookup 3 per glyph data 1" dx=0 dy=0 dh=-120 dv=0
Position2: "Single Positioning lookup 2 per glyph data 1" dx=0 dy=0 dh=-120 dv=0
EndChar

StartChar: uni06D4
Encoding: 1748 1748 129
Width: 632
GlyphClass: 2
Flags: W
LayerCount: 2
Fore
SplineSet
98 0 m 1,0,-1
 98 180 l 1,1,-1
 534 180 l 1,2,-1
 534 0 l 1,3,-1
 98 0 l 1,0,-1
EndSplineSet
EndChar

StartChar: uni06DC
Encoding: 1756 1756 131
Width: 0
GlyphClass: 4
Flags: W
AnchorPoint: "Anchor-4" 558 1694 basemark 0
AnchorPoint: "Anchor-4" 557 1188 mark 0
AnchorPoint: "Anchor-2" 557 1188 mark 0
AnchorPoint: "Anchor-1" 557 1188 mark 0
LayerCount: 2
Fore
SplineSet
891 1640 m 1,0,1
 904 1601 904 1601 911 1561 c 128,-1,2
 918 1521 918 1521 918 1483 c 0,3,4
 918 1397 918 1397 882 1332.5 c 128,-1,5
 846 1268 846 1268 756 1268 c 0,6,7
 674 1268 674 1268 635 1332 c 1,8,9
 582 1268 582 1268 499 1268 c 0,10,11
 448 1268 448 1268 413 1289 c 1,12,13
 406 1152 406 1152 322 1080.5 c 128,-1,14
 238 1009 238 1009 96 1009 c 0,15,16
 -223 1009 -223 1009 -223 1303 c 0,17,18
 -223 1358 -223 1358 -210 1415 c 128,-1,19
 -197 1472 -197 1472 -174 1527 c 1,20,-1
 -83 1491 l 1,21,22
 -101 1443 -101 1443 -111 1396 c 128,-1,23
 -121 1349 -121 1349 -121 1306 c 0,24,25
 -121 1111 -121 1111 99 1111 c 0,26,27
 315 1111 315 1111 315 1325 c 0,28,29
 315 1371 315 1371 302 1419 c 128,-1,30
 289 1467 289 1467 267 1514 c 1,31,-1
 367 1548 l 1,32,33
 375 1524 375 1524 383 1499 c 128,-1,34
 391 1474 391 1474 399 1449 c 0,35,36
 423 1373 423 1373 500 1373 c 0,37,38
 546 1373 546 1373 565 1397 c 128,-1,39
 584 1421 584 1421 584 1469 c 0,40,41
 584 1480 584 1480 582.5 1507.5 c 128,-1,42
 581 1535 581 1535 578 1565 c 1,43,-1
 676 1577 l 1,44,45
 679 1547 679 1547 681 1516.5 c 128,-1,46
 683 1486 683 1486 685 1456 c 0,47,48
 687 1419 687 1419 704 1396 c 128,-1,49
 721 1373 721 1373 756 1373 c 0,50,51
 817 1373 817 1373 817 1476 c 0,52,53
 817 1503 817 1503 810.5 1538.5 c 128,-1,54
 804 1574 804 1574 793 1613 c 1,55,-1
 891 1640 l 1,0,1
EndSplineSet
EndChar

StartChar: uni06DD
Encoding: 1757 1757 132
Width: 2440
GlyphClass: 2
Flags: W
LayerCount: 2
Fore
SplineSet
284 1362 m 0,0,1
 284 1440 284 1440 339.5 1495.5 c 128,-1,2
 395 1551 395 1551 473 1551 c 0,3,4
 529 1551 529 1551 575 1521 c 1,5,6
 712 1619 712 1619 875.5 1673.5 c 128,-1,7
 1039 1728 1039 1728 1220 1728 c 0,8,9
 1400 1728 1400 1728 1564 1674 c 128,-1,10
 1728 1620 1728 1620 1864 1523 c 1,11,12
 1909 1551 1909 1551 1963 1551 c 0,13,14
 2041 1551 2041 1551 2096.5 1495.5 c 128,-1,15
 2152 1440 2152 1440 2152 1362 c 0,16,17
 2152 1308 2152 1308 2124 1263 c 1,18,19
 2222 1127 2222 1127 2276 962.5 c 128,-1,20
 2330 798 2330 798 2330 618 c 256,21,22
 2330 438 2330 438 2276 274.5 c 128,-1,23
 2222 111 2222 111 2124 -26 c 1,24,25
 2152 -71 2152 -71 2152 -125 c 0,26,27
 2152 -203 2152 -203 2096.5 -258.5 c 128,-1,28
 2041 -314 2041 -314 1963 -314 c 0,29,30
 1909 -314 1909 -314 1864 -286 c 1,31,32
 1728 -383 1728 -383 1564 -437.5 c 128,-1,33
 1400 -492 1400 -492 1220 -492 c 0,34,35
 1039 -492 1039 -492 875 -437.5 c 128,-1,36
 711 -383 711 -383 574 -285 c 1,37,38
 530 -314 530 -314 473 -314 c 0,39,40
 395 -314 395 -314 339.5 -258.5 c 128,-1,41
 284 -203 284 -203 284 -125 c 0,42,43
 284 -69 284 -69 314 -23 c 1,44,45
 218 113 218 113 164 276 c 128,-1,46
 110 439 110 439 110 618 c 256,47,48
 110 797 110 797 163.5 960.5 c 128,-1,49
 217 1124 217 1124 314 1260 c 1,50,51
 284 1307 284 1307 284 1362 c 0,0,1
1778 1447 m 1,52,53
 1659 1527 1659 1527 1517 1572 c 128,-1,54
 1375 1617 1375 1617 1220 1617 c 0,55,56
 1066 1617 1066 1617 923.5 1572 c 128,-1,57
 781 1527 781 1527 662 1447 c 1,58,-1
 1778 1447 l 1,52,53
1850 1362 m 0,59,60
 1850 1316 1850 1316 1883.5 1282.5 c 128,-1,61
 1917 1249 1917 1249 1963 1249 c 0,62,63
 2010 1249 2010 1249 2043 1282.5 c 128,-1,64
 2076 1316 2076 1316 2076 1362 c 0,65,66
 2076 1409 2076 1409 2043 1442 c 128,-1,67
 2010 1475 2010 1475 1963 1475 c 0,68,69
 1917 1475 1917 1475 1883.5 1442 c 128,-1,70
 1850 1409 1850 1409 1850 1362 c 0,59,60
360 1362 m 0,71,72
 360 1316 360 1316 393.5 1282.5 c 128,-1,73
 427 1249 427 1249 473 1249 c 0,74,75
 520 1249 520 1249 553 1282.5 c 128,-1,76
 586 1316 586 1316 586 1362 c 0,77,78
 586 1409 586 1409 553 1442 c 128,-1,79
 520 1475 520 1475 473 1475 c 0,80,81
 427 1475 427 1475 393.5 1442 c 128,-1,82
 360 1409 360 1409 360 1362 c 0,71,72
1774 1355 m 1,83,-1
 662 1355 l 1,84,85
 659 1279 659 1279 604.5 1226 c 128,-1,86
 550 1173 550 1173 473 1173 c 0,87,88
 434 1173 434 1173 399 1188 c 1,89,90
 315 1067 315 1067 268 922 c 128,-1,91
 221 777 221 777 221 618 c 256,92,93
 221 459 221 459 268 315 c 128,-1,94
 315 171 315 171 399 49 c 1,95,96
 434 64 434 64 473 64 c 0,97,98
 548 64 548 64 603 12 c 128,-1,99
 658 -40 658 -40 662 -114 c 1,100,-1
 1774 -114 l 1,101,102
 1779 -40 1779 -40 1833.5 12 c 128,-1,103
 1888 64 1888 64 1963 64 c 0,104,105
 2003 64 2003 64 2040 47 c 1,106,107
 2125 169 2125 169 2172 314 c 128,-1,108
 2219 459 2219 459 2219 618 c 256,109,110
 2219 777 2219 777 2172 922.5 c 128,-1,111
 2125 1068 2125 1068 2040 1189 c 1,112,113
 2003 1173 2003 1173 1963 1173 c 0,114,115
 1887 1173 1887 1173 1832 1226 c 128,-1,116
 1777 1279 1777 1279 1774 1355 c 1,83,-1
1850 -125 m 0,117,118
 1850 -171 1850 -171 1883.5 -204.5 c 128,-1,119
 1917 -238 1917 -238 1963 -238 c 0,120,121
 2010 -238 2010 -238 2043 -204.5 c 128,-1,122
 2076 -171 2076 -171 2076 -125 c 0,123,124
 2076 -78 2076 -78 2043 -45 c 128,-1,125
 2010 -12 2010 -12 1963 -12 c 0,126,127
 1917 -12 1917 -12 1883.5 -45 c 128,-1,128
 1850 -78 1850 -78 1850 -125 c 0,117,118
360 -125 m 0,129,130
 360 -171 360 -171 393.5 -204.5 c 128,-1,131
 427 -238 427 -238 473 -238 c 0,132,133
 520 -238 520 -238 553 -204.5 c 128,-1,134
 586 -171 586 -171 586 -125 c 0,135,136
 586 -78 586 -78 553 -45 c 128,-1,137
 520 -12 520 -12 473 -12 c 0,138,139
 427 -12 427 -12 393.5 -45 c 128,-1,140
 360 -78 360 -78 360 -125 c 0,129,130
655 -206 m 1,141,142
 776 -288 776 -288 919.5 -334.5 c 128,-1,143
 1063 -381 1063 -381 1220 -381 c 0,144,145
 1378 -381 1378 -381 1521 -334.5 c 128,-1,146
 1664 -288 1664 -288 1785 -206 c 1,147,-1
 655 -206 l 1,141,142
EndSplineSet
EndChar

StartChar: uni06DE
Encoding: 1758 1758 133
Width: 1990
GlyphClass: 2
Flags: W
LayerCount: 2
Fore
SplineSet
739 -56 m 1,0,-1
 365 -56 l 1,1,-1
 365 318 l 1,2,-1
 101 582 l 1,3,-1
 365 846 l 1,4,-1
 365 1213 l 1,5,-1
 732 1213 l 1,6,-1
 992 1473 l 1,7,-1
 1251 1213 l 1,8,-1
 1625 1213 l 1,9,-1
 1625 839 l 1,10,-1
 1889 575 l 1,11,-1
 1625 311 l 1,12,-1
 1625 -56 l 1,13,-1
 1258 -56 l 1,14,-1
 998 -316 l 1,15,-1
 739 -56 l 1,0,-1
840 1213 m 1,16,-1
 1145 1213 l 1,17,-1
 992 1365 l 1,18,-1
 840 1213 l 1,16,-1
1549 915 m 1,19,-1
 1549 1137 l 1,20,-1
 1328 1137 l 1,21,-1
 1549 915 l 1,19,-1
441 921 m 1,22,-1
 656 1137 l 1,23,-1
 441 1137 l 1,24,-1
 441 921 l 1,22,-1
441 814 m 1,25,-1
 441 349 l 1,26,-1
 769 20 l 1,27,-1
 1226 20 l 1,28,-1
 1549 343 l 1,29,-1
 1549 808 l 1,30,-1
 1221 1137 l 1,31,-1
 764 1137 l 1,32,-1
 441 814 l 1,25,-1
822 575 m 256,33,34
 822 646 822 646 873 697 c 128,-1,35
 924 748 924 748 995 748 c 256,36,37
 1066 748 1066 748 1117 697 c 128,-1,38
 1168 646 1168 646 1168 575 c 256,39,40
 1168 504 1168 504 1117 453 c 128,-1,41
 1066 402 1066 402 995 402 c 256,42,43
 924 402 924 402 873 453 c 128,-1,44
 822 504 822 504 822 575 c 256,33,34
365 738 m 1,45,-1
 208 581 l 1,46,-1
 365 424 l 1,47,-1
 365 738 l 1,45,-1
1625 733 m 1,48,-1
 1625 419 l 1,49,-1
 1782 576 l 1,50,-1
 1625 733 l 1,48,-1
901 575 m 256,51,52
 901 536 901 536 928.5 509 c 128,-1,53
 956 482 956 482 995 482 c 256,54,55
 1034 482 1034 482 1061 509 c 128,-1,56
 1088 536 1088 536 1088 575 c 256,57,58
 1088 614 1088 614 1061 641.5 c 128,-1,59
 1034 669 1034 669 995 669 c 256,60,61
 956 669 956 669 928.5 641.5 c 128,-1,62
 901 614 901 614 901 575 c 256,51,52
441 242 m 1,63,-1
 441 20 l 1,64,-1
 662 20 l 1,65,-1
 441 242 l 1,63,-1
1334 20 m 1,66,-1
 1549 20 l 1,67,-1
 1549 236 l 1,68,-1
 1334 20 l 1,66,-1
1150 -56 m 1,69,-1
 845 -56 l 1,70,-1
 998 -208 l 1,71,-1
 1150 -56 l 1,69,-1
EndSplineSet
EndChar

StartChar: uni06E9
Encoding: 1769 1769 134
Width: 1180
GlyphClass: 2
Flags: W
LayerCount: 2
Fore
SplineSet
111 819 m 1,0,-1
 590 1298 l 1,1,-1
 1069 819 l 1,2,-1
 846 596 l 1,3,-1
 846 184 l 1,4,-1
 1048 35 l 1,5,-1
 1048 -145 l 1,6,-1
 132 -145 l 1,7,-1
 132 35 l 1,8,-1
 334 184 l 1,9,-1
 334 596 l 1,10,-1
 111 819 l 1,0,-1
224 819 m 1,11,-1
 414 629 l 1,12,-1
 414 143 l 1,13,-1
 212 -6 l 1,14,-1
 212 -65 l 1,15,-1
 968 -65 l 1,16,-1
 968 -6 l 1,17,-1
 766 143 l 1,18,-1
 766 629 l 1,19,-1
 956 819 l 1,20,-1
 590 1185 l 1,21,-1
 224 819 l 1,11,-1
497 55 m 1,22,-1
 534 83 l 1,23,-1
 534 679 l 1,24,-1
 394 819 l 1,25,-1
 590 1016 l 1,26,-1
 786 819 l 1,27,-1
 646 679 l 1,28,-1
 646 83 l 1,29,-1
 683 55 l 1,30,-1
 497 55 l 1,22,-1
507 819 m 1,31,-1
 590 736 l 1,32,-1
 673 819 l 1,33,-1
 590 903 l 1,34,-1
 507 819 l 1,31,-1
EndSplineSet
EndChar

StartChar: uni06F0
Encoding: 1776 1776 135
Width: 902
GlyphClass: 2
Flags: W
LayerCount: 2
Fore
SplineSet
144 493 m 0,0,1
 144 578 144 578 185.5 647.5 c 128,-1,2
 227 717 227 717 297 758.5 c 128,-1,3
 367 800 367 800 451 800 c 0,4,5
 536 800 536 800 605.5 758.5 c 128,-1,6
 675 717 675 717 716.5 647.5 c 128,-1,7
 758 578 758 578 758 493 c 0,8,9
 758 409 758 409 716.5 339 c 128,-1,10
 675 269 675 269 605.5 227.5 c 128,-1,11
 536 186 536 186 451 186 c 0,12,13
 367 186 367 186 297 227.5 c 128,-1,14
 227 269 227 269 185.5 339 c 128,-1,15
 144 409 144 409 144 493 c 0,0,1
299 493 m 256,16,17
 299 430 299 430 343.5 385 c 128,-1,18
 388 340 388 340 451 340 c 256,19,20
 514 340 514 340 558.5 385 c 128,-1,21
 603 430 603 430 603 493 c 256,22,23
 603 556 603 556 558.5 600 c 128,-1,24
 514 644 514 644 451 644 c 256,25,26
 388 644 388 644 343.5 600 c 128,-1,27
 299 556 299 556 299 493 c 256,16,17
EndSplineSet
PairPos2: "'kern' Horizontal Kerning in Arabic lookup 0 subtable" uni06F8 dx=-46 dy=0 dh=-46 dv=0 dx=0 dy=0 dh=0 dv=0
PairPos2: "'kern' Horizontal Kerning in Arabic lookup 0 subtable" uni06F7 dx=-100 dy=0 dh=-100 dv=0 dx=0 dy=0 dh=0 dv=0
PairPos2: "'kern' Horizontal Kerning in Arabic lookup 0 subtable" uni06F6 dx=-20 dy=0 dh=-20 dv=0 dx=0 dy=0 dh=0 dv=0
PairPos2: "'kern' Horizontal Kerning in Arabic lookup 0 subtable" uni06F4 dx=-10 dy=0 dh=-10 dv=0 dx=0 dy=0 dh=0 dv=0
PairPos2: "'kern' Horizontal Kerning in Arabic lookup 0 subtable" uni06F3 dx=-100 dy=0 dh=-100 dv=0 dx=0 dy=0 dh=0 dv=0
PairPos2: "'kern' Horizontal Kerning in Arabic lookup 0 subtable" uni06F2 dx=-100 dy=0 dh=-100 dv=0 dx=0 dy=0 dh=0 dv=0
EndChar

StartChar: uni06F4
Encoding: 1780 1780 139
Width: 1193
GlyphClass: 2
Flags: W
LayerCount: 2
Fore
SplineSet
274 1319 m 1,0,-1
 346 1113 l 2,1,2
 376 1029 376 1029 393 990.5 c 128,-1,3
 410 952 410 952 420.5 940 c 128,-1,4
 431 928 431 928 441 923 c 1,5,6
 445 1018 445 1018 487 1111 c 128,-1,7
 529 1204 529 1204 608 1265.5 c 128,-1,8
 687 1327 687 1327 801 1327 c 0,9,10
 874 1327 874 1327 925 1311 c 128,-1,11
 976 1295 976 1295 1005.5 1277.5 c 128,-1,12
 1035 1260 1035 1260 1041 1255 c 1,13,-1
 985 1101 l 1,14,15
 970 1109 970 1109 950.5 1118.5 c 128,-1,16
 931 1128 931 1128 903 1135 c 0,17,18
 885 1140 885 1140 862.5 1143 c 128,-1,19
 840 1146 840 1146 812 1146 c 0,20,21
 744 1146 744 1146 694.5 1109.5 c 128,-1,22
 645 1073 645 1073 618.5 1015.5 c 128,-1,23
 592 958 592 958 592 894 c 0,24,25
 592 860 592 860 626.5 841 c 128,-1,26
 661 822 661 822 710.5 814.5 c 128,-1,27
 760 807 760 807 804 807 c 0,28,29
 873 807 873 807 935.5 823.5 c 128,-1,30
 998 840 998 840 1058 864 c 1,31,-1
 1081 693 l 1,32,33
 1018 665 1018 665 956 649.5 c 128,-1,34
 894 634 894 634 825 634 c 0,35,36
 692 634 692 634 596.5 672 c 128,-1,37
 501 710 501 710 439 768 c 1,38,39
 477 459 477 459 477 245 c 2,40,-1
 477 0 l 1,41,-1
 307 0 l 1,42,-1
 307 248 l 2,43,44
 307 568 307 568 260 819 c 128,-1,45
 213 1070 213 1070 118 1263 c 1,46,-1
 274 1319 l 1,0,-1
EndSplineSet
Substitution2: "'locl' Localized Forms in Arabic lookup 9 subtable" uni06F4.urdu
PairPos2: "'kern' Horizontal Kerning in Arabic lookup 0 subtable" uni06F9 dx=-64 dy=0 dh=-64 dv=0 dx=0 dy=0 dh=0 dv=0
PairPos2: "'kern' Horizontal Kerning in Arabic lookup 0 subtable" uni06F8 dx=-64 dy=0 dh=-64 dv=0 dx=0 dy=0 dh=0 dv=0
PairPos2: "'kern' Horizontal Kerning in Arabic lookup 0 subtable" uni06F5 dx=-40 dy=0 dh=-40 dv=0 dx=0 dy=0 dh=0 dv=0
PairPos2: "'kern' Horizontal Kerning in Arabic lookup 0 subtable" uni06F1 dx=-64 dy=0 dh=-64 dv=0 dx=0 dy=0 dh=0 dv=0
PairPos2: "'kern' Horizontal Kerning in Arabic lookup 0 subtable" uni06F0 dx=-64 dy=0 dh=-64 dv=0 dx=0 dy=0 dh=0 dv=0
EndChar

StartChar: uni06F5
Encoding: 1781 1781 140
Width: 1246
GlyphClass: 2
Flags: W
LayerCount: 2
Fore
SplineSet
535 1333 m 1,0,1
 850 1041 850 1041 990 798 c 128,-1,2
 1130 555 1130 555 1130 325 c 0,3,4
 1130 157 1130 157 1057.5 78.5 c 128,-1,5
 985 0 985 0 854 0 c 0,6,7
 773 0 773 0 710 51.5 c 128,-1,8
 647 103 647 103 623 183 c 1,9,10
 601 103 601 103 543.5 51.5 c 128,-1,11
 486 0 486 0 397 0 c 0,12,13
 270 0 270 0 193 81 c 128,-1,14
 116 162 116 162 116 325 c 0,15,16
 116 456 116 456 167.5 589 c 128,-1,17
 219 722 219 722 304.5 857 c 128,-1,18
 390 992 390 992 491 1130 c 1,19,-1
 430 1190 l 1,20,-1
 535 1333 l 1,0,1
396 170 m 0,21,22
 464 170 464 170 498.5 224.5 c 128,-1,23
 533 279 533 279 561 427 c 1,24,-1
 685 427 l 1,25,26
 710 279 710 279 747.5 224.5 c 128,-1,27
 785 170 785 170 854 170 c 0,28,29
 907 170 907 170 936.5 210.5 c 128,-1,30
 966 251 966 251 966 324 c 0,31,32
 966 478 966 478 885 646.5 c 128,-1,33
 804 815 804 815 617 1010 c 1,34,35
 445 784 445 784 362.5 618.5 c 128,-1,36
 280 453 280 453 280 324 c 0,37,38
 280 254 280 254 313.5 212 c 128,-1,39
 347 170 347 170 396 170 c 0,21,22
EndSplineSet
PairPos2: "'kern' Horizontal Kerning in Arabic lookup 0 subtable" uni06F8 dx=-38 dy=0 dh=-38 dv=0 dx=0 dy=0 dh=0 dv=0
PairPos2: "'kern' Horizontal Kerning in Arabic lookup 0 subtable" uni06F7 dx=-100 dy=0 dh=-100 dv=0 dx=0 dy=0 dh=0 dv=0
PairPos2: "'kern' Horizontal Kerning in Arabic lookup 0 subtable" uni06F6 dx=-42 dy=0 dh=-42 dv=0 dx=0 dy=0 dh=0 dv=0
PairPos2: "'kern' Horizontal Kerning in Arabic lookup 0 subtable" uni06F4 dx=-42 dy=0 dh=-42 dv=0 dx=0 dy=0 dh=0 dv=0
PairPos2: "'kern' Horizontal Kerning in Arabic lookup 0 subtable" uni06F3 dx=-100 dy=0 dh=-100 dv=0 dx=0 dy=0 dh=0 dv=0
PairPos2: "'kern' Horizontal Kerning in Arabic lookup 0 subtable" uni06F2 dx=-100 dy=0 dh=-100 dv=0 dx=0 dy=0 dh=0 dv=0
EndChar

StartChar: uni06F6
Encoding: 1782 1782 141
Width: 1009
GlyphClass: 2
Flags: W
LayerCount: 2
Fore
SplineSet
907 709 m 1,0,1
 774 644 774 644 657.5 531 c 128,-1,2
 541 418 541 418 446.5 272 c 128,-1,3
 352 126 352 126 284 -38 c 1,4,-1
 128 32 l 1,5,6
 205 221 205 221 298.5 364.5 c 128,-1,7
 392 508 392 508 481 596 c 1,8,9
 307 622 307 622 220 711 c 128,-1,10
 133 800 133 800 133 909 c 0,11,12
 133 1011 133 1011 181 1105.5 c 128,-1,13
 229 1200 229 1200 318 1260 c 128,-1,14
 407 1320 407 1320 528 1320 c 0,15,16
 576 1320 576 1320 634.5 1309 c 128,-1,17
 693 1298 693 1298 759 1254 c 1,18,-1
 699 1103 l 1,19,20
 660 1123 660 1123 624 1133 c 0,21,22
 597 1140 597 1140 575.5 1141.5 c 128,-1,23
 554 1143 554 1143 535 1143 c 0,24,25
 474 1143 474 1143 422 1108 c 128,-1,26
 370 1073 370 1073 338.5 1021 c 128,-1,27
 307 969 307 969 307 916 c 0,28,29
 307 860 307 860 376.5 806.5 c 128,-1,30
 446 753 446 753 624 738 c 0,31,32
 627 738 627 738 630 740 c 0,33,34
 676 769 676 769 709.5 789.5 c 128,-1,35
 743 810 743 810 777.5 828.5 c 128,-1,36
 812 847 812 847 860 871 c 1,37,-1
 907 709 l 1,0,1
EndSplineSet
Substitution2: "'locl' Localized Forms in Arabic lookup 9 subtable" uni0666
PairPos2: "'kern' Horizontal Kerning in Arabic lookup 0 subtable" uni06F9 dx=-30 dy=0 dh=-30 dv=0 dx=0 dy=0 dh=0 dv=0
PairPos2: "'kern' Horizontal Kerning in Arabic lookup 0 subtable" uni06F8 dx=-40 dy=0 dh=-40 dv=0 dx=0 dy=0 dh=0 dv=0
PairPos2: "'kern' Horizontal Kerning in Arabic lookup 0 subtable" uni06F7 dx=-40 dy=0 dh=-40 dv=0 dx=0 dy=0 dh=0 dv=0
EndChar

StartChar: lozenge
Encoding: 9674 9674 146
Width: 1032
GlyphClass: 2
Flags: W
LayerCount: 2
Fore
SplineSet
444 1456 m 1,0,-1
 584 1456 l 1,1,-1
 988 727 l 1,2,-1
 588 0 l 1,3,-1
 447 0 l 1,4,-1
 43 727 l 1,5,-1
 444 1456 l 1,0,-1
513 1254 m 1,6,-1
 234 727 l 1,7,-1
 518 201 l 1,8,-1
 798 727 l 1,9,-1
 513 1254 l 1,6,-1
EndSplineSet
EndChar

StartChar: uni25CC
Encoding: 9676 9676 147
Width: 1230
GlyphClass: 2
Flags: W
AnchorPoint: "Anchor-2" 630 1220 basechar 0
AnchorPoint: "Anchor-0" 606 -238 basechar 0
LayerCount: 2
Fore
SplineSet
615 926 m 0,0,1
 566 926 566 926 514 911 c 1,2,-1
 488 984 l 1,3,4
 554 1001 554 1001 615 1001 c 0,5,6
 675 1001 675 1001 741 984 c 1,7,-1
 716 911 l 1,8,9
 663 926 663 926 615 926 c 0,0,1
255 739 m 1,10,-1
 189 780 l 1,11,12
 219 821 219 821 263.5 860 c 128,-1,13
 308 899 308 899 357 927 c 1,14,-1
 390 857 l 1,15,16
 350 833 350 833 315.5 804.5 c 128,-1,17
 281 776 281 776 255 739 c 1,10,-1
871 927 m 1,18,19
 976 868 976 868 1040 780 c 1,20,-1
 974 739 l 1,21,22
 922 810 922 810 840 857 c 1,23,-1
 871 927 l 1,18,19
1129 482 m 256,24,25
 1129 419 1129 419 1116 355 c 1,26,-1
 1044 381 l 1,27,28
 1054 432 1054 432 1054 482 c 256,29,30
 1054 532 1054 532 1044 583 c 1,31,-1
 1116 609 l 1,32,33
 1129 545 1129 545 1129 482 c 256,24,25
176 482 m 256,34,35
 176 432 176 432 186 381 c 1,36,-1
 114 355 l 1,37,38
 101 419 101 419 101 482 c 256,39,40
 101 545 101 545 114 609 c 1,41,-1
 186 583 l 1,42,43
 176 532 176 532 176 482 c 256,34,35
974 225 m 1,44,-1
 1040 185 l 1,45,46
 971 93 971 93 871 37 c 1,47,-1
 840 107 l 1,48,49
 918 152 918 152 974 225 c 1,44,-1
357 37 m 1,50,51
 307 66 307 66 264 103 c 128,-1,52
 221 140 221 140 189 184 c 1,53,-1
 255 225 l 1,54,55
 281 188 281 188 315.5 159.5 c 128,-1,56
 350 131 350 131 390 107 c 1,57,-1
 357 37 l 1,50,51
615 38 m 0,58,59
 663 38 663 38 716 53 c 1,60,-1
 741 -20 l 1,61,62
 675 -37 675 -37 615 -37 c 0,63,64
 554 -37 554 -37 488 -20 c 1,65,-1
 514 53 l 1,66,67
 566 38 566 38 615 38 c 0,58,59
EndSplineSet
EndChar

StartChar: uniEE02
Encoding: 60930 60930 149
Width: 655
GlyphClass: 2
Flags: W
LayerCount: 2
Fore
SplineSet
251 633 m 1,0,-1
 110 633 l 1,1,-1
 110 1082 l 1,2,-1
 251 1082 l 1,3,-1
 251 633 l 1,0,-1
563 633 m 1,4,-1
 422 633 l 1,5,-1
 422 1082 l 1,6,-1
 563 1082 l 1,7,-1
 563 633 l 1,4,-1
EndSplineSet
EndChar

StartChar: uniF6C3
Encoding: 63171 63171 150
Width: 515
GlyphClass: 4
Flags: W
LayerCount: 2
Fore
SplineSet
197 -161 m 1,0,-1
 92 -89 l 1,1,2
 164 20 164 20 166 147 c 2,3,-1
 166 239 l 1,4,-1
 343 239 l 1,5,-1
 343 163 l 2,6,7
 343 72 343 72 303.5 -17.5 c 128,-1,8
 264 -107 264 -107 197 -161 c 1,0,-1
EndSplineSet
EndChar

StartChar: uniFB8F
Encoding: 64399 64399 175
Width: 1941
GlyphClass: 2
Flags: W
AnchorPoint: "Anchor-2" 1194 1345 basechar 0
AnchorPoint: "Anchor-0" 900 -226 basechar 0
LayerCount: 2
Fore
SplineSet
1079 180 m 2,0,1
 1285 180 1285 180 1375 221.5 c 128,-1,2
 1465 263 1465 263 1465 359 c 0,3,4
 1465 413 1465 413 1424 472.5 c 128,-1,5
 1383 532 1383 532 1316 596.5 c 128,-1,6
 1249 661 1249 661 1168 728.5 c 128,-1,7
 1087 796 1087 796 1007 865 c 0,8,9
 956 908 956 908 956 983 c 0,10,11
 956 1027 956 1027 980.5 1069.5 c 128,-1,12
 1005 1112 1005 1112 1060 1133 c 2,13,-1
 1804 1410 l 1,14,-1
 1804 1234 l 1,15,-1
 1129 984 l 1,16,17
 1224 908 1224 908 1324.5 826 c 128,-1,18
 1425 744 1425 744 1510 648 c 128,-1,19
 1595 552 1595 552 1642 432 c 0,20,21
 1691 308 1691 308 1761.5 244 c 128,-1,22
 1832 180 1832 180 1932 180 c 2,23,-1
 1961 180 l 1,24,-1
 1961 0 l 1,25,-1
 1932 0 l 2,26,27
 1822 0 1822 0 1735.5 45.5 c 128,-1,28
 1649 91 1649 91 1583 179 c 1,29,30
 1525 90 1525 90 1408.5 45 c 128,-1,31
 1292 0 1292 0 1080 0 c 2,32,-1
 838 0 l 2,33,34
 480 0 480 0 289 121.5 c 128,-1,35
 98 243 98 243 98 484 c 0,36,37
 98 551 98 551 112.5 615 c 128,-1,38
 127 679 127 679 152 738 c 1,39,-1
 305 681 l 1,40,41
 273 596 273 596 273 509 c 0,42,43
 274 180 274 180 828 180 c 2,44,-1
 1079 180 l 2,0,1
EndSplineSet
EndChar

StartChar: uniFB9F
Encoding: 64415 64415 183
Width: 1528
GlyphClass: 2
Flags: W
AnchorPoint: "Anchor-2" 720 797 basechar 0
AnchorPoint: "Anchor-0" 712 -739 basechar 0
LayerCount: 2
Fore
SplineSet
1177 100 m 0,0,1
 1177 281 1177 281 1087 469 c 1,2,-1
 1256 527 l 1,3,-1
 1328 301 l 2,4,5
 1348 240 1348 240 1389.5 210 c 128,-1,6
 1431 180 1431 180 1508 180 c 2,7,-1
 1548 180 l 1,8,-1
 1548 0 l 1,9,-1
 1512 0 l 2,10,11
 1447 0 1447 0 1409.5 15.5 c 128,-1,12
 1372 31 1372 31 1342 59 c 1,13,14
 1339 -129 1339 -129 1258 -258.5 c 128,-1,15
 1177 -388 1177 -388 1038 -454 c 128,-1,16
 899 -520 899 -520 721 -520 c 0,17,18
 424 -520 424 -520 261 -372 c 128,-1,19
 98 -224 98 -224 98 56 c 0,20,21
 98 266 98 266 188 485 c 1,22,-1
 343 422 l 1,23,24
 270 229 270 229 270 61 c 0,25,26
 270 -143 270 -143 379.5 -242.5 c 128,-1,27
 489 -342 489 -342 718 -342 c 0,28,29
 941 -342 941 -342 1058.5 -232.5 c 128,-1,30
 1176 -123 1176 -123 1177 100 c 0,0,1
EndSplineSet
EndChar

StartChar: uniFBA7
Encoding: 64423 64423 185
Width: 919
GlyphClass: 2
Flags: W
AnchorPoint: "Anchor-2" 465 895 basechar 0
AnchorPoint: "Anchor-0" 442 -206 basechar 0
LayerCount: 2
Fore
SplineSet
244 -20 m 1,0,-1
 98 16 l 1,1,2
 110 141 110 141 148.5 248 c 128,-1,3
 187 355 187 355 241.5 435 c 128,-1,4
 296 515 296 515 358 560 c 128,-1,5
 420 605 420 605 479 605 c 0,6,7
 543 605 543 605 584 574.5 c 128,-1,8
 625 544 625 544 653 495.5 c 128,-1,9
 681 447 681 447 703 392.5 c 128,-1,10
 725 338 725 338 750.5 289.5 c 128,-1,11
 776 241 776 241 812.5 210.5 c 128,-1,12
 849 180 849 180 906 180 c 2,13,-1
 939 180 l 1,14,-1
 939 0 l 1,15,-1
 907 0 l 2,16,17
 807 0 807 0 744 40.5 c 128,-1,18
 681 81 681 81 642.5 141 c 128,-1,19
 604 201 604 201 579.5 261 c 128,-1,20
 555 321 555 321 533.5 361.5 c 128,-1,21
 512 402 512 402 482 402 c 0,22,23
 442 402 442 402 392.5 350.5 c 128,-1,24
 343 299 343 299 302 204 c 128,-1,25
 261 109 261 109 244 -20 c 1,0,-1
EndSplineSet
EndChar

StartChar: uniFBA9
Encoding: 64425 64425 187
Width: 1002
GlyphClass: 2
Flags: W
AnchorPoint: "Anchor-2" 483 835 basechar 0
AnchorPoint: "Anchor-0" 604 -707 basechar 0
LayerCount: 2
Fore
SplineSet
221 50 m 1,0,1
 169 25 169 25 131.5 12.5 c 128,-1,2
 94 0 94 0 43 0 c 2,3,-1
 -20 0 l 1,4,-1
 -20 180 l 1,5,-1
 45 180 l 2,6,7
 129 180 129 180 180.5 198.5 c 128,-1,8
 232 217 232 217 275 253.5 c 128,-1,9
 318 290 318 290 376 344 c 1,10,-1
 486 222 l 1,11,12
 438 180 438 180 408 130 c 128,-1,13
 378 80 378 80 378 18 c 0,14,15
 378 -49 378 -49 407.5 -115 c 128,-1,16
 437 -181 437 -181 484.5 -235 c 128,-1,17
 532 -289 532 -289 585 -321 c 1,18,19
 585 -85 585 -85 685.5 47.5 c 128,-1,20
 786 180 786 180 988 180 c 2,21,-1
 1022 180 l 1,22,-1
 1022 0 l 1,23,-1
 986 0 l 2,24,25
 733 0 733 0 733 -330 c 0,26,27
 733 -351 733 -351 734 -375 c 128,-1,28
 735 -399 735 -399 737 -422 c 1,29,-1
 616 -540 l 1,30,31
 446 -459 446 -459 336.5 -311.5 c 128,-1,32
 227 -164 227 -164 221 50 c 1,0,1
EndSplineSet
EndChar

StartChar: uniFBAB
Encoding: 64427 64427 189
Width: 1120
GlyphClass: 2
Flags: W
AnchorPoint: "Anchor-2" 620 1135 basechar 0
AnchorPoint: "Anchor-0" 665 -710 basechar 0
LayerCount: 2
Fore
SplineSet
47 180 m 1,0,-1
 322 180 l 1,1,2
 331 351 331 351 362.5 490.5 c 128,-1,3
 394 630 394 630 466 713 c 128,-1,4
 538 796 538 796 666 796 c 0,5,6
 788 796 788 796 858 710 c 128,-1,7
 928 624 928 624 928 487 c 0,8,9
 928 397 928 397 892.5 311 c 128,-1,10
 857 225 857 225 796 155.5 c 128,-1,11
 735 86 735 86 657 44 c 128,-1,12
 579 2 579 2 494 -1 c 1,13,14
 531 -210 531 -210 703 -321 c 1,15,16
 703 -85 703 -85 803.5 47.5 c 128,-1,17
 904 180 904 180 1106 180 c 2,18,-1
 1140 180 l 1,19,-1
 1140 0 l 1,20,-1
 1104 0 l 2,21,22
 851 0 851 0 851 -330 c 0,23,24
 851 -351 851 -351 852 -375 c 128,-1,25
 853 -399 853 -399 855 -422 c 1,26,-1
 734 -540 l 1,27,28
 398 -380 398 -380 335 0 c 1,29,-1
 95 0 l 1,30,-1
 47 180 l 1,0,-1
485 179 m 1,31,32
 563 182 563 182 627.5 223.5 c 128,-1,33
 692 265 692 265 730.5 334 c 128,-1,34
 769 403 769 403 769 487 c 0,35,36
 769 554 769 554 739.5 588 c 128,-1,37
 710 622 710 622 664 622 c 0,38,39
 579 622 579 622 537.5 511 c 128,-1,40
 496 400 496 400 485 179 c 1,31,32
EndSplineSet
EndChar

StartChar: uniFBBF
Encoding: 64447 64447 196
Width: 560
GlyphClass: 2
Flags: W
LayerCount: 2
Fore
SplineSet
98 -313 m 256,0,1
 98 -238 98 -238 151.5 -184.5 c 128,-1,2
 205 -131 205 -131 280 -131 c 256,3,4
 355 -131 355 -131 408.5 -184.5 c 128,-1,5
 462 -238 462 -238 462 -313 c 256,6,7
 462 -388 462 -388 408.5 -441.5 c 128,-1,8
 355 -495 355 -495 280 -495 c 256,9,10
 205 -495 205 -495 151.5 -441.5 c 128,-1,11
 98 -388 98 -388 98 -313 c 256,0,1
186 -313 m 256,12,13
 186 -352 186 -352 213.5 -379 c 128,-1,14
 241 -406 241 -406 280 -406 c 256,15,16
 319 -406 319 -406 346 -379 c 128,-1,17
 373 -352 373 -352 373 -313 c 256,18,19
 373 -274 373 -274 346 -246.5 c 128,-1,20
 319 -219 319 -219 280 -219 c 256,21,22
 241 -219 241 -219 213.5 -246.5 c 128,-1,23
 186 -274 186 -274 186 -313 c 256,12,13
EndSplineSet
EndChar

StartChar: uniFBC0
Encoding: 64448 64448 197
Width: 800
GlyphClass: 2
Flags: W
LayerCount: 2
Fore
SplineSet
208 1497 m 1,0,1
 216 1509 216 1509 223 1521 c 128,-1,2
 230 1533 230 1533 236 1542 c 1,3,-1
 236 1976 l 1,4,-1
 330 1976 l 1,5,-1
 330 1672 l 1,6,7
 372 1717 372 1717 417.5 1743.5 c 128,-1,8
 463 1770 463 1770 514 1770 c 0,9,10
 594 1770 594 1770 644.5 1720.5 c 128,-1,11
 695 1671 695 1671 695 1596 c 0,12,13
 694 1398 694 1398 362 1398 c 2,14,-1
 104 1398 l 1,15,-1
 104 1497 l 1,16,-1
 208 1497 l 1,0,1
361 1498 m 2,17,18
 484 1498 484 1498 540.5 1523 c 128,-1,19
 597 1548 597 1548 597 1593 c 0,20,21
 597 1626 597 1626 576 1648 c 128,-1,22
 555 1670 555 1670 519 1670 c 0,23,24
 472 1670 472 1670 418.5 1624 c 128,-1,25
 365 1578 365 1578 310 1497 c 1,26,-1
 361 1498 l 2,17,18
EndSplineSet
EndChar

StartChar: uniFD3E
Encoding: 64830 64830 216
Width: 1273
GlyphClass: 2
Flags: W
LayerCount: 2
Fore
SplineSet
1093 1575 m 1,0,1
 905 1404 905 1404 839 1019 c 1,2,-1
 845 1013 l 1,3,-1
 1036 1013 l 2,4,5
 1084 1013 1084 1013 1084 965 c 2,6,-1
 1084 247 l 2,7,8
 1083 199 1083 199 1036 199 c 2,9,-1
 845 199 l 1,10,-1
 842 196 l 1,11,12
 877 12 877 12 939.5 -114.5 c 128,-1,13
 1002 -241 1002 -241 1090 -315 c 0,14,15
 1116 -337 1116 -337 1101.5 -358 c 128,-1,16
 1087 -379 1087 -379 1047 -400 c 1,17,18
 646 -282 646 -282 539 167 c 1,19,-1
 508 199 l 1,20,-1
 317 199 l 2,21,22
 301 199 301 199 285 212 c 128,-1,23
 269 225 269 225 269 247 c 2,24,-1
 269 437 l 1,25,-1
 135 572 l 2,26,27
 120 587 120 587 120 607 c 0,28,29
 120 625 120 625 135 640 c 2,30,-1
 269 775 l 1,31,-1
 269 965 l 2,32,33
 269 988 269 988 285.5 1000.5 c 128,-1,34
 302 1013 302 1013 317 1013 c 2,35,-1
 508 1013 l 1,36,-1
 529 1035 l 1,37,38
 628 1533 628 1533 1047 1657 c 0,39,40
 1075 1668 1075 1668 1089.5 1640.5 c 128,-1,41
 1104 1613 1104 1613 1093 1575 c 1,0,1
630 202 m 0,42,43
 687 -55 687 -55 884 -213 c 1,44,45
 777 -14 777 -14 742 204 c 0,46,47
 738 228 738 228 756 246 c 2,48,-1
 791 281 l 2,49,50
 806 296 806 296 826 296 c 2,51,-1
 987 296 l 1,52,-1
 987 916 l 1,53,-1
 826 916 l 2,54,55
 806 916 806 916 791 931 c 2,56,-1
 753 969 l 2,57,58
 735 985 735 985 740 1011 c 0,59,60
 780 1265 780 1265 895 1477 c 1,61,62
 682 1312 682 1312 622 1002 c 0,63,64
 619 988 619 988 608 977 c 2,65,-1
 562 931 l 2,66,67
 547 916 547 916 528 916 c 2,68,-1
 366 916 l 1,69,-1
 366 755 l 2,70,71
 366 735 366 735 352 721 c 2,72,-1
 237 606 l 1,73,-1
 352 491 l 2,74,75
 366 477 366 477 366 457 c 2,76,-1
 366 296 l 1,77,-1
 528 296 l 2,78,79
 547 296 547 296 562 281 c 2,80,-1
 617 226 l 2,81,82
 626 217 626 217 630 202 c 0,42,43
833 599 m 0,83,84
 833 537 833 537 785.5 491.5 c 128,-1,85
 738 446 738 446 676 446 c 0,86,87
 609 446 609 446 564 494 c 128,-1,88
 519 542 519 542 519 609 c 0,89,90
 519 671 519 671 566.5 716.5 c 128,-1,91
 614 762 614 762 676 762 c 0,92,93
 743 762 743 762 788 714.5 c 128,-1,94
 833 667 833 667 833 599 c 0,83,84
607 603 m 256,95,96
 607 575 607 575 628 555 c 128,-1,97
 649 535 649 535 677 535 c 0,98,99
 706 535 706 535 726.5 555.5 c 128,-1,100
 747 576 747 576 747 607 c 0,101,102
 747 635 747 635 725.5 654.5 c 128,-1,103
 704 674 704 674 676 674 c 0,104,105
 645 674 645 674 626 652.5 c 128,-1,106
 607 631 607 631 607 603 c 256,95,96
EndSplineSet
EndChar

StartChar: uniFD3F
Encoding: 64831 64831 217
Width: 1273
GlyphClass: 2
Flags: W
LayerCount: 2
Fore
SplineSet
180 1575 m 1,0,1
 170 1613 170 1613 184 1640.5 c 128,-1,2
 198 1668 198 1668 226 1657 c 0,3,4
 645 1533 645 1533 744 1035 c 1,5,-1
 765 1013 l 1,6,-1
 956 1013 l 2,7,8
 971 1013 971 1013 987.5 1000.5 c 128,-1,9
 1004 988 1004 988 1004 965 c 2,10,-1
 1004 775 l 1,11,-1
 1138 640 l 2,12,13
 1153 625 1153 625 1153 607 c 0,14,15
 1153 587 1153 587 1138 572 c 2,16,-1
 1004 437 l 1,17,-1
 1004 247 l 2,18,19
 1004 225 1004 225 988.5 212 c 128,-1,20
 973 199 973 199 956 199 c 2,21,-1
 765 199 l 1,22,-1
 734 167 l 1,23,24
 627 -282 627 -282 226 -400 c 1,25,26
 186 -379 186 -379 171.5 -358 c 128,-1,27
 157 -337 157 -337 183 -315 c 0,28,29
 272 -241 272 -241 334.5 -114.5 c 128,-1,30
 397 12 397 12 431 196 c 1,31,-1
 428 199 l 1,32,-1
 237 199 l 2,33,34
 191 199 191 199 189 247 c 2,35,-1
 189 965 l 2,36,37
 189 1013 189 1013 237 1013 c 2,38,-1
 428 1013 l 1,39,-1
 434 1019 l 1,40,41
 368 1404 368 1404 180 1575 c 1,0,1
643 202 m 0,42,43
 647 217 647 217 656 226 c 2,44,-1
 711 281 l 2,45,46
 726 296 726 296 745 296 c 2,47,-1
 907 296 l 1,48,-1
 907 457 l 2,49,50
 907 477 907 477 921 491 c 2,51,-1
 1036 606 l 1,52,-1
 921 721 l 2,53,54
 907 735 907 735 907 755 c 2,55,-1
 907 916 l 1,56,-1
 745 916 l 2,57,58
 726 916 726 916 711 931 c 2,59,-1
 665 977 l 2,60,61
 654 988 654 988 651 1002 c 0,62,63
 591 1312 591 1312 378 1477 c 1,64,65
 493 1265 493 1265 533 1011 c 0,66,67
 538 985 538 985 520 969 c 2,68,-1
 482 931 l 2,69,70
 467 916 467 916 447 916 c 2,71,-1
 286 916 l 1,72,-1
 286 296 l 1,73,-1
 447 296 l 2,74,75
 467 296 467 296 482 281 c 2,76,-1
 517 246 l 2,77,78
 535 228 535 228 531 204 c 0,79,80
 496 -14 496 -14 389 -213 c 1,81,82
 586 -55 586 -55 643 202 c 0,42,43
440 599 m 0,83,84
 440 667 440 667 485 714.5 c 128,-1,85
 530 762 530 762 597 762 c 0,86,87
 659 762 659 762 706.5 716.5 c 128,-1,88
 754 671 754 671 754 609 c 0,89,90
 754 542 754 542 709 494 c 128,-1,91
 664 446 664 446 597 446 c 0,92,93
 535 446 535 446 487.5 491.5 c 128,-1,94
 440 537 440 537 440 599 c 0,83,84
666 603 m 256,95,96
 666 631 666 631 647 652.5 c 128,-1,97
 628 674 628 674 597 674 c 0,98,99
 569 674 569 674 547.5 654.5 c 128,-1,100
 526 635 526 635 526 607 c 0,101,102
 526 576 526 576 546.5 555.5 c 128,-1,103
 567 535 567 535 596 535 c 256,104,105
 625 535 625 535 645.5 555 c 128,-1,106
 666 575 666 575 666 603 c 256,95,96
EndSplineSet
EndChar

StartChar: uniFE73
Encoding: 65139 65139 223
Width: 659
GlyphClass: 2
Flags: W
AnchorPoint: "Anchor-2" 342 1009 basechar 0
AnchorPoint: "Anchor-0" 416 -209 basechar 0
LayerCount: 2
Fore
SplineSet
98 426 m 2,0,-1
 98 448 l 1,1,-1
 284 448 l 1,2,-1
 284 423 l 2,3,4
 284 180 284 180 604 180 c 2,5,-1
 679 180 l 1,6,-1
 679 0 l 1,7,-1
 594 0 l 2,8,9
 98 0 98 0 98 426 c 2,0,-1
EndSplineSet
EndChar

StartChar: uniFE8E
Encoding: 65166 65166 249
Width: 527
GlyphClass: 2
Flags: W
AnchorPoint: "Anchor-2" 231 1501 basechar 0
AnchorPoint: "Anchor-0" 292 -242 basechar 0
LayerCount: 2
Fore
SplineSet
547 0 m 1,0,-1
 522 0 l 2,1,2
 339 0 339 0 243.5 94 c 128,-1,3
 148 188 148 188 148 405 c 2,4,-1
 148 1366 l 1,5,-1
 317 1366 l 1,6,-1
 317 404 l 2,7,8
 317 277 317 277 370 228.5 c 128,-1,9
 423 180 423 180 522 180 c 2,10,-1
 547 180 l 1,11,-1
 547 0 l 1,0,-1
EndSplineSet
EndChar

StartChar: uniFEA2
Encoding: 65186 65186 269
Width: 1378
GlyphClass: 2
Flags: W
AnchorPoint: "Anchor-2" 601 1176 basechar 0
AnchorPoint: "Anchor-0" 691 -831 basechar 0
LayerCount: 2
Fore
SplineSet
1258 -591 m 1,0,1
 1158 -639 1158 -639 1038 -658 c 128,-1,2
 918 -677 918 -677 784 -677 c 0,3,4
 582 -677 582 -677 427.5 -620.5 c 128,-1,5
 273 -564 273 -564 186 -447.5 c 128,-1,6
 99 -331 99 -331 99 -151 c 0,7,8
 99 10 99 10 183 149 c 128,-1,9
 267 288 267 288 431 392 c 128,-1,10
 595 496 595 496 836 550 c 1,11,12
 817 558 817 558 802 564 c 128,-1,13
 787 570 787 570 745 587 c 0,14,15
 644 628 644 628 578 652 c 128,-1,16
 512 676 512 676 477 676 c 0,17,18
 420 676 420 676 366.5 643 c 128,-1,19
 313 610 313 610 276 562 c 2,20,-1
 249 527 l 1,21,-1
 98 602 l 1,22,-1
 113 628 l 2,23,24
 176 731 176 731 270.5 792.5 c 128,-1,25
 365 854 365 854 478 854 c 0,26,27
 541 854 541 854 617 827.5 c 128,-1,28
 693 801 693 801 781 758 c 0,29,30
 936 682 936 682 1039 647.5 c 128,-1,31
 1142 613 1142 613 1228 608 c 1,32,-1
 1215 438 l 1,33,34
 1162 434 1162 434 1114 428.5 c 128,-1,35
 1066 423 1066 423 1020 417 c 1,36,37
 1021 275 1021 275 1098 227.5 c 128,-1,38
 1175 180 1175 180 1320 180 c 2,39,-1
 1398 180 l 1,40,-1
 1398 0 l 1,41,-1
 1323 0 l 2,42,43
 1101 0 1101 0 986 84 c 128,-1,44
 871 168 871 168 870 387 c 1,45,46
 569 303 569 303 417 162.5 c 128,-1,47
 265 22 265 22 265 -135 c 0,48,49
 265 -506 265 -506 798 -506 c 0,50,51
 906 -506 906 -506 1010 -489 c 128,-1,52
 1114 -472 1114 -472 1213 -426 c 1,53,-1
 1258 -591 l 1,0,1
EndSplineSet
EndChar

StartChar: uniFEA3
Encoding: 65187 65187 270
Width: 1334
GlyphClass: 2
Flags: W
AnchorPoint: "Anchor-2" 592 1130 basechar 0
AnchorPoint: "Anchor-0" 554 -237 basechar 0
LayerCount: 2
Fore
SplineSet
-20 0 m 1,0,-1
 -20 180 l 1,1,-1
 143 180 l 2,2,3
 273 180 273 180 385 208.5 c 128,-1,4
 497 237 497 237 613 290 c 128,-1,5
 729 343 729 343 870 416 c 2,6,-1
 948 457 l 1,7,8
 926 464 926 464 892 479.5 c 128,-1,9
 858 495 858 495 763 533 c 0,10,11
 662 574 662 574 596 598 c 128,-1,12
 530 622 530 622 495 622 c 0,13,14
 438 622 438 622 384.5 589 c 128,-1,15
 331 556 331 556 294 508 c 2,16,-1
 267 473 l 1,17,-1
 116 548 l 1,18,-1
 131 574 l 2,19,20
 194 677 194 677 288.5 738.5 c 128,-1,21
 383 800 383 800 496 800 c 0,22,23
 559 800 559 800 635 773.5 c 128,-1,24
 711 747 711 747 799 704 c 0,25,26
 954 628 954 628 1057 593.5 c 128,-1,27
 1160 559 1160 559 1246 554 c 1,28,-1
 1244 384 l 1,29,30
 1183 377 1183 377 1098.5 341 c 128,-1,31
 1014 305 1014 305 861 224 c 0,32,33
 739 160 739 160 625 109 c 128,-1,34
 511 58 511 58 393 29 c 128,-1,35
 275 0 275 0 140 0 c 2,36,-1
 -20 0 l 1,0,-1
EndSplineSet
Position2: "Single Positioning lookup 3 per glyph data 0" dx=0 dy=0 dh=-160 dv=0
Position2: "Single Positioning lookup 2 per glyph data 0" dx=0 dy=0 dh=-130 dv=0
EndChar

StartChar: uniFEA4
Encoding: 65188 65188 271
Width: 1351
GlyphClass: 2
Flags: W
AnchorPoint: "Anchor-2" 592 1130 basechar 0
AnchorPoint: "Anchor-0" 554 -237 basechar 0
LayerCount: 2
Fore
SplineSet
1244 384 m 1,0,1
 1204 380 1204 380 1154 366.5 c 128,-1,2
 1104 353 1104 353 1042 323 c 1,3,4
 1045 247 1045 247 1112.5 213.5 c 128,-1,5
 1180 180 1180 180 1317 180 c 2,6,-1
 1371 180 l 1,7,-1
 1371 0 l 1,8,-1
 1313 0 l 2,9,10
 1129 0 1129 0 1029.5 59.5 c 128,-1,11
 930 119 930 119 913 253 c 1,12,13
 725 150 725 150 534 75 c 128,-1,14
 343 0 343 0 140 0 c 2,15,-1
 -20 0 l 1,16,-1
 -20 180 l 1,17,-1
 143 180 l 2,18,19
 273 180 273 180 385 208.5 c 128,-1,20
 497 237 497 237 613 290 c 128,-1,21
 729 343 729 343 870 416 c 2,22,-1
 948 457 l 1,23,24
 926 464 926 464 892 479.5 c 128,-1,25
 858 495 858 495 763 533 c 0,26,27
 662 574 662 574 596 598 c 128,-1,28
 530 622 530 622 495 622 c 0,29,30
 438 622 438 622 384.5 589 c 128,-1,31
 331 556 331 556 294 508 c 2,32,-1
 267 473 l 1,33,-1
 116 548 l 1,34,-1
 131 574 l 2,35,36
 194 677 194 677 288.5 738.5 c 128,-1,37
 383 800 383 800 496 800 c 0,38,39
 559 800 559 800 635 773.5 c 128,-1,40
 711 747 711 747 799 704 c 0,41,42
 954 628 954 628 1057 593.5 c 128,-1,43
 1160 559 1160 559 1246 554 c 1,44,-1
 1244 384 l 1,0,1
EndSplineSet
EndChar

StartChar: uniFEAA
Encoding: 65194 65194 277
Width: 1055
GlyphClass: 2
Flags: W
AnchorPoint: "Anchor-2" 507 1154 basechar 0
AnchorPoint: "Anchor-0" 401 -241 basechar 0
LayerCount: 2
Fore
SplineSet
98 209 m 1,0,1
 214 181 214 181 307 181 c 0,2,3
 646 181 646 181 646 350 c 0,4,5
 646 375 646 375 634 416.5 c 128,-1,6
 622 458 622 458 610 487 c 2,7,-1
 449 892 l 1,8,-1
 604 963 l 1,9,-1
 812 432 l 2,10,11
 871 283 871 283 921.5 231.5 c 128,-1,12
 972 180 972 180 1033 180 c 2,13,-1
 1075 180 l 1,14,-1
 1075 0 l 1,15,-1
 1033 0 l 2,16,17
 941 0 941 0 871.5 34 c 128,-1,18
 802 68 802 68 747 162 c 1,19,20
 680 82 680 82 581.5 41.5 c 128,-1,21
 483 1 483 1 322 1 c 0,22,23
 254 1 254 1 200 8 c 128,-1,24
 146 15 146 15 98 26 c 1,25,-1
 98 209 l 1,0,1
EndSplineSet
EndChar

StartChar: uniFEAE
Encoding: 65198 65198 281
Width: 790
GlyphClass: 2
Flags: W
AnchorPoint: "Anchor-2" 423 848 basechar 0
AnchorPoint: "Anchor-0" 323 -640 basechar 0
LayerCount: 2
Fore
SplineSet
610 52 m 1,0,1
 601 -79 601 -79 540.5 -199.5 c 128,-1,2
 480 -320 480 -320 362.5 -410.5 c 128,-1,3
 245 -501 245 -501 63 -542 c 1,4,-1
 -10 -394 l 1,5,6
 235 -334 235 -334 340.5 -200.5 c 128,-1,7
 446 -67 446 -67 446 102 c 0,8,9
 446 188 446 188 427.5 280.5 c 128,-1,10
 409 373 409 373 368 469 c 1,11,-1
 530 527 l 1,12,-1
 592 325 l 2,13,14
 618 247 618 247 659.5 213.5 c 128,-1,15
 701 180 701 180 771 180 c 2,16,-1
 810 180 l 1,17,-1
 810 0 l 1,18,-1
 782 0 l 2,19,20
 720 0 720 0 676.5 16 c 128,-1,21
 633 32 633 32 610 52 c 1,0,1
EndSplineSet
EndChar

StartChar: uniFEB2
Encoding: 65202 65202 285
Width: 2553
GlyphClass: 2
Flags: W
AnchorPoint: "Anchor-2" 1771 930 basechar 0
AnchorPoint: "Anchor-0" 711 -716 basechar 0
LayerCount: 2
Fore
SplineSet
1531 0 m 0,0,1
 1415 0 1415 0 1342 58 c 1,2,3
 1340 -131 1340 -131 1260.5 -259.5 c 128,-1,4
 1181 -388 1181 -388 1042 -454 c 128,-1,5
 903 -520 903 -520 721 -520 c 0,6,7
 425 -520 425 -520 261.5 -372 c 128,-1,8
 98 -224 98 -224 98 56 c 0,9,10
 98 266 98 266 188 485 c 1,11,-1
 343 422 l 1,12,13
 270 230 270 230 270 61 c 0,14,15
 270 -143 270 -143 379.5 -242.5 c 128,-1,16
 489 -342 489 -342 718 -342 c 0,17,18
 942 -342 942 -342 1059 -232.5 c 128,-1,19
 1176 -123 1176 -123 1177 100 c 0,20,21
 1177 282 1177 282 1087 469 c 1,22,-1
 1256 527 l 1,23,-1
 1315 344 l 2,24,25
 1341 262 1341 262 1393.5 221.5 c 128,-1,26
 1446 181 1446 181 1533 180 c 0,27,28
 1632 180 1632 180 1675 234 c 128,-1,29
 1718 288 1718 288 1718 389 c 0,30,31
 1718 413 1718 413 1715.5 457.5 c 128,-1,32
 1713 502 1713 502 1708 567 c 1,33,-1
 1873 587 l 1,34,-1
 1889 361 l 2,35,36
 1894 285 1894 285 1932 232.5 c 128,-1,37
 1970 180 1970 180 2048 180 c 0,38,39
 2187 180 2187 180 2187 387 c 0,40,41
 2187 421 2187 421 2184.5 471 c 128,-1,42
 2182 521 2182 521 2177 588 c 1,43,-1
 2342 608 l 1,44,-1
 2358 361 l 2,45,46
 2370 180 2370 180 2543 180 c 2,47,-1
 2573 180 l 1,48,-1
 2573 0 l 1,49,-1
 2545 0 l 2,50,51
 2447 0 2447 0 2379.5 35 c 128,-1,52
 2312 70 2312 70 2286 143 c 1,53,54
 2248 70 2248 70 2191.5 35 c 128,-1,55
 2135 0 2135 0 2049 0 c 0,56,57
 1877 0 1877 0 1806 143 c 1,58,59
 1702 0 1702 0 1531 0 c 0,0,1
EndSplineSet
EndChar

StartChar: uniFEB3
Encoding: 65203 65203 286
Width: 1562
GlyphClass: 2
Flags: W
AnchorPoint: "Anchor-2" 873 948 basechar 0
AnchorPoint: "Anchor-0" 741 -236 basechar 0
LayerCount: 2
Fore
SplineSet
1153 180 m 0,0,1
 1292 180 1292 180 1292 402 c 0,2,3
 1292 507 1292 507 1248 666 c 1,4,-1
 1412 707 l 1,5,6
 1436 631 1436 631 1450 559.5 c 128,-1,7
 1464 488 1464 488 1464 417 c 0,8,9
 1464 303 1464 303 1434 208.5 c 128,-1,10
 1404 114 1404 114 1336 57.5 c 128,-1,11
 1268 1 1268 1 1154 0 c 0,12,13
 982 0 982 0 911 143 c 1,14,15
 807 0 807 0 636 0 c 0,16,17
 437 0 437 0 372 143 c 1,18,19
 289 0 289 0 49 0 c 2,20,-1
 -20 0 l 1,21,-1
 -20 180 l 1,22,-1
 51 180 l 2,23,24
 173 180 173 180 233 225.5 c 128,-1,25
 293 271 293 271 293 389 c 0,26,27
 293 415 293 415 290.5 459 c 128,-1,28
 288 503 288 503 283 567 c 1,29,-1
 448 587 l 1,30,-1
 464 361 l 2,31,32
 470 282 470 282 513 231 c 128,-1,33
 556 180 556 180 638 180 c 0,34,35
 737 180 737 180 780 234 c 128,-1,36
 823 288 823 288 823 389 c 0,37,38
 823 413 823 413 820.5 457.5 c 128,-1,39
 818 502 818 502 813 567 c 1,40,-1
 978 587 l 1,41,-1
 994 361 l 2,42,43
 999 285 999 285 1037 232.5 c 128,-1,44
 1075 180 1075 180 1153 180 c 0,0,1
EndSplineSet
Position2: "Single Positioning lookup 3 per glyph data 0" dx=0 dy=0 dh=-160 dv=0
Position2: "Single Positioning lookup 2 per glyph data 0" dx=0 dy=0 dh=-130 dv=0
EndChar

StartChar: uniFEB4
Encoding: 65204 65204 287
Width: 1658
GlyphClass: 2
Flags: W
AnchorPoint: "Anchor-2" 873 948 basechar 0
AnchorPoint: "Anchor-0" 741 -236 basechar 0
LayerCount: 2
Fore
SplineSet
1153 180 m 0,0,1
 1292 180 1292 180 1292 387 c 0,2,3
 1292 421 1292 421 1289.5 471 c 128,-1,4
 1287 521 1287 521 1282 588 c 1,5,-1
 1447 608 l 1,6,-1
 1463 361 l 2,7,8
 1475 180 1475 180 1648 180 c 2,9,-1
 1678 180 l 1,10,-1
 1678 0 l 1,11,-1
 1650 0 l 2,12,13
 1552 0 1552 0 1484.5 35 c 128,-1,14
 1417 70 1417 70 1391 143 c 1,15,16
 1353 70 1353 70 1296.5 35 c 128,-1,17
 1240 0 1240 0 1154 0 c 0,18,19
 982 0 982 0 911 143 c 1,20,21
 807 0 807 0 636 0 c 0,22,23
 436 2 436 2 372 143 c 1,24,25
 289 0 289 0 49 0 c 2,26,-1
 -20 0 l 1,27,-1
 -20 180 l 1,28,-1
 51 180 l 2,29,30
 173 180 173 180 233 225.5 c 128,-1,31
 293 271 293 271 293 389 c 0,32,33
 293 415 293 415 290.5 459 c 128,-1,34
 288 503 288 503 283 567 c 1,35,-1
 448 587 l 1,36,-1
 464 361 l 2,37,38
 470 282 470 282 513 231 c 128,-1,39
 556 180 556 180 638 180 c 0,40,41
 737 180 737 180 780 234 c 128,-1,42
 823 288 823 288 823 389 c 0,43,44
 823 413 823 413 820.5 457.5 c 128,-1,45
 818 502 818 502 813 567 c 1,46,-1
 978 587 l 1,47,-1
 994 361 l 2,48,49
 999 285 999 285 1037 232.5 c 128,-1,50
 1075 180 1075 180 1153 180 c 0,0,1
EndSplineSet
EndChar

StartChar: uniFEBA
Encoding: 65210 65210 293
Width: 2610
GlyphClass: 2
Flags: W
AnchorPoint: "Anchor-2" 2053 1128 basechar 0
AnchorPoint: "Anchor-0" 711 -716 basechar 0
LayerCount: 2
Fore
SplineSet
1177 100 m 0,0,1
 1177 281 1177 281 1087 469 c 1,2,-1
 1256 527 l 1,3,-1
 1315 344 l 2,4,5
 1355 216 1355 216 1419 209 c 1,6,7
 1761 787 1761 787 2096 787 c 0,8,9
 2209 787 2209 787 2294.5 739.5 c 128,-1,10
 2380 692 2380 692 2428.5 609.5 c 128,-1,11
 2477 527 2477 527 2477 422 c 0,12,13
 2477 361 2477 361 2454 302 c 128,-1,14
 2431 243 2431 243 2396 196 c 1,15,16
 2420 189 2420 189 2468 184.5 c 128,-1,17
 2516 180 2516 180 2600 180 c 2,18,-1
 2630 180 l 1,19,-1
 2630 0 l 1,20,-1
 2601 0 l 2,21,22
 2481 0 2481 0 2396.5 25 c 128,-1,23
 2312 50 2312 50 2259 93 c 1,24,25
 2180 50 2180 50 2053 25 c 128,-1,26
 1926 0 1926 0 1757 0 c 2,27,-1
 1706 0 l 2,28,29
 1579 0 1579 0 1489.5 14.5 c 128,-1,30
 1400 29 1400 29 1342 57 c 1,31,32
 1340 -136 1340 -136 1258.5 -264 c 128,-1,33
 1177 -392 1177 -392 1038 -456 c 128,-1,34
 899 -520 899 -520 721 -520 c 0,35,36
 424 -520 424 -520 261 -372 c 128,-1,37
 98 -224 98 -224 98 56 c 0,38,39
 98 266 98 266 188 485 c 1,40,-1
 343 422 l 1,41,42
 270 229 270 229 270 61 c 0,43,44
 270 -143 270 -143 379.5 -242.5 c 128,-1,45
 489 -342 489 -342 718 -342 c 0,46,47
 941 -342 941 -342 1058.5 -232.5 c 128,-1,48
 1176 -123 1176 -123 1177 100 c 0,0,1
1753 181 m 2,49,50
 2299 181 2299 181 2299 413 c 0,51,52
 2299 495 2299 495 2245 550 c 128,-1,53
 2191 605 2191 605 2104 605 c 0,54,55
 1989 605 1989 605 1864 496.5 c 128,-1,56
 1739 388 1739 388 1605 180 c 1,57,-1
 1753 181 l 2,49,50
EndSplineSet
EndChar

StartChar: uniFEBB
Encoding: 65211 65211 294
Width: 1654
GlyphClass: 2
Flags: W
AnchorPoint: "Anchor-2" 1113 1128 basechar 0
AnchorPoint: "Anchor-0" 679 -242 basechar 0
LayerCount: 2
Fore
SplineSet
498 209 m 1,0,1
 841 787 841 787 1175 787 c 0,2,3
 1288 787 1288 787 1373.5 739.5 c 128,-1,4
 1459 692 1459 692 1507.5 609.5 c 128,-1,5
 1556 527 1556 527 1556 422 c 0,6,7
 1554 0 1554 0 836 0 c 2,8,-1
 785 0 l 2,9,10
 597 0 597 0 485.5 35 c 128,-1,11
 374 70 374 70 328 143 c 1,12,13
 274 70 274 70 206 35 c 128,-1,14
 138 0 138 0 20 0 c 2,15,-1
 -20 0 l 1,16,-1
 -19 180 l 1,17,-1
 20 180 l 2,18,19
 153 180 153 180 198 230.5 c 128,-1,20
 243 281 243 281 243 388 c 0,21,22
 243 433 243 433 240 487.5 c 128,-1,23
 237 542 237 542 235 588 c 1,24,-1
 399 608 l 1,25,-1
 417 361 l 2,26,27
 427 228 427 228 498 209 c 1,0,1
832 181 m 2,28,29
 1378 181 1378 181 1378 413 c 0,30,31
 1378 495 1378 495 1324 550 c 128,-1,32
 1270 605 1270 605 1183 605 c 0,33,34
 1068 605 1068 605 943 496.5 c 128,-1,35
 818 388 818 388 684 180 c 1,36,-1
 832 181 l 2,28,29
EndSplineSet
Position2: "Single Positioning lookup 3 per glyph data 0" dx=0 dy=0 dh=-160 dv=0
Position2: "Single Positioning lookup 2 per glyph data 0" dx=0 dy=0 dh=-130 dv=0
EndChar

StartChar: uniFEBC
Encoding: 65212 65212 295
Width: 1689
GlyphClass: 2
Flags: W
AnchorPoint: "Anchor-2" 1113 1128 basechar 0
AnchorPoint: "Anchor-0" 679 -242 basechar 0
LayerCount: 2
Fore
SplineSet
498 209 m 1,0,1
 842 787 842 787 1176 787 c 0,2,3
 1289 787 1289 787 1374.5 739 c 128,-1,4
 1460 691 1460 691 1508 608.5 c 128,-1,5
 1556 526 1556 526 1556 420 c 0,6,7
 1556 359 1556 359 1532.5 301 c 128,-1,8
 1509 243 1509 243 1475 196 c 1,9,10
 1492 189 1492 189 1543.5 184.5 c 128,-1,11
 1595 180 1595 180 1679 180 c 2,12,-1
 1709 180 l 1,13,-1
 1709 0 l 1,14,-1
 1679 0 l 2,15,16
 1559 0 1559 0 1475 25 c 128,-1,17
 1391 50 1391 50 1338 93 c 1,18,19
 1259 50 1259 50 1132 25 c 128,-1,20
 1005 0 1005 0 836 0 c 2,21,-1
 785 0 l 2,22,23
 420 0 420 0 328 143 c 1,24,25
 274 70 274 70 206 35 c 128,-1,26
 138 0 138 0 20 0 c 2,27,-1
 -20 0 l 1,28,-1
 -20 180 l 1,29,-1
 19 180 l 2,30,31
 153 180 153 180 198 230.5 c 128,-1,32
 243 281 243 281 243 387 c 0,33,34
 243 434 243 434 240 488 c 128,-1,35
 237 542 237 542 235 588 c 1,36,-1
 399 608 l 1,37,-1
 417 361 l 2,38,39
 427 228 427 228 498 209 c 1,0,1
832 181 m 2,40,41
 1378 181 1378 181 1378 413 c 0,42,43
 1378 495 1378 495 1324 550 c 128,-1,44
 1270 605 1270 605 1183 605 c 0,45,46
 1068 605 1068 605 943 496.5 c 128,-1,47
 818 388 818 388 684 180 c 1,48,-1
 832 181 l 2,40,41
EndSplineSet
EndChar

StartChar: uniFEC2
Encoding: 65218 65218 301
Width: 1510
GlyphClass: 2
Flags: W
AnchorPoint: "Anchor-2" 470 1497 basechar 0
AnchorPoint: "Anchor-0" 637 -238 basechar 0
LayerCount: 2
Fore
SplineSet
1292 195 m 1,0,1
 1312 180 1312 180 1500 180 c 2,2,-1
 1530 180 l 1,3,-1
 1530 0 l 1,4,-1
 1501 0 l 2,5,6
 1369 0 1369 0 1290 26 c 128,-1,7
 1211 52 1211 52 1161 92 c 1,8,9
 1083 52 1083 52 949.5 26 c 128,-1,10
 816 0 816 0 653 0 c 2,11,-1
 98 0 l 1,12,-1
 98 180 l 1,13,-1
 320 180 l 1,14,15
 338 209 338 209 357 238.5 c 128,-1,16
 376 268 376 268 393 296 c 1,17,-1
 393 1366 l 1,18,-1
 562 1366 l 1,19,-1
 562 536 l 1,20,21
 661 659 661 659 767.5 723 c 128,-1,22
 874 787 874 787 992 787 c 0,23,24
 1104 787 1104 787 1189.5 739.5 c 128,-1,25
 1275 692 1275 692 1323.5 609.5 c 128,-1,26
 1372 527 1372 527 1372 422 c 0,27,28
 1372 364 1372 364 1349.5 304.5 c 128,-1,29
 1327 245 1327 245 1292 195 c 1,0,1
649 182 m 2,30,31
 1195 182 1195 182 1195 414 c 0,32,33
 1195 496 1195 496 1141.5 551 c 128,-1,34
 1088 606 1088 606 1001 606 c 0,35,36
 886 606 886 606 760.5 497.5 c 128,-1,37
 635 389 635 389 501 181 c 1,38,-1
 649 182 l 2,30,31
EndSplineSet
EndChar

StartChar: uniFEC3
Encoding: 65219 65219 302
Width: 1293
GlyphClass: 2
Flags: W
AnchorPoint: "Anchor-2" 292 1496 basechar 0
AnchorPoint: "Anchor-0" 482 -238 basechar 0
LayerCount: 2
Fore
SplineSet
384 536 m 1,0,1
 485 659 485 659 593 723 c 128,-1,2
 701 787 701 787 819 787 c 0,3,4
 930 787 930 787 1014.5 739 c 128,-1,5
 1099 691 1099 691 1147 608.5 c 128,-1,6
 1195 526 1195 526 1195 422 c 0,7,8
 1195 0 1195 0 476 0 c 2,9,-1
 -20 0 l 1,10,-1
 -20 180 l 1,11,-1
 140 180 l 1,12,13
 159 209 159 209 178 238 c 128,-1,14
 197 267 197 267 215 295 c 1,15,-1
 215 1366 l 1,16,-1
 384 1366 l 1,17,-1
 384 536 l 1,0,1
471 182 m 2,18,19
 1017 182 1017 182 1017 414 c 0,20,21
 1017 496 1017 496 963 551 c 128,-1,22
 909 606 909 606 822 606 c 0,23,24
 707 606 707 606 582 497.5 c 128,-1,25
 457 389 457 389 323 181 c 1,26,-1
 471 182 l 2,18,19
EndSplineSet
Position2: "Single Positioning lookup 3 per glyph data 0" dx=0 dy=0 dh=-160 dv=0
Position2: "Single Positioning lookup 2 per glyph data 0" dx=0 dy=0 dh=-130 dv=0
EndChar

StartChar: uniFEC4
Encoding: 65220 65220 303
Width: 1332
GlyphClass: 2
Flags: W
AnchorPoint: "Anchor-2" 289 1494 basechar 0
AnchorPoint: "Anchor-0" 482 -238 basechar 0
LayerCount: 2
Fore
SplineSet
1114 195 m 1,0,1
 1134 180 1134 180 1322 180 c 2,2,-1
 1352 180 l 1,3,-1
 1352 0 l 1,4,-1
 1321 0 l 2,5,6
 1189 0 1189 0 1111 26.5 c 128,-1,7
 1033 53 1033 53 983 93 c 1,8,9
 905 53 905 53 772 26.5 c 128,-1,10
 639 0 639 0 476 0 c 2,11,-1
 -20 0 l 1,12,-1
 -20 180 l 1,13,-1
 141 180 l 1,14,15
 159 209 159 209 178 238.5 c 128,-1,16
 197 268 197 268 215 296 c 1,17,-1
 215 1366 l 1,18,-1
 384 1366 l 1,19,-1
 384 536 l 1,20,21
 485 659 485 659 593 723 c 128,-1,22
 701 787 701 787 817 787 c 0,23,24
 928 787 928 787 1013.5 739 c 128,-1,25
 1099 691 1099 691 1147 608.5 c 128,-1,26
 1195 526 1195 526 1195 422 c 0,27,28
 1195 364 1195 364 1172 304.5 c 128,-1,29
 1149 245 1149 245 1114 195 c 1,0,1
471 182 m 2,30,31
 1017 182 1017 182 1017 414 c 0,32,33
 1017 496 1017 496 963 551 c 128,-1,34
 909 606 909 606 822 606 c 0,35,36
 707 606 707 606 582 497.5 c 128,-1,37
 457 389 457 389 323 181 c 1,38,-1
 471 182 l 2,30,31
EndSplineSet
EndChar

StartChar: uniFECA
Encoding: 65226 65226 309
Width: 1199
GlyphClass: 2
Flags: W
AnchorPoint: "Anchor-2" 575 1166 basechar 0
AnchorPoint: "Anchor-0" 611 -831 basechar 0
LayerCount: 2
Fore
SplineSet
456 307 m 1,0,1
 384 372 384 372 319.5 442.5 c 128,-1,2
 255 513 255 513 214 576.5 c 128,-1,3
 173 640 173 640 173 684 c 0,4,5
 173 753 173 753 239.5 793 c 128,-1,6
 306 833 306 833 407.5 850 c 128,-1,7
 509 867 509 867 613 867 c 0,8,9
 686 867 686 867 762 857.5 c 128,-1,10
 838 848 838 848 902.5 827 c 128,-1,11
 967 806 967 806 1006.5 770.5 c 128,-1,12
 1046 735 1046 735 1046 684 c 0,13,14
 1046 641 1046 641 1000 575 c 128,-1,15
 954 509 954 509 883.5 435.5 c 128,-1,16
 813 362 813 362 739 295 c 1,17,18
 830 234 830 234 934 207 c 128,-1,19
 1038 180 1038 180 1159 180 c 2,20,-1
 1219 180 l 1,21,-1
 1219 0 l 1,22,-1
 1159 0 l 2,23,24
 1014 0 1014 0 877 48 c 128,-1,25
 740 96 740 96 592 199 c 1,26,27
 440 114 440 114 352.5 17.5 c 128,-1,28
 265 -79 265 -79 265 -198 c 0,29,30
 265 -331 265 -331 377 -411.5 c 128,-1,31
 489 -492 489 -492 694 -492 c 0,32,33
 777 -492 777 -492 862.5 -481.5 c 128,-1,34
 948 -471 948 -471 1034 -435 c 1,35,-1
 1079 -600 l 1,36,37
 997 -637 997 -637 897.5 -650 c 128,-1,38
 798 -663 798 -663 689 -663 c 0,39,40
 518 -663 518 -663 384.5 -611 c 128,-1,41
 251 -559 251 -559 174.5 -455.5 c 128,-1,42
 98 -352 98 -352 98 -198 c 0,43,44
 98 -39 98 -39 198.5 84 c 128,-1,45
 299 207 299 207 456 307 c 1,0,1
610 697 m 0,46,47
 580 697 580 697 531.5 693.5 c 128,-1,48
 483 690 483 690 431.5 682.5 c 128,-1,49
 380 675 380 675 342 661 c 1,50,51
 398 587 398 587 460 525.5 c 128,-1,52
 522 464 522 464 566 427 c 128,-1,53
 610 390 610 390 610 390 c 257,54,55
 610 390 610 390 653 427 c 128,-1,56
 696 464 696 464 758.5 525.5 c 128,-1,57
 821 587 821 587 878 661 c 1,58,59
 840 675 840 675 789 682.5 c 128,-1,60
 738 690 738 690 689.5 693.5 c 128,-1,61
 641 697 641 697 610 697 c 0,46,47
EndSplineSet
EndChar

StartChar: uniFECB
Encoding: 65227 65227 310
Width: 1034
GlyphClass: 2
Flags: W
AnchorPoint: "Anchor-2" 550 1187 basechar 0
AnchorPoint: "Anchor-0" 485 -237 basechar 0
LayerCount: 2
Fore
SplineSet
168 464 m 0,0,1
 168 567 168 567 221.5 655 c 128,-1,2
 275 743 275 743 362.5 796.5 c 128,-1,3
 450 850 450 850 551 850 c 0,4,5
 705 850 705 850 880 730 c 1,6,-1
 814 584 l 1,7,8
 664 672 664 672 561 672 c 0,9,10
 503 672 503 672 453 643 c 128,-1,11
 403 614 403 614 372 565 c 128,-1,12
 341 516 341 516 341 457 c 0,13,14
 341 386 341 386 375.5 330.5 c 128,-1,15
 410 275 410 275 448 242.5 c 128,-1,16
 486 210 486 210 497 210 c 256,17,18
 508 210 508 210 529 216 c 2,19,-1
 936 323 l 1,20,-1
 936 143 l 1,21,22
 698 69 698 69 491 34.5 c 128,-1,23
 284 0 284 0 85 0 c 2,24,-1
 -20 0 l 1,25,-1
 -20 180 l 1,26,-1
 277 180 l 1,27,28
 235 233 235 233 201.5 310.5 c 128,-1,29
 168 388 168 388 168 464 c 0,0,1
EndSplineSet
Position2: "Single Positioning lookup 3 per glyph data 0" dx=0 dy=0 dh=-160 dv=0
Position2: "Single Positioning lookup 2 per glyph data 0" dx=0 dy=0 dh=-130 dv=0
EndChar

StartChar: uniFEDA
Encoding: 65242 65242 325
Width: 1891
GlyphClass: 2
Flags: W
AnchorPoint: "Anchor-2" 916 1240 basechar 0
AnchorPoint: "Anchor-0" 900 -226 basechar 0
LayerCount: 2
Fore
SplineSet
978 180 m 2,0,1
 1155 180 1155 180 1262 198 c 128,-1,2
 1369 216 1369 216 1423.5 252 c 128,-1,3
 1478 288 1478 288 1496 342.5 c 128,-1,4
 1514 397 1514 397 1514 470 c 2,5,-1
 1514 1366 l 1,6,-1
 1683 1366 l 1,7,-1
 1683 472 l 2,8,9
 1683 375 1683 375 1695.5 310 c 128,-1,10
 1708 245 1708 245 1749.5 212.5 c 128,-1,11
 1791 180 1791 180 1876 180 c 2,12,-1
 1911 180 l 1,13,-1
 1911 0 l 1,14,-1
 1878 0 l 2,15,16
 1738 0 1738 0 1674.5 44.5 c 128,-1,17
 1611 89 1611 89 1583 180 c 1,18,19
 1518 109 1518 109 1445 70 c 128,-1,20
 1372 31 1372 31 1264 15.5 c 128,-1,21
 1156 0 1156 0 985 0 c 2,22,-1
 840 0 l 2,23,24
 481 0 481 0 289.5 121.5 c 128,-1,25
 98 243 98 243 98 484 c 0,26,27
 98 551 98 551 112.5 615 c 128,-1,28
 127 679 127 679 152 738 c 1,29,-1
 305 681 l 1,30,31
 289 639 289 639 281 591 c 128,-1,32
 273 543 273 543 273 499 c 0,33,34
 274 334 274 334 414 257 c 128,-1,35
 554 180 554 180 830 180 c 2,36,-1
 978 180 l 2,0,1
733 583 m 1,37,38
 801 584 801 584 867 589.5 c 128,-1,39
 933 595 933 595 976.5 611 c 128,-1,40
 1020 627 1020 627 1020 660 c 0,41,42
 1020 704 1020 704 992.5 720.5 c 128,-1,43
 965 737 965 737 924.5 742.5 c 128,-1,44
 884 748 884 748 843.5 757 c 128,-1,45
 803 766 803 766 775.5 795 c 128,-1,46
 748 824 748 824 748 889 c 0,47,48
 748 957 748 957 798 997.5 c 128,-1,49
 848 1038 848 1038 926 1056.5 c 128,-1,50
 1004 1075 1004 1075 1087 1075 c 1,51,-1
 1087 970 l 1,52,53
 1039 967 1039 967 984 958.5 c 128,-1,54
 929 950 929 950 889.5 933 c 128,-1,55
 850 916 850 916 850 888 c 0,56,57
 850 864 850 864 877 855.5 c 128,-1,58
 904 847 904 847 944 841.5 c 128,-1,59
 984 836 984 836 1024 821 c 128,-1,60
 1064 806 1064 806 1091 770 c 128,-1,61
 1118 734 1118 734 1118 664 c 0,62,63
 1118 577 1118 577 1061.5 538 c 128,-1,64
 1005 499 1005 499 917 489.5 c 128,-1,65
 829 480 829 480 733 479 c 1,66,-1
 733 583 l 1,37,38
EndSplineSet
EndChar

StartChar: uniFEDB
Encoding: 65243 65243 326
Width: 950
GlyphClass: 2
Flags: W
AnchorPoint: "Anchor-2" 328 1370 basechar 0
AnchorPoint: "Anchor-0" 311 -234 basechar 0
LayerCount: 2
Fore
SplineSet
727 356 m 0,0,1
 726 177 726 177 593.5 88.5 c 128,-1,2
 461 0 461 0 166 0 c 2,3,-1
 -20 0 l 1,4,-1
 -20 180 l 1,5,-1
 165 180 l 2,6,7
 371 180 371 180 461 221.5 c 128,-1,8
 551 263 551 263 551 359 c 0,9,10
 551 413 551 413 510 472.5 c 128,-1,11
 469 532 469 532 402 596.5 c 128,-1,12
 335 661 335 661 254 728.5 c 128,-1,13
 173 796 173 796 93 865 c 0,14,15
 42 908 42 908 42 983 c 0,16,17
 42 1027 42 1027 66.5 1069.5 c 128,-1,18
 91 1112 91 1112 146 1133 c 2,19,-1
 890 1410 l 1,20,-1
 890 1234 l 1,21,-1
 215 984 l 1,22,23
 291 923 291 923 379.5 852.5 c 128,-1,24
 468 782 468 782 547 703 c 128,-1,25
 626 624 626 624 676.5 537 c 128,-1,26
 727 450 727 450 727 356 c 0,0,1
EndSplineSet
Position2: "Single Positioning lookup 3 per glyph data 3" dx=0 dy=0 dh=-220 dv=0
Position2: "Single Positioning lookup 2 per glyph data 3" dx=0 dy=0 dh=-200 dv=0
Position2: "Single Positioning lookup 1 subtable" dx=0 dy=0 dh=180 dv=0
EndChar

StartChar: uniFEDC
Encoding: 65244 65244 327
Width: 1027
GlyphClass: 2
Flags: W
AnchorPoint: "Anchor-2" 328 1370 basechar 0
AnchorPoint: "Anchor-0" 311 -234 basechar 0
LayerCount: 2
Fore
SplineSet
215 984 m 1,0,1
 310 908 310 908 410.5 826 c 128,-1,2
 511 744 511 744 596 648 c 128,-1,3
 681 552 681 552 728 432 c 0,4,5
 777 308 777 308 847.5 244 c 128,-1,6
 918 180 918 180 1018 180 c 2,7,-1
 1047 180 l 1,8,-1
 1047 0 l 1,9,-1
 1018 0 l 2,10,11
 908 0 908 0 821.5 45.5 c 128,-1,12
 735 91 735 91 669 179 c 1,13,14
 611 90 611 90 494.5 45 c 128,-1,15
 378 0 378 0 166 0 c 2,16,-1
 -20 0 l 1,17,-1
 -20 180 l 1,18,-1
 165 180 l 2,19,20
 371 180 371 180 461 221.5 c 128,-1,21
 551 263 551 263 551 359 c 0,22,23
 551 413 551 413 510 472.5 c 128,-1,24
 469 532 469 532 402 596.5 c 128,-1,25
 335 661 335 661 254 728.5 c 128,-1,26
 173 796 173 796 93 865 c 0,27,28
 42 908 42 908 42 983 c 0,29,30
 42 1027 42 1027 66.5 1069.5 c 128,-1,31
 91 1112 91 1112 146 1133 c 2,32,-1
 890 1410 l 1,33,-1
 890 1234 l 1,34,-1
 215 984 l 1,0,1
EndSplineSet
EndChar

StartChar: uniFEDE
Encoding: 65246 65246 329
Width: 1439
GlyphClass: 2
Flags: W
AnchorPoint: "Anchor-2" 655 1006 basechar 0
AnchorPoint: "Anchor-0" 663 -708 basechar 0
LayerCount: 2
Fore
SplineSet
335 358 m 1,0,1
 302 274 302 274 285.5 187 c 128,-1,2
 269 100 269 100 269 36 c 0,3,4
 269 -167 269 -167 365.5 -254.5 c 128,-1,5
 462 -342 462 -342 675 -342 c 0,6,7
 1059 -342 1059 -342 1059 68 c 2,8,-1
 1061 1366 l 1,9,-1
 1229 1366 l 1,10,-1
 1228 393 l 2,11,12
 1228 287 1228 287 1270.5 233.5 c 128,-1,13
 1313 180 1313 180 1428 180 c 2,14,-1
 1459 180 l 1,15,-1
 1459 0 l 1,16,-1
 1430 0 l 2,17,18
 1349 0 1349 0 1308 20.5 c 128,-1,19
 1267 41 1267 41 1228 78 c 1,20,21
 1224 -214 1224 -214 1087.5 -367 c 128,-1,22
 951 -520 951 -520 674 -520 c 0,23,24
 393 -520 393 -520 245.5 -381.5 c 128,-1,25
 98 -243 98 -243 98 35 c 0,26,27
 98 115 98 115 118.5 218 c 128,-1,28
 139 321 139 321 180 421 c 1,29,-1
 335 358 l 1,0,1
EndSplineSet
EndChar

StartChar: uniFEDF
Encoding: 65247 65247 330
Width: 588
GlyphClass: 2
Flags: W
AnchorPoint: "Anchor-2" 346 1501 basechar 0
AnchorPoint: "Anchor-0" 260 -238 basechar 0
LayerCount: 2
Fore
SplineSet
-20 0 m 1,0,-1
 -20 180 l 1,1,-1
 61 180 l 2,2,3
 151 180 151 180 196 205 c 128,-1,4
 241 230 241 230 256 279.5 c 128,-1,5
 271 329 271 329 271 403 c 2,6,-1
 271 1366 l 1,7,-1
 440 1366 l 1,8,-1
 440 404 l 2,9,10
 440 205 440 205 353.5 102.5 c 128,-1,11
 267 0 267 0 60 0 c 2,12,-1
 -20 0 l 1,0,-1
EndSplineSet
Position2: "Single Positioning lookup 3 per glyph data 2" dx=0 dy=0 dh=-140 dv=0
Position2: "Single Positioning lookup 2 per glyph data 2" dx=0 dy=0 dh=-80 dv=0
Position2: "Single Positioning lookup 1 subtable" dx=0 dy=0 dh=130 dv=0
EndChar

StartChar: uniFEE0
Encoding: 65248 65248 331
Width: 650
GlyphClass: 2
Flags: W
AnchorPoint: "Anchor-2" 345 1501 basechar 0
AnchorPoint: "Anchor-0" 260 -238 basechar 0
LayerCount: 2
Fore
SplineSet
348 143 m 1,0,1
 299 73 299 73 235 36.5 c 128,-1,2
 171 0 171 0 43 0 c 2,3,-1
 -20 0 l 1,4,-1
 -20 180 l 1,5,-1
 45 180 l 2,6,7
 164 180 164 180 217 232.5 c 128,-1,8
 270 285 270 285 271 389 c 2,9,-1
 271 1366 l 1,10,-1
 440 1366 l 1,11,-1
 440 389 l 2,12,13
 440 285 440 285 484.5 232.5 c 128,-1,14
 529 180 529 180 638 180 c 2,15,-1
 670 180 l 1,16,-1
 670 0 l 1,17,-1
 640 0 l 2,18,19
 531 0 531 0 465 36.5 c 128,-1,20
 399 73 399 73 348 143 c 1,0,1
EndSplineSet
EndChar

StartChar: uniFEE2
Encoding: 65250 65250 333
Width: 1296
GlyphClass: 2
Flags: W
AnchorPoint: "Anchor-2" 764 980 basechar 0
AnchorPoint: "Anchor-0" 207 -789 basechar 0
LayerCount: 2
Fore
SplineSet
112 -655 m 1,0,1
 107 -567 107 -567 104 -489.5 c 128,-1,2
 101 -412 101 -412 101 -333 c 0,3,4
 101 -159 101 -159 121 -18 c 128,-1,5
 141 123 141 123 202 214 c 128,-1,6
 263 305 263 305 385 329 c 1,7,8
 459 516 459 516 558 605.5 c 128,-1,9
 657 695 657 695 780 695 c 0,10,11
 932 695 932 695 1014 604 c 128,-1,12
 1096 513 1096 513 1125 370 c 0,13,14
 1166 180 1166 180 1288 180 c 2,15,-1
 1316 180 l 1,16,-1
 1316 0 l 1,17,-1
 1288 0 l 2,18,19
 1226 0 1226 0 1173.5 24.5 c 128,-1,20
 1121 49 1121 49 1084 104 c 1,21,22
 1045 37 1045 37 989 7 c 128,-1,23
 933 -23 933 -23 846 -23 c 0,24,25
 734 -23 734 -23 598 59 c 0,26,27
 574 74 574 74 548.5 88 c 128,-1,28
 523 102 523 102 495 116 c 0,29,30
 452 138 452 138 419 138 c 0,31,32
 341 137 341 137 307.5 28 c 128,-1,33
 274 -81 274 -81 274 -305 c 0,34,35
 274 -403 274 -403 277.5 -489 c 128,-1,36
 281 -575 281 -575 288 -655 c 1,37,-1
 112 -655 l 1,0,1
554 291 m 1,38,39
 644 229 644 229 717.5 192 c 128,-1,40
 791 155 791 155 842 155 c 0,41,42
 964 156 964 156 964 295 c 0,43,44
 964 387 964 387 915 451.5 c 128,-1,45
 866 516 866 516 780 516 c 0,46,47
 708 516 708 516 650.5 450 c 128,-1,48
 593 384 593 384 554 291 c 1,38,39
EndSplineSet
EndChar

StartChar: uniFEE3
Encoding: 65251 65251 334
Width: 1048
GlyphClass: 2
Flags: W
AnchorPoint: "Anchor-2" 584 1020 basechar 0
AnchorPoint: "Anchor-0" 515 -237 basechar 0
LayerCount: 2
Fore
SplineSet
303 144 m 1,0,1
 177 0 177 0 23 0 c 2,2,-1
 -20 0 l 1,3,-1
 -20 180 l 1,4,-1
 18 180 l 2,5,6
 79 180 79 180 123 215 c 128,-1,7
 167 250 167 250 199 303 c 128,-1,8
 231 356 231 356 256 411 c 0,9,10
 322 557 322 557 406.5 626 c 128,-1,11
 491 695 491 695 597 695 c 0,12,13
 704 695 704 695 783.5 642 c 128,-1,14
 863 589 863 589 906.5 501 c 128,-1,15
 950 413 950 413 950 307 c 0,16,17
 950 151 950 151 873 64.5 c 128,-1,18
 796 -22 796 -22 652 -22 c 0,19,20
 555 -22 555 -22 472 20 c 128,-1,21
 389 62 389 62 303 144 c 1,0,1
391 300 m 1,22,23
 457 224 457 224 520 188.5 c 128,-1,24
 583 153 583 153 644 153 c 0,25,26
 783 153 783 153 783 292 c 0,27,28
 783 390 783 390 734.5 452.5 c 128,-1,29
 686 515 686 515 601 515 c 0,30,31
 531 515 531 515 479.5 448 c 128,-1,32
 428 381 428 381 391 300 c 1,22,23
EndSplineSet
Position2: "Single Positioning lookup 3 per glyph data 0" dx=0 dy=0 dh=-160 dv=0
Position2: "Single Positioning lookup 2 per glyph data 0" dx=0 dy=0 dh=-130 dv=0
EndChar

StartChar: uniFEE4
Encoding: 65252 65252 335
Width: 1111
GlyphClass: 2
Flags: W
AnchorPoint: "Anchor-2" 583 1020 basechar 0
AnchorPoint: "Anchor-0" 534 -237 basechar 0
LayerCount: 2
Fore
SplineSet
303 144 m 1,0,1
 241 74 241 74 171.5 37 c 128,-1,2
 102 0 102 0 22 0 c 2,3,-1
 -20 0 l 1,4,-1
 -20 180 l 1,5,-1
 17 180 l 2,6,7
 79 180 79 180 123 215.5 c 128,-1,8
 167 251 167 251 199 304 c 128,-1,9
 231 357 231 357 255 411 c 0,10,11
 383 695 383 695 596 695 c 0,12,13
 748 695 748 695 832 600.5 c 128,-1,14
 916 506 916 506 944 370 c 0,15,16
 984 180 984 180 1104 180 c 2,17,-1
 1131 180 l 1,18,-1
 1131 0 l 1,19,-1
 1103 0 l 2,20,21
 1043 0 1043 0 992.5 24.5 c 128,-1,22
 942 49 942 49 905 104 c 1,23,24
 862 37 862 37 801.5 7.5 c 128,-1,25
 741 -22 741 -22 652 -22 c 0,26,27
 555 -22 555 -22 472 20 c 128,-1,28
 389 62 389 62 303 144 c 1,0,1
391 300 m 1,29,30
 457 224 457 224 520 188.5 c 128,-1,31
 583 153 583 153 644 153 c 0,32,33
 783 153 783 153 783 292 c 0,34,35
 783 390 783 390 734.5 452.5 c 128,-1,36
 686 515 686 515 601 515 c 0,37,38
 531 515 531 515 479.5 448 c 128,-1,39
 428 381 428 381 391 300 c 1,29,30
EndSplineSet
EndChar

StartChar: uniFEEA
Encoding: 65258 65258 341
Width: 1038
GlyphClass: 2
Flags: W
AnchorPoint: "Anchor-2" 662 1222 basechar 0
AnchorPoint: "Anchor-0" 470 -236 basechar 0
LayerCount: 2
Fore
SplineSet
98 412 m 0,0,1
 98 559 98 559 223 672 c 128,-1,2
 348 785 348 785 605 864 c 1,3,-1
 598 909 l 1,4,-1
 757 942 l 1,5,-1
 839 353 l 2,6,7
 850 271 850 271 897.5 225.5 c 128,-1,8
 945 180 945 180 1027 180 c 2,9,-1
 1058 180 l 1,10,-1
 1058 0 l 1,11,-1
 1023 0 l 2,12,13
 884 0 884 0 805.5 61.5 c 128,-1,14
 727 123 727 123 701 237 c 1,15,16
 579 132 579 132 431 132 c 0,17,18
 340 132 340 132 264 161.5 c 128,-1,19
 188 191 188 191 143 253 c 128,-1,20
 98 315 98 315 98 412 c 0,0,1
631 703 m 1,21,22
 454 638 454 638 363 570.5 c 128,-1,23
 272 503 272 503 272 424 c 0,24,25
 272 300 272 300 425 300 c 0,26,27
 481 300 481 300 535 322 c 128,-1,28
 589 344 589 344 625 384.5 c 128,-1,29
 661 425 661 425 661 482 c 0,30,31
 661 512 661 512 657 539 c 2,32,-1
 631 703 l 1,21,22
EndSplineSet
EndChar

StartChar: uniFEEB
Encoding: 65259 65259 342
Width: 1369
GlyphClass: 2
Flags: W
AnchorPoint: "Anchor-2" 609 1203 basechar 0
AnchorPoint: "Anchor-0" 511 -240 basechar 0
LayerCount: 2
Fore
SplineSet
585 951 m 1,0,1
 929 784 929 784 1100 638 c 128,-1,2
 1271 492 1271 492 1271 353 c 0,3,4
 1271 183 1271 183 1163 96.5 c 128,-1,5
 1055 10 1055 10 879 10 c 0,6,7
 813 10 813 10 739 20.5 c 128,-1,8
 665 31 665 31 598 46.5 c 128,-1,9
 531 62 531 62 485 77 c 1,10,11
 403 46 403 46 291 23 c 128,-1,12
 179 0 179 0 75 0 c 2,13,-1
 -20 0 l 1,14,-1
 -20 180 l 1,15,-1
 63 180 l 2,16,17
 129 180 129 180 177 181.5 c 128,-1,18
 225 183 225 183 280 190 c 1,19,20
 216 244 216 244 184.5 310.5 c 128,-1,21
 153 377 153 377 153 466 c 0,22,23
 153 566 153 566 200 638 c 128,-1,24
 247 710 247 710 325 748.5 c 128,-1,25
 403 787 403 787 495 787 c 0,26,27
 541 787 541 787 580 777 c 1,28,-1
 509 813 l 1,29,-1
 585 951 l 1,0,1
728 699 m 1,30,31
 783 651 783 651 804 602 c 128,-1,32
 825 553 825 553 825 483 c 0,33,34
 825 392 825 392 789.5 318 c 128,-1,35
 754 244 754 244 689 186 c 1,36,37
 730 181 730 181 777.5 178 c 128,-1,38
 825 175 825 175 862 175 c 0,39,40
 1096 175 1096 175 1096 350 c 0,41,42
 1096 492 1096 492 728 699 c 1,30,31
503 240 m 1,43,44
 588 274 588 274 631 335 c 128,-1,45
 674 396 674 396 675 463 c 0,46,47
 675 546 675 546 628 589 c 128,-1,48
 581 632 581 632 504 632 c 0,49,50
 423 632 423 632 373 587.5 c 128,-1,51
 323 543 323 543 323 468 c 0,52,53
 323 398 323 398 368.5 336 c 128,-1,54
 414 274 414 274 503 240 c 1,43,44
EndSplineSet
Position2: "Single Positioning lookup 3 per glyph data 0" dx=0 dy=0 dh=-160 dv=0
Position2: "Single Positioning lookup 2 per glyph data 0" dx=0 dy=0 dh=-130 dv=0
EndChar

StartChar: uniFEEC
Encoding: 65260 65260 343
Width: 1002
GlyphClass: 2
Flags: W
AnchorPoint: "Anchor-2" 552 1135 basechar 0
AnchorPoint: "Anchor-0" 597 -710 basechar 0
LayerCount: 2
Fore
SplineSet
616 -540 m 1,0,1
 280 -380 280 -380 217 0 c 1,2,-1
 -20 0 l 1,3,-1
 -20 180 l 1,4,-1
 204 180 l 1,5,6
 213 351 213 351 244.5 490.5 c 128,-1,7
 276 630 276 630 348 713 c 128,-1,8
 420 796 420 796 548 796 c 0,9,10
 670 796 670 796 740 710 c 128,-1,11
 810 624 810 624 810 487 c 0,12,13
 810 397 810 397 774.5 311 c 128,-1,14
 739 225 739 225 678 155.5 c 128,-1,15
 617 86 617 86 539 44 c 128,-1,16
 461 2 461 2 376 -1 c 1,17,18
 413 -210 413 -210 585 -321 c 1,19,20
 585 -85 585 -85 685.5 47.5 c 128,-1,21
 786 180 786 180 988 180 c 2,22,-1
 1022 180 l 1,23,-1
 1022 0 l 1,24,-1
 986 0 l 2,25,26
 733 0 733 0 733 -330 c 0,27,28
 733 -351 733 -351 734 -375 c 128,-1,29
 735 -399 735 -399 737 -422 c 1,30,-1
 616 -540 l 1,0,1
367 179 m 1,31,32
 445 182 445 182 509.5 223.5 c 128,-1,33
 574 265 574 265 612.5 334 c 128,-1,34
 651 403 651 403 651 487 c 0,35,36
 651 554 651 554 621.5 588 c 128,-1,37
 592 622 592 622 546 622 c 0,38,39
 461 622 461 622 419.5 511 c 128,-1,40
 378 400 378 400 367 179 c 1,31,32
EndSplineSet
EndChar

StartChar: uniFEFB
Encoding: 65275 65275 358
Width: 1172
GlyphClass: 3
Flags: W
AnchorPoint: "Anchor-3" 885 -241 baselig 0
AnchorPoint: "Anchor-1" 935 1498 baselig 0
AnchorPoint: "Anchor-1" 222 1447 baselig 1
AnchorPoint: "Anchor-3" 248 -244 baselig 1
LayerCount: 2
Fore
SplineSet
135 196 m 1,0,1
 252 181 252 181 359 181 c 0,2,3
 415 181 415 181 463 184 c 1,4,5
 427 360 427 360 344.5 617.5 c 128,-1,6
 262 875 262 875 110 1224 c 1,7,-1
 259 1305 l 1,8,9
 410 941 410 941 494.5 675 c 128,-1,10
 579 409 579 409 622 218 c 1,11,12
 739 256 739 256 797 340 c 128,-1,13
 855 424 855 424 855 598 c 2,14,-1
 855 1366 l 1,15,-1
 1024 1366 l 1,16,-1
 1024 597 l 2,17,18
 1024 280 1024 280 857 141.5 c 128,-1,19
 690 3 690 3 356 3 c 0,20,21
 288 3 288 3 233 7.5 c 128,-1,22
 178 12 178 12 135 19 c 1,23,-1
 135 196 l 1,0,1
EndSplineSet
Ligature2: "'rlig' Required Ligatures in Arabic lookup 3 subtable" uniFEDF uniFE8E
Position2: "Single Positioning lookup 3 per glyph data 2" dx=0 dy=0 dh=-140 dv=0
Position2: "Single Positioning lookup 2 per glyph data 2" dx=0 dy=0 dh=-80 dv=0
Position2: "Single Positioning lookup 1 subtable" dx=0 dy=0 dh=130 dv=0
EndChar

StartChar: uniFEFC
Encoding: 65276 65276 359
Width: 1233
GlyphClass: 3
Flags: W
AnchorPoint: "Anchor-3" 885 -241 baselig 0
AnchorPoint: "Anchor-1" 934 1498 baselig 0
AnchorPoint: "Anchor-1" 222 1449 baselig 1
AnchorPoint: "Anchor-3" 248 -244 baselig 1
LayerCount: 2
Fore
SplineSet
259 1305 m 1,0,1
 410 941 410 941 494.5 675 c 128,-1,2
 579 409 579 409 622 218 c 1,3,4
 739 256 739 256 797 340 c 128,-1,5
 855 424 855 424 855 598 c 2,6,-1
 855 1366 l 1,7,-1
 1024 1366 l 1,8,-1
 1024 547 l 2,9,10
 1024 365 1024 365 1067.5 272.5 c 128,-1,11
 1111 180 1111 180 1217 180 c 2,12,-1
 1253 180 l 1,13,-1
 1253 0 l 1,14,-1
 1214 0 l 2,15,16
 1090 0 1090 0 1020 57.5 c 128,-1,17
 950 115 950 115 916 229 c 1,18,19
 833 117 833 117 695 60 c 128,-1,20
 557 3 557 3 356 3 c 0,21,22
 288 3 288 3 233 7.5 c 128,-1,23
 178 12 178 12 135 19 c 1,24,-1
 135 196 l 1,25,26
 249 181 249 181 358 181 c 0,27,28
 414 181 414 181 463 184 c 1,29,30
 426 359 426 359 344 616 c 128,-1,31
 262 873 262 873 110 1224 c 1,32,-1
 259 1305 l 1,0,1
EndSplineSet
Ligature2: "'rlig' Required Ligatures in Arabic lookup 3 subtable" uniFEE0 uniFE8E
EndChar

StartChar: uniFFFC
Encoding: 65532 65532 361
Width: 2099
GlyphClass: 2
Flags: W
LayerCount: 2
Fore
SplineSet
825 468 m 2,0,1
 825 370 825 370 760.5 309.5 c 128,-1,2
 696 249 696 249 596 249 c 0,3,4
 494 249 494 249 430 309 c 128,-1,5
 366 369 366 369 364 463 c 2,6,-1
 364 580 l 2,7,8
 364 675 364 675 427 737 c 128,-1,9
 490 799 490 799 594 799 c 0,10,11
 695 799 695 799 759 739 c 128,-1,12
 823 679 823 679 825 585 c 2,13,-1
 825 468 l 2,0,1
892 252 m 1,14,-1
 892 801 l 1,15,-1
 1080 801 l 2,16,17
 1178 801 1178 801 1235 764.5 c 128,-1,18
 1292 728 1292 728 1292 651 c 0,19,20
 1292 567 1292 567 1208 535 c 1,21,22
 1258 522 1258 522 1284 487 c 128,-1,23
 1310 452 1310 452 1310 407 c 0,24,25
 1310 252 1310 252 1102 252 c 2,26,-1
 892 252 l 1,14,-1
733 580 m 2,27,28
 733 649 733 649 696 688 c 128,-1,29
 659 727 659 727 594 727 c 0,30,31
 530 727 530 727 493 688 c 128,-1,32
 456 649 456 649 456 580 c 2,33,-1
 456 468 l 2,34,35
 456 399 456 399 493 360 c 128,-1,36
 530 321 530 321 596 321 c 0,37,38
 660 321 660 321 696.5 360 c 128,-1,39
 733 399 733 399 733 468 c 2,40,-1
 733 580 l 2,27,28
1687 803 m 1,41,-1
 1779 803 l 1,42,-1
 1779 425 l 2,43,44
 1779 347 1779 347 1726.5 300.5 c 128,-1,45
 1674 254 1674 254 1592 254 c 0,46,47
 1504 254 1504 254 1449.5 294.5 c 128,-1,48
 1395 335 1395 335 1395 418 c 1,49,-1
 1488 418 l 1,50,51
 1488 327 1488 327 1592 327 c 0,52,53
 1633 327 1633 327 1660 354 c 128,-1,54
 1687 381 1687 381 1687 425 c 2,55,-1
 1687 803 l 1,41,-1
91 -398 m 1,56,-1
 91 -83 l 1,57,-1
 204 -83 l 1,58,-1
 204 -285 l 1,59,-1
 400 -285 l 1,60,-1
 400 -398 l 1,61,-1
 91 -398 l 1,56,-1
1720 -398 m 1,62,-1
 1720 -285 l 1,63,-1
 1919 -285 l 1,64,-1
 1919 -83 l 1,65,-1
 2030 -83 l 1,66,-1
 2030 -398 l 1,67,-1
 1720 -398 l 1,62,-1
91 1169 m 1,68,-1
 91 1454 l 1,69,-1
 400 1454 l 1,70,-1
 400 1338 l 1,71,-1
 204 1338 l 1,72,-1
 204 1169 l 1,73,-1
 91 1169 l 1,68,-1
1720 1338 m 1,74,-1
 1720 1454 l 1,75,-1
 2030 1454 l 1,76,-1
 2030 1169 l 1,77,-1
 1919 1169 l 1,78,-1
 1919 1338 l 1,79,-1
 1720 1338 l 1,74,-1
987 496 m 1,80,-1
 987 327 l 1,81,-1
 1113 327 l 2,82,83
 1216 327 1216 327 1216 410 c 0,84,85
 1216 492 1216 492 1118 496 c 1,86,-1
 987 496 l 1,80,-1
1321 1338 m 1,87,-1
 1321 1454 l 1,88,-1
 1599 1454 l 1,89,-1
 1599 1338 l 1,90,-1
 1321 1338 l 1,87,-1
922 1338 m 1,91,-1
 922 1454 l 1,92,-1
 1199 1454 l 1,93,-1
 1199 1338 l 1,94,-1
 922 1338 l 1,91,-1
523 1338 m 1,95,-1
 523 1454 l 1,96,-1
 799 1454 l 1,97,-1
 799 1338 l 1,98,-1
 523 1338 l 1,95,-1
1321 -398 m 1,99,-1
 1321 -285 l 1,100,-1
 1599 -285 l 1,101,-1
 1599 -398 l 1,102,-1
 1321 -398 l 1,99,-1
922 -398 m 1,103,-1
 922 -285 l 1,104,-1
 1199 -285 l 1,105,-1
 1199 -398 l 1,106,-1
 922 -398 l 1,103,-1
523 -398 m 1,107,-1
 523 -285 l 1,108,-1
 799 -285 l 1,109,-1
 799 -398 l 1,110,-1
 523 -398 l 1,107,-1
987 566 m 1,111,-1
 1080 566 l 2,112,113
 1198 566 1198 566 1198 646 c 0,114,115
 1198 687 1198 687 1169 702 c 128,-1,116
 1140 717 1140 717 1080 717 c 2,117,-1
 987 717 l 1,118,-1
 987 566 l 1,111,-1
204 416 m 1,119,-1
 91 416 l 1,120,-1
 91 668 l 1,121,-1
 204 668 l 1,122,-1
 204 416 l 1,119,-1
204 794 m 1,123,-1
 91 794 l 1,124,-1
 91 1044 l 1,125,-1
 204 1044 l 1,126,-1
 204 794 l 1,123,-1
204 41 m 1,127,-1
 91 41 l 1,128,-1
 91 290 l 1,129,-1
 204 290 l 1,130,-1
 204 41 l 1,127,-1
2030 416 m 1,131,-1
 1919 416 l 1,132,-1
 1919 668 l 1,133,-1
 2030 668 l 1,134,-1
 2030 416 l 1,131,-1
2030 794 m 1,135,-1
 1919 794 l 1,136,-1
 1919 1044 l 1,137,-1
 2030 1044 l 1,138,-1
 2030 794 l 1,135,-1
2030 41 m 1,139,-1
 1919 41 l 1,140,-1
 1919 290 l 1,141,-1
 2030 290 l 1,142,-1
 2030 41 l 1,139,-1
EndSplineSet
EndChar

StartChar: uniFFFD
Encoding: 65533 65533 362
Width: 2101
GlyphClass: 2
Flags: W
LayerCount: 2
Fore
SplineSet
1048 1618 m 1,0,-1
 2007 643 l 1,1,-1
 1048 -332 l 1,2,-1
 92 643 l 1,3,-1
 1048 1618 l 1,0,-1
1131 402 m 1,4,5
 1131 460 1131 460 1146 489 c 128,-1,6
 1161 518 1161 518 1197 542 c 1,7,8
 1271 581 1271 581 1317 648.5 c 128,-1,9
 1363 716 1363 716 1363 790 c 0,10,11
 1363 918 1363 918 1279.5 993.5 c 128,-1,12
 1196 1069 1196 1069 1047 1069 c 0,13,14
 903 1069 903 1069 823 999.5 c 128,-1,15
 743 930 743 930 741 803 c 1,16,-1
 944 803 l 1,17,18
 946 854 946 854 975 880 c 128,-1,19
 1004 906 1004 906 1047 906 c 0,20,21
 1104 906 1104 906 1132 874 c 128,-1,22
 1160 842 1160 842 1160 790 c 0,23,24
 1160 695 1160 695 1067 635 c 1,25,26
 976 570 976 570 952.5 524 c 128,-1,27
 929 478 929 478 929 402 c 1,28,-1
 1131 402 l 1,4,5
1131 311 m 1,29,-1
 929 311 l 1,30,-1
 929 141 l 1,31,-1
 1131 141 l 1,32,-1
 1131 311 l 1,29,-1
1056 -551 m 1,33,-1
 1060 -551 l 1,34,-1
 1060 -555 l 1,35,-1
 1056 -555 l 1,36,-1
 1056 -551 l 1,33,-1
1054 2163 m 1,37,-1
 1058 2163 l 1,38,-1
 1058 2159 l 1,39,-1
 1054 2159 l 1,40,-1
 1054 2163 l 1,37,-1
EndSplineSet
EndChar

StartChar: NameMe.302
Encoding: 65541 -1 365
Width: 525
GlyphClass: 2
Flags: W
LayerCount: 2
Fore
SplineSet
271 123 m 1,0,1
 235 52 235 52 174.5 26 c 128,-1,2
 114 0 114 0 22 0 c 2,3,-1
 -19 0 l 1,4,-1
 -19 180 l 1,5,-1
 24 180 l 2,6,7
 102 180 102 180 136.5 207.5 c 128,-1,8
 171 235 171 235 179.5 290.5 c 128,-1,9
 188 346 188 346 188 429 c 2,10,-1
 188 1049 l 1,11,-1
 357 1049 l 1,12,-1
 357 429 l 2,13,14
 357 346 357 346 364.5 290.5 c 128,-1,15
 372 235 372 235 403 207.5 c 128,-1,16
 434 180 434 180 502 180 c 2,17,-1
 544 180 l 1,18,-1
 544 0 l 1,19,-1
 505 0 l 2,20,21
 417 0 417 0 362.5 26.5 c 128,-1,22
 308 53 308 53 271 123 c 1,0,1
EndSplineSet
EndChar

StartChar: NameMe.303
Encoding: 65542 -1 366
Width: 487
GlyphClass: 2
Flags: W
LayerCount: 2
Fore
SplineSet
-19 0 m 1,0,-1
 -19 180 l 1,1,-1
 11 180 l 2,2,3
 110 180 110 180 140 238.5 c 128,-1,4
 170 297 170 297 170 403 c 2,5,-1
 170 1202 l 1,6,-1
 339 1202 l 1,7,-1
 339 405 l 2,8,9
 339 212 339 212 268 106 c 128,-1,10
 197 0 197 0 10 0 c 2,11,-1
 -19 0 l 1,0,-1
EndSplineSet
EndChar

StartChar: NameMe.65564
Encoding: 65543 -1 367
Width: 527
GlyphClass: 2
Flags: W
LayerCount: 2
Fore
SplineSet
546 0 m 1,0,-1
 522 0 l 2,1,2
 339 0 339 0 243.5 93.5 c 128,-1,3
 148 187 148 187 148 404 c 2,4,-1
 148 1167 l 1,5,-1
 317 1167 l 1,6,-1
 317 404 l 2,7,8
 317 277 317 277 370 228.5 c 128,-1,9
 423 180 423 180 522 180 c 2,10,-1
 546 180 l 1,11,-1
 546 0 l 1,0,-1
EndSplineSet
EndChar

StartChar: NameMe.65565
Encoding: 65544 -1 368
Width: 687
GlyphClass: 2
Flags: W
LayerCount: 2
Fore
SplineSet
129 -276 m 1,0,1
 156 -289 156 -289 189.5 -297 c 128,-1,2
 223 -305 223 -305 266 -305 c 0,3,4
 325 -305 325 -305 380.5 -288.5 c 128,-1,5
 436 -272 436 -272 472 -241 c 128,-1,6
 508 -210 508 -210 508 -167 c 0,7,8
 508 -153 508 -153 494 -148 c 128,-1,9
 480 -143 480 -143 463 -143 c 2,10,-1
 391 -143 l 2,11,12
 263 -143 263 -143 263 -15 c 0,13,14
 263 54 263 54 296.5 105 c 128,-1,15
 330 156 330 156 384.5 184 c 128,-1,16
 439 212 439 212 500 212 c 0,17,18
 515 212 515 212 542 208.5 c 128,-1,19
 569 205 569 205 596 194 c 1,20,-1
 578 103 l 1,21,22
 557 110 557 110 536.5 112.5 c 128,-1,23
 516 115 516 115 500 115 c 0,24,25
 436 115 436 115 397 75.5 c 128,-1,26
 358 36 358 36 358 -8 c 0,27,28
 358 -29 358 -29 364.5 -37 c 128,-1,29
 371 -45 371 -45 396 -45 c 2,30,-1
 486 -45 l 2,31,32
 541 -45 541 -45 570 -74 c 128,-1,33
 599 -103 599 -103 599 -147 c 0,34,35
 599 -270 599 -270 505.5 -335.5 c 128,-1,36
 412 -401 412 -401 264 -401 c 0,37,38
 211 -401 211 -401 166.5 -391.5 c 128,-1,39
 122 -382 122 -382 86 -366 c 1,40,-1
 129 -276 l 1,0,1
EndSplineSet
EndChar

StartChar: NameMe.65583
Encoding: 65546 -1 370
Width: 465
GlyphClass: 4
Flags: W
AnchorPoint: "Anchor-4" 266 1673 basemark 0
AnchorPoint: "Anchor-4" 243 1210 mark 0
AnchorPoint: "Anchor-2" 243 1210 mark 0
AnchorPoint: "Anchor-1" 243 1210 mark 0
LayerCount: 2
Fore
SplineSet
-45 1315 m 1,0,-1
 -28 1397 l 1,1,2
 -15 1386 -15 1386 6 1369.5 c 128,-1,3
 27 1353 27 1353 45 1346 c 1,4,5
 125 1481 125 1481 189.5 1539.5 c 128,-1,6
 254 1598 254 1598 333 1598 c 0,7,8
 413 1598 413 1598 462.5 1549 c 128,-1,9
 512 1500 512 1500 512 1426 c 0,10,11
 512 1327 512 1327 443 1287.5 c 128,-1,12
 374 1248 374 1248 204 1248 c 2,13,-1
 180 1248 l 2,14,15
 -3 1248 -3 1248 -45 1315 c 1,0,-1
202 1333 m 2,16,17
 330 1333 330 1333 379.5 1350 c 128,-1,18
 429 1367 429 1367 429 1422 c 0,19,20
 429 1460 429 1460 403.5 1486 c 128,-1,21
 378 1512 378 1512 337 1512 c 0,22,23
 283 1512 283 1512 239.5 1471.5 c 128,-1,24
 196 1431 196 1431 133 1333 c 1,25,-1
 202 1333 l 2,16,17
EndSplineSet
EndChar

StartChar: NameMe.65587
Encoding: 65547 -1 371
Width: 504
GlyphClass: 2
Flags: W
LayerCount: 2
Fore
SplineSet
104 264 m 1,0,-1
 244 404 l 1,1,-1
 385 264 l 1,2,-1
 244 122 l 1,3,-1
 104 264 l 1,0,-1
104 -38 m 1,4,-1
 244 102 l 1,5,-1
 385 -38 l 1,6,-1
 244 -180 l 1,7,-1
 104 -38 l 1,4,-1
EndSplineSet
EndChar

StartChar: NameMe.65623
Encoding: 65548 -1 372
Width: 1831
GlyphClass: 2
Flags: W
LayerCount: 2
Fore
SplineSet
733 583 m 1,0,1
 801 584 801 584 867 589.5 c 128,-1,2
 933 595 933 595 976.5 611 c 128,-1,3
 1020 627 1020 627 1020 660 c 0,4,5
 1020 704 1020 704 992.5 720.5 c 128,-1,6
 965 737 965 737 924.5 742.5 c 128,-1,7
 884 748 884 748 843.5 757 c 128,-1,8
 803 766 803 766 775.5 795 c 128,-1,9
 748 824 748 824 748 889 c 0,10,11
 748 957 748 957 798 997.5 c 128,-1,12
 848 1038 848 1038 926 1056.5 c 128,-1,13
 1004 1075 1004 1075 1087 1075 c 1,14,-1
 1087 970 l 1,15,16
 1039 967 1039 967 984 958.5 c 128,-1,17
 929 950 929 950 889.5 933 c 128,-1,18
 850 916 850 916 850 888 c 0,19,20
 850 864 850 864 877 855.5 c 128,-1,21
 904 847 904 847 944 841.5 c 128,-1,22
 984 836 984 836 1024 821 c 128,-1,23
 1064 806 1064 806 1091 770 c 128,-1,24
 1118 734 1118 734 1118 664 c 0,25,26
 1118 577 1118 577 1061.5 538 c 128,-1,27
 1005 499 1005 499 917 489.5 c 128,-1,28
 829 480 829 480 733 479 c 1,29,-1
 733 583 l 1,0,1
EndSplineSet
EndChar

StartChar: NameMe.65635
Encoding: 65549 -1 373
Width: 286
GlyphClass: 2
Flags: W
AnchorPoint: "Anchor-2" 144 870 basechar 0
AnchorPoint: "Anchor-0" 148 -237 basechar 0
LayerCount: 2
Fore
SplineSet
-20 0 m 1,0,-1
 -20 180 l 1,1,-1
 306 180 l 1,2,-1
 306 0 l 1,3,-1
 -20 0 l 1,0,-1
EndSplineSet
EndChar

StartChar: arabic_2dots
Encoding: 65550 -1 374
Width: 504
GlyphClass: 2
Flags: W
LayerCount: 2
Fore
SplineSet
271 98 m 1,0,-1
 411 238 l 1,1,-1
 552 98 l 1,2,-1
 411 -44 l 1,3,-1
 271 98 l 1,0,-1
-61 98 m 1,4,-1
 79 238 l 1,5,-1
 220 98 l 1,6,-1
 79 -44 l 1,7,-1
 -61 98 l 1,4,-1
EndSplineSet
EndChar

StartChar: arabic_3dots
Encoding: 65551 -1 375
Width: 504
GlyphClass: 2
Flags: W
LayerCount: 2
Fore
SplineSet
111 325 m 1,0,-1
 243 457 l 1,1,-1
 376 325 l 1,2,-1
 243 192 l 1,3,-1
 111 325 l 1,0,-1
283 63 m 1,4,-1
 415 195 l 1,5,-1
 548 63 l 1,6,-1
 415 -70 l 1,7,-1
 283 63 l 1,4,-1
-57 63 m 1,8,-1
 75 195 l 1,9,-1
 208 63 l 1,10,-1
 75 -70 l 1,11,-1
 -57 63 l 1,8,-1
EndSplineSet
EndChar

StartChar: arabic_3dots_a
Encoding: 65552 -1 376
Width: 504
GlyphClass: 2
Flags: W
LayerCount: 2
Fore
SplineSet
284 128 m 1,0,-1
 416 261 l 1,1,-1
 549 128 l 1,2,-1
 416 -4 l 1,3,-1
 284 128 l 1,0,-1
-56 128 m 1,4,-1
 76 261 l 1,5,-1
 209 128 l 1,6,-1
 76 -4 l 1,7,-1
 -56 128 l 1,4,-1
112 -134 m 1,8,-1
 244 -1 l 1,9,-1
 377 -134 l 1,10,-1
 244 -266 l 1,11,-1
 112 -134 l 1,8,-1
EndSplineSet
EndChar

StartChar: arabic_dot
Encoding: 65553 -1 377
Width: 189
GlyphClass: 2
Flags: W
LayerCount: 2
Fore
SplineSet
-54 98 m 1,0,-1
 92 243 l 1,1,-1
 238 98 l 1,2,-1
 92 -48 l 1,3,-1
 -54 98 l 1,0,-1
EndSplineSet
EndChar

StartChar: arabic_gaf_bar
Encoding: 65554 -1 378
Width: 751
GlyphClass: 2
Flags: W
LayerCount: 2
Fore
SplineSet
735 1831 m 1,0,-1
 8 1561 l 1,1,-1
 8 1662 l 1,2,-1
 735 1932 l 1,3,-1
 735 1831 l 1,0,-1
EndSplineSet
EndChar

StartChar: uni066E.fina
Encoding: 65568 -1 392
Width: 1878
GlyphClass: 2
Flags: W
AnchorPoint: "Anchor-2" 909 978 basechar 0
AnchorPoint: "Anchor-0" 899 -243 basechar 0
LayerCount: 2
Fore
SplineSet
985 0 m 2,0,-1
 840 0 l 2,1,2
 481 0 481 0 289.5 121.5 c 128,-1,3
 98 243 98 243 98 484 c 0,4,5
 98 551 98 551 112.5 615 c 128,-1,6
 127 679 127 679 152 738 c 1,7,-1
 305 681 l 1,8,9
 289 639 289 639 281 591 c 128,-1,10
 273 543 273 543 273 499 c 0,11,12
 274 334 274 334 414 257 c 128,-1,13
 554 180 554 180 830 180 c 2,14,-1
 980 180 l 2,15,16
 1173 180 1173 180 1299 211.5 c 128,-1,17
 1425 243 1425 243 1480 309 c 0,18,19
 1497 329 1497 329 1506 359 c 128,-1,20
 1515 389 1515 389 1515 432 c 0,21,22
 1515 472 1515 472 1512.5 511.5 c 128,-1,23
 1510 551 1510 551 1508 588 c 1,24,-1
 1669 608 l 1,25,-1
 1685 360 l 2,26,27
 1691 270 1691 270 1736 225 c 128,-1,28
 1781 180 1781 180 1873 180 c 2,29,-1
 1898 180 l 1,30,-1
 1898 0 l 1,31,-1
 1873 0 l 2,32,33
 1766 0 1766 0 1693.5 45 c 128,-1,34
 1621 90 1621 90 1576 178 c 1,35,36
 1491 88 1491 88 1339.5 44 c 128,-1,37
 1188 0 1188 0 985 0 c 2,0,-1
EndSplineSet
EndChar

StartChar: uni066E.init
Encoding: 65569 -1 393
Width: 672
GlyphClass: 2
Flags: W
AnchorPoint: "Anchor-2" 351 1127 basechar 0
AnchorPoint: "Anchor-0" 303 -226 basechar 0
LayerCount: 2
Fore
SplineSet
530 738 m 1,0,1
 553 660 553 660 563.5 574.5 c 128,-1,2
 574 489 574 489 574 416 c 0,3,4
 574 195 574 195 465.5 97.5 c 128,-1,5
 357 0 357 0 129 0 c 2,6,-1
 -20 0 l 1,7,-1
 -20 180 l 1,8,-1
 129 180 l 2,9,10
 228 180 228 180 288 198 c 128,-1,11
 348 216 348 216 375.5 266 c 128,-1,12
 403 316 403 316 403 413 c 0,13,14
 403 472 403 472 393 549.5 c 128,-1,15
 383 627 383 627 366 698 c 1,16,-1
 530 738 l 1,0,1
EndSplineSet
EndChar

StartChar: uni066E.init.compact
Encoding: 65570 -1 394
Width: 592
GlyphClass: 2
Flags: W
AnchorPoint: "Anchor-2" 285 1159 basechar 0
AnchorPoint: "Anchor-0" 253 -226 basechar 0
LayerCount: 2
Fore
SplineSet
494 416 m 0,0,1
 494 215 494 215 395 107.5 c 128,-1,2
 296 0 296 0 99 0 c 2,3,-1
 -20 0 l 1,4,-1
 -20 180 l 1,5,-1
 99 180 l 2,6,7
 215 180 215 180 269 233.5 c 128,-1,8
 323 287 323 287 323 413 c 0,9,10
 323 472 323 472 313 549.5 c 128,-1,11
 303 627 303 627 286 698 c 1,12,-1
 450 738 l 1,13,14
 473 660 473 660 483.5 574.5 c 128,-1,15
 494 489 494 489 494 416 c 0,0,1
EndSplineSet
EndChar

StartChar: uni066E.medi
Encoding: 65571 -1 395
Width: 767
GlyphClass: 2
Flags: W
AnchorPoint: "Anchor-2" 428 1007 basechar 0
AnchorPoint: "Anchor-0" 381 -180 basechar 0
LayerCount: 2
Fore
SplineSet
787 0 m 1,0,-1
 763 0 l 2,1,2
 659 0 659 0 595 36.5 c 128,-1,3
 531 73 531 73 493 143 c 1,4,5
 442 72 442 72 348.5 36 c 128,-1,6
 255 0 255 0 129 0 c 2,7,-1
 -20 0 l 1,8,-1
 -20 180 l 1,9,-1
 131 180 l 2,10,11
 280 180 280 180 341 223.5 c 128,-1,12
 402 267 402 267 403 387 c 0,13,14
 403 436 403 436 400.5 489 c 128,-1,15
 398 542 398 542 395 589 c 1,16,-1
 559 608 l 1,17,-1
 575 361 l 2,18,19
 587 180 587 180 765 180 c 2,20,-1
 787 180 l 1,21,-1
 787 0 l 1,0,-1
EndSplineSet
EndChar

StartChar: uni066E.medi.compact
Encoding: 65572 -1 396
Width: 687
GlyphClass: 2
Flags: W
AnchorPoint: "Anchor-2" 338 1013 basechar 0
AnchorPoint: "Anchor-0" 321 -180 basechar 0
LayerCount: 2
Fore
SplineSet
707 0 m 1,0,-1
 683 0 l 2,1,2
 582 0 582 0 516 36.5 c 128,-1,3
 450 73 450 73 412 143 c 1,4,5
 361 73 361 73 281 36.5 c 128,-1,6
 201 0 201 0 101 0 c 2,7,-1
 -20 0 l 1,8,-1
 -20 180 l 1,9,-1
 101 180 l 2,10,11
 221 180 221 180 272 232.5 c 128,-1,12
 323 285 323 285 323 397 c 0,13,14
 323 444 323 444 320 493 c 128,-1,15
 317 542 317 542 315 588 c 1,16,-1
 479 608 l 1,17,-1
 495 362 l 2,18,19
 507 180 507 180 685 180 c 2,20,-1
 707 180 l 1,21,-1
 707 0 l 1,0,-1
EndSplineSet
EndChar

StartChar: uni066F.fina
Encoding: 65573 -1 397
Width: 1444
GlyphClass: 2
Flags: W
AnchorPoint: "Anchor-2" 966 983 basechar 0
AnchorPoint: "Anchor-0" 714 -698 basechar 0
LayerCount: 2
Fore
SplineSet
1174 0 m 1,0,-1
 1027 0 l 2,1,2
 663 0 663 0 663 296 c 0,3,4
 663 395 663 395 698.5 490.5 c 128,-1,5
 734 586 734 586 807 649 c 128,-1,6
 880 712 880 712 992 712 c 0,7,8
 1149 712 1149 712 1237.5 581.5 c 128,-1,9
 1326 451 1326 451 1344 180 c 1,10,-1
 1464 180 l 1,11,-1
 1464 0 l 1,12,-1
 1332 0 l 1,13,14
 1302 -259 1302 -259 1161 -389.5 c 128,-1,15
 1020 -520 1020 -520 721 -520 c 256,16,17
 422 -520 422 -520 260 -372 c 128,-1,18
 98 -224 98 -224 98 56 c 0,19,20
 98 266 98 266 188 485 c 1,21,-1
 343 422 l 1,22,23
 270 229 270 229 270 61 c 0,24,25
 270 -143 270 -143 378 -242.5 c 128,-1,26
 486 -342 486 -342 718 -342 c 0,27,28
 951 -342 951 -342 1054.5 -258 c 128,-1,29
 1158 -174 1158 -174 1174 0 c 1,0,-1
1181 180 m 1,30,31
 1170 363 1170 363 1121 449 c 128,-1,32
 1072 535 1072 535 983 535 c 0,33,34
 923 535 923 535 889.5 494 c 128,-1,35
 856 453 856 453 842 398.5 c 128,-1,36
 828 344 828 344 828 301 c 0,37,38
 828 236 828 236 872 208 c 128,-1,39
 916 180 916 180 1017 180 c 2,40,-1
 1181 180 l 1,30,31
EndSplineSet
EndChar

StartChar: uni06A1.fina
Encoding: 65592 -1 416
Width: 1962
GlyphClass: 2
Flags: W
AnchorPoint: "Anchor-2" 1462 1208 basechar 0
AnchorPoint: "Anchor-0" 920 -268 basechar 0
LayerCount: 2
Fore
SplineSet
1328 195 m 1,0,1
 1251 272 1251 272 1206 341 c 128,-1,2
 1161 410 1161 410 1161 496 c 0,3,4
 1161 548 1161 548 1188.5 610 c 128,-1,5
 1216 672 1216 672 1263.5 728 c 128,-1,6
 1311 784 1311 784 1372.5 820 c 128,-1,7
 1434 856 1434 856 1502 856 c 0,8,9
 1574 856 1574 856 1637.5 823 c 128,-1,10
 1701 790 1701 790 1749.5 737 c 128,-1,11
 1798 684 1798 684 1826 624.5 c 128,-1,12
 1854 565 1854 565 1854 511 c 0,13,14
 1854 424 1854 424 1808 347.5 c 128,-1,15
 1762 271 1762 271 1684 194 c 1,16,17
 1731 185 1731 185 1793.5 182.5 c 128,-1,18
 1856 180 1856 180 1888 180 c 2,19,-1
 1982 180 l 1,20,-1
 1982 0 l 1,21,-1
 1890 0 l 2,22,23
 1806 0 1806 0 1710 12.5 c 128,-1,24
 1614 25 1614 25 1503 79 c 1,25,26
 1354 20 1354 20 1219 10 c 128,-1,27
 1084 0 1084 0 965 0 c 2,28,-1
 840 0 l 2,29,30
 481 0 481 0 289.5 121.5 c 128,-1,31
 98 243 98 243 98 484 c 0,32,33
 98 551 98 551 112.5 615 c 128,-1,34
 127 679 127 679 152 738 c 1,35,-1
 305 681 l 1,36,37
 289 639 289 639 281 591 c 128,-1,38
 273 543 273 543 273 499 c 0,39,40
 274 334 274 334 414 257 c 128,-1,41
 554 180 554 180 830 180 c 2,42,-1
 960 180 l 2,43,44
 1057 180 1057 180 1115.5 181 c 128,-1,45
 1174 182 1174 182 1209 183.5 c 128,-1,46
 1244 185 1244 185 1270 188 c 128,-1,47
 1296 191 1296 191 1328 195 c 1,0,1
1501 681 m 0,48,49
 1469 681 1469 681 1428.5 647 c 128,-1,50
 1388 613 1388 613 1358.5 568.5 c 128,-1,51
 1329 524 1329 524 1329 490 c 0,52,53
 1329 458 1329 458 1358.5 413.5 c 128,-1,54
 1388 369 1388 369 1429.5 327 c 128,-1,55
 1471 285 1471 285 1506 260 c 1,56,57
 1544 285 1544 285 1585.5 328 c 128,-1,58
 1627 371 1627 371 1656 417.5 c 128,-1,59
 1685 464 1685 464 1685 498 c 0,60,61
 1685 526 1685 526 1656.5 569.5 c 128,-1,62
 1628 613 1628 613 1585.5 647 c 128,-1,63
 1543 681 1543 681 1501 681 c 0,48,49
EndSplineSet
EndChar

StartChar: uni06A1.init
Encoding: 65593 -1 417
Width: 918
GlyphClass: 2
Flags: W
AnchorPoint: "Anchor-2" 447 1340 basechar 0
AnchorPoint: "Anchor-0" 368 -247 basechar 0
LayerCount: 2
Fore
SplineSet
667 391 m 1,0,1
 572 362 572 362 466 362 c 0,2,3
 139 362 139 362 139 631 c 0,4,5
 139 727 139 727 171.5 822 c 128,-1,6
 204 917 204 917 276 979.5 c 128,-1,7
 348 1042 348 1042 466 1042 c 0,8,9
 560 1042 560 1042 627.5 994 c 128,-1,10
 695 946 695 946 737.5 863.5 c 128,-1,11
 780 781 780 781 800 677 c 128,-1,12
 820 573 820 573 820 462 c 0,13,14
 820 271 820 271 764 171.5 c 128,-1,15
 708 72 708 72 586 36 c 128,-1,16
 464 0 464 0 265 0 c 2,17,-1
 -20 0 l 1,18,-1
 -20 180 l 1,19,-1
 276 180 l 2,20,21
 464 180 464 180 565 220.5 c 128,-1,22
 666 261 666 261 667 391 c 1,0,1
651 559 m 1,23,24
 643 627 643 627 622.5 698 c 128,-1,25
 602 769 602 769 563 817.5 c 128,-1,26
 524 866 524 866 459 866 c 0,27,28
 402 866 402 866 367 827 c 128,-1,29
 332 788 332 788 316 735 c 128,-1,30
 300 682 300 682 300 638 c 0,31,32
 300 574 300 574 345.5 553 c 128,-1,33
 391 532 391 532 479 532 c 0,34,35
 522 532 522 532 565 539 c 128,-1,36
 608 546 608 546 651 559 c 1,23,24
EndSplineSet
EndChar

StartChar: uni06A1.medi
Encoding: 65594 -1 418
Width: 972
GlyphClass: 2
Flags: W
AnchorPoint: "Anchor-2" 509 1174 basechar 0
AnchorPoint: "Anchor-0" 508 -247 basechar 0
LayerCount: 2
Fore
SplineSet
694 194 m 1,0,1
 741 185 741 185 803.5 182.5 c 128,-1,2
 866 180 866 180 898 180 c 2,3,-1
 992 180 l 1,4,-1
 992 0 l 1,5,-1
 900 0 l 2,6,7
 816 0 816 0 720 12.5 c 128,-1,8
 624 25 624 25 513 79 c 1,9,10
 401 24 401 24 302 12 c 128,-1,11
 203 0 203 0 114 0 c 2,12,-1
 -20 0 l 1,13,-1
 -20 180 l 1,14,-1
 114 180 l 2,15,16
 154 180 154 180 221.5 183 c 128,-1,17
 289 186 289 186 338 195 c 1,18,19
 261 272 261 272 216 341 c 128,-1,20
 171 410 171 410 171 496 c 0,21,22
 171 548 171 548 198.5 610 c 128,-1,23
 226 672 226 672 273.5 728 c 128,-1,24
 321 784 321 784 382.5 820 c 128,-1,25
 444 856 444 856 512 856 c 0,26,27
 584 856 584 856 647.5 823 c 128,-1,28
 711 790 711 790 759.5 737 c 128,-1,29
 808 684 808 684 836 624.5 c 128,-1,30
 864 565 864 565 864 511 c 0,31,32
 864 424 864 424 818 347.5 c 128,-1,33
 772 271 772 271 694 194 c 1,0,1
511 681 m 0,34,35
 479 681 479 681 438.5 647 c 128,-1,36
 398 613 398 613 368.5 568.5 c 128,-1,37
 339 524 339 524 339 490 c 0,38,39
 339 458 339 458 368.5 413.5 c 128,-1,40
 398 369 398 369 439.5 327 c 128,-1,41
 481 285 481 285 516 260 c 1,42,43
 554 285 554 285 595.5 328 c 128,-1,44
 637 371 637 371 666 417.5 c 128,-1,45
 695 464 695 464 695 498 c 0,46,47
 695 526 695 526 666.5 569.5 c 128,-1,48
 638 613 638 613 595.5 647 c 128,-1,49
 553 681 553 681 511 681 c 0,34,35
EndSplineSet
EndChar

StartChar: uni06AA.fina
Encoding: 65595 -1 419
Width: 2083
GlyphClass: 2
Flags: W
AnchorPoint: "Anchor-2" 734 1019 basechar 0
AnchorPoint: "Anchor-0" 1000 -226 basechar 0
LayerCount: 2
Fore
SplineSet
1191 0 m 2,0,-1
 840 0 l 2,1,2
 808 0 808 0 729 1 c 128,-1,3
 650 2 650 2 543 8 c 128,-1,4
 436 14 436 14 318.5 27 c 128,-1,5
 201 40 201 40 93 64 c 1,6,-1
 146 219 l 1,7,8
 279 201 279 201 410.5 193 c 128,-1,9
 542 185 542 185 652 182.5 c 128,-1,10
 762 180 762 180 830 180 c 2,11,-1
 1190 180 l 2,12,13
 1293 180 1293 180 1391.5 185 c 128,-1,14
 1490 190 1490 190 1569 204.5 c 128,-1,15
 1648 219 1648 219 1694.5 248 c 128,-1,16
 1741 277 1741 277 1741 325 c 0,17,18
 1741 369 1741 369 1671.5 398.5 c 128,-1,19
 1602 428 1602 428 1481 443.5 c 128,-1,20
 1360 459 1360 459 1204 459 c 2,21,-1
 836 459 l 2,22,23
 742 459 742 459 678 489.5 c 128,-1,24
 614 520 614 520 614 619 c 0,25,26
 614 663 614 663 645.5 704 c 128,-1,27
 677 745 677 745 718 779 c 0,28,29
 790 838 790 838 908.5 906.5 c 128,-1,30
 1027 975 1027 975 1171 1040.5 c 128,-1,31
 1315 1106 1315 1106 1462 1156 c 1,32,-1
 1462 985 l 1,33,34
 1272 924 1272 924 1105.5 835.5 c 128,-1,35
 939 747 939 747 787 635 c 1,36,-1
 1209 635 l 2,37,38
 1541 635 1541 635 1726.5 556 c 128,-1,39
 1912 477 1912 477 1912 322 c 0,40,41
 1912 296 1912 296 1904.5 267.5 c 128,-1,42
 1897 239 1897 239 1887 218 c 1,43,44
 1918 192 1918 192 1964.5 186 c 128,-1,45
 2011 180 2011 180 2054 180 c 2,46,-1
 2103 180 l 1,47,-1
 2103 0 l 1,48,-1
 2054 0 l 2,49,50
 1944 0 1944 0 1875.5 31 c 128,-1,51
 1807 62 1807 62 1760 99 c 1,52,53
 1660 46 1660 46 1511.5 23 c 128,-1,54
 1363 0 1363 0 1191 0 c 2,0,-1
EndSplineSet
EndChar

StartChar: uni06AA.init
Encoding: 65596 -1 420
Width: 1550
GlyphClass: 2
Flags: W
AnchorPoint: "Anchor-2" 312 1030 basechar 0
AnchorPoint: "Anchor-0" 775 -234 basechar 0
LayerCount: 2
Fore
SplineSet
730 180 m 2,0,1
 833 180 833 180 931.5 185 c 128,-1,2
 1030 190 1030 190 1109 204.5 c 128,-1,3
 1188 219 1188 219 1234.5 248 c 128,-1,4
 1281 277 1281 277 1281 325 c 0,5,6
 1281 369 1281 369 1211.5 398.5 c 128,-1,7
 1142 428 1142 428 1021 443.5 c 128,-1,8
 900 459 900 459 744 459 c 2,9,-1
 376 459 l 2,10,11
 313 462 313 462 263 474 c 128,-1,12
 213 486 213 486 183.5 519.5 c 128,-1,13
 154 553 154 553 154 619 c 0,14,15
 154 663 154 663 185.5 704 c 128,-1,16
 217 745 217 745 258 779 c 0,17,18
 330 838 330 838 448.5 906.5 c 128,-1,19
 567 975 567 975 711 1040.5 c 128,-1,20
 855 1106 855 1106 1002 1156 c 1,21,-1
 1002 985 l 1,22,23
 812 924 812 924 645.5 835.5 c 128,-1,24
 479 747 479 747 327 635 c 1,25,-1
 749 635 l 2,26,27
 1081 635 1081 635 1266.5 556 c 128,-1,28
 1452 477 1452 477 1452 322 c 0,29,30
 1452 232 1452 232 1395.5 170.5 c 128,-1,31
 1339 109 1339 109 1239 71.5 c 128,-1,32
 1139 34 1139 34 1008.5 17 c 128,-1,33
 878 0 878 0 731 0 c 2,34,-1
 -20 0 l 1,35,-1
 -20 180 l 1,36,-1
 730 180 l 2,0,1
EndSplineSet
EndChar

StartChar: uni06AA.medi
Encoding: 65597 -1 421
Width: 1623
GlyphClass: 2
Flags: W
AnchorPoint: "Anchor-2" 312 1030 basechar 0
AnchorPoint: "Anchor-0" 775 -234 basechar 0
LayerCount: 2
Fore
SplineSet
1300 99 m 1,0,1
 1200 46 1200 46 1051.5 23 c 128,-1,2
 903 0 903 0 731 0 c 2,3,-1
 -20 0 l 1,4,-1
 -20 180 l 1,5,-1
 730 180 l 2,6,7
 833 180 833 180 931.5 185 c 128,-1,8
 1030 190 1030 190 1109 204.5 c 128,-1,9
 1188 219 1188 219 1234.5 248 c 128,-1,10
 1281 277 1281 277 1281 325 c 0,11,12
 1281 369 1281 369 1211.5 398.5 c 128,-1,13
 1142 428 1142 428 1021 443.5 c 128,-1,14
 900 459 900 459 744 459 c 2,15,-1
 376 459 l 2,16,17
 282 459 282 459 218 489.5 c 128,-1,18
 154 520 154 520 154 619 c 0,19,20
 154 663 154 663 185.5 704 c 128,-1,21
 217 745 217 745 258 779 c 0,22,23
 330 838 330 838 448.5 906.5 c 128,-1,24
 567 975 567 975 711 1040.5 c 128,-1,25
 855 1106 855 1106 1002 1156 c 1,26,-1
 1002 985 l 1,27,28
 812 924 812 924 645.5 835.5 c 128,-1,29
 479 747 479 747 327 635 c 1,30,-1
 749 635 l 2,31,32
 1081 635 1081 635 1266.5 556 c 128,-1,33
 1452 477 1452 477 1452 322 c 0,34,35
 1452 296 1452 296 1444.5 267.5 c 128,-1,36
 1437 239 1437 239 1427 218 c 1,37,38
 1458 192 1458 192 1504.5 186 c 128,-1,39
 1551 180 1551 180 1594 180 c 2,40,-1
 1643 180 l 1,41,-1
 1643 0 l 1,42,-1
 1594 0 l 2,43,44
 1484 0 1484 0 1415.5 31 c 128,-1,45
 1347 62 1347 62 1300 99 c 1,0,1
EndSplineSet
EndChar

StartChar: uni06CD.compact
Encoding: 65614 -1 438
Width: 1677
GlyphClass: 2
Flags: W
AnchorPoint: "Anchor-2" 922 653 basechar 0
AnchorPoint: "Anchor-0" 959 -698 basechar 0
LayerCount: 2
Fore
SplineSet
564 365 m 1,0,1
 510 215 510 215 510 60 c 0,2,3
 510 -157 510 -157 622.5 -249.5 c 128,-1,4
 735 -342 735 -342 959 -342 c 0,5,6
 1048 -342 1048 -342 1134.5 -324.5 c 128,-1,7
 1221 -307 1221 -307 1291 -275 c 128,-1,8
 1361 -243 1361 -243 1402.5 -200.5 c 128,-1,9
 1444 -158 1444 -158 1444 -107 c 0,10,11
 1444 -63 1444 -63 1402.5 -31.5 c 128,-1,12
 1361 0 1361 0 1280 0 c 2,13,-1
 1157 0 l 2,14,15
 1128 0 1128 0 1113 18 c 128,-1,16
 1098 36 1098 36 1092 62 c 2,17,-1
 1070 154 l 2,18,19
 1064 180 1064 180 1093 180 c 2,20,-1
 1697 180 l 1,21,-1
 1697 0 l 1,22,-1
 1578 0 l 1,23,24
 1598 -41 1598 -41 1602 -67 c 128,-1,25
 1606 -93 1606 -93 1606 -114 c 0,26,27
 1606 -230 1606 -230 1525 -322 c 128,-1,28
 1444 -414 1444 -414 1299 -466.5 c 128,-1,29
 1154 -519 1154 -519 960 -519 c 0,30,31
 663 -519 663 -519 501 -374 c 128,-1,32
 339 -229 339 -229 339 61 c 0,33,34
 339 151 339 151 358 253 c 1,35,-1
 56 133 l 1,36,-1
 92 302 l 1,37,-1
 410 428 l 1,38,-1
 564 365 l 1,0,1
EndSplineSet
EndChar

StartChar: uni06F4.urdu
Encoding: 65625 -1 449
Width: 1246
GlyphClass: 2
Flags: W
LayerCount: 2
Fore
SplineSet
207 1111 m 0,0,1
 207 1206 207 1206 258 1261.5 c 128,-1,2
 309 1317 309 1317 397 1317 c 0,3,4
 507 1317 507 1317 597.5 1259 c 128,-1,5
 688 1201 688 1201 754 1104.5 c 128,-1,6
 820 1008 820 1008 855 892 c 1,7,8
 873 1008 873 1008 909.5 1121.5 c 128,-1,9
 946 1235 946 1235 991 1317 c 1,10,-1
 1146 1233 l 1,11,12
 1073 1133 1073 1133 1026 1009.5 c 128,-1,13
 979 886 979 886 949 709 c 1,14,-1
 786 709 l 1,15,16
 736 847 736 847 673 943.5 c 128,-1,17
 610 1040 610 1040 548 1090.5 c 128,-1,18
 486 1141 486 1141 438 1141 c 0,19,20
 405 1141 405 1141 392 1127.5 c 128,-1,21
 379 1114 379 1114 379 1080 c 0,22,23
 379 1048 379 1048 394 990.5 c 128,-1,24
 409 933 409 933 428 837.5 c 128,-1,25
 447 742 447 742 462 597 c 128,-1,26
 477 452 477 452 477 245 c 2,27,-1
 477 0 l 1,28,-1
 307 0 l 1,29,-1
 307 248 l 2,30,31
 307 454 307 454 292 596 c 128,-1,32
 277 738 277 738 257 834 c 128,-1,33
 237 930 237 930 222 995 c 128,-1,34
 207 1060 207 1060 207 1111 c 0,0,1
EndSplineSet
EndChar

StartChar: uni06F7.urdu
Encoding: 65626 -1 450
Width: 1056
GlyphClass: 2
Flags: W
LayerCount: 2
Fore
SplineSet
110 0 m 1,0,1
 110 131 110 131 165 299 c 128,-1,2
 220 467 220 467 316 647 c 128,-1,3
 412 827 412 827 534.5 997 c 128,-1,4
 657 1167 657 1167 792 1302 c 1,5,-1
 922 1180 l 1,6,7
 792 1059 792 1059 683.5 917.5 c 128,-1,8
 575 776 575 776 493 636 c 128,-1,9
 411 496 411 496 361.5 376.5 c 128,-1,10
 312 257 312 257 300 180 c 1,11,-1
 956 180 l 1,12,-1
 956 0 l 1,13,-1
 110 0 l 1,0,1
EndSplineSet
EndChar

StartChar: uniFBAF.compact
Encoding: 65630 -1 454
Width: 1207
GlyphClass: 2
Flags: W
AnchorPoint: "Anchor-2" 757 519 basechar 0
AnchorPoint: "Anchor-0" 803 -632 basechar 0
LayerCount: 2
Fore
SplineSet
656 0 m 2,0,1
 576 0 576 0 506.5 -22 c 128,-1,2
 437 -44 437 -44 384 -75 c 128,-1,3
 331 -106 331 -106 301 -133.5 c 128,-1,4
 271 -161 271 -161 271 -171 c 0,5,6
 271 -210 271 -210 347.5 -239 c 128,-1,7
 424 -268 424 -268 546.5 -284 c 128,-1,8
 669 -300 669 -300 808 -300 c 0,9,10
 1049 -300 1049 -300 1177.5 -274 c 128,-1,11
 1306 -248 1306 -248 1360 -232 c 1,12,-1
 1398 -398 l 1,13,14
 1295 -424 1295 -424 1155 -446.5 c 128,-1,15
 1015 -469 1015 -469 810 -469 c 0,16,17
 692 -469 692 -469 567 -459 c 128,-1,18
 442 -449 442 -449 335.5 -419.5 c 128,-1,19
 229 -390 229 -390 163.5 -334 c 128,-1,20
 98 -278 98 -278 98 -187 c 0,21,22
 98 -128 98 -128 145.5 -64.5 c 128,-1,23
 193 -1 193 -1 273.5 55 c 128,-1,24
 354 111 354 111 454.5 145.5 c 128,-1,25
 555 180 555 180 660 180 c 2,26,-1
 1227 180 l 1,27,-1
 1227 0 l 1,28,-1
 656 0 l 2,0,1
EndSplineSet
EndChar

StartChar: uniFBFD.compact
Encoding: 65632 -1 456
Width: 1437
GlyphClass: 2
Flags: W
AnchorPoint: "Anchor-2" 682 653 basechar 0
AnchorPoint: "Anchor-0" 719 -698 basechar 0
LayerCount: 2
Fore
SplineSet
324 365 m 1,0,1
 270 215 270 215 270 60 c 0,2,3
 270 -157 270 -157 382.5 -249.5 c 128,-1,4
 495 -342 495 -342 719 -342 c 0,5,6
 808 -342 808 -342 894.5 -324.5 c 128,-1,7
 981 -307 981 -307 1051 -275 c 128,-1,8
 1121 -243 1121 -243 1162.5 -200.5 c 128,-1,9
 1204 -158 1204 -158 1204 -107 c 0,10,11
 1204 -63 1204 -63 1162.5 -31.5 c 128,-1,12
 1121 0 1121 0 1040 0 c 2,13,-1
 917 0 l 2,14,15
 888 0 888 0 873 18 c 128,-1,16
 858 36 858 36 852 62 c 2,17,-1
 830 154 l 2,18,19
 824 180 824 180 853 180 c 2,20,-1
 1457 180 l 1,21,-1
 1457 0 l 1,22,-1
 1338 0 l 1,23,24
 1358 -41 1358 -41 1362 -67 c 128,-1,25
 1366 -93 1366 -93 1366 -114 c 0,26,27
 1366 -230 1366 -230 1285 -322 c 128,-1,28
 1204 -414 1204 -414 1059 -466.5 c 128,-1,29
 914 -519 914 -519 720 -519 c 0,30,31
 423 -519 423 -519 261 -374 c 128,-1,32
 99 -229 99 -229 99 61 c 0,33,34
 99 142 99 142 117 245.5 c 128,-1,35
 135 349 135 349 170 428 c 1,36,-1
 324 365 l 1,0,1
EndSplineSet
EndChar

StartChar: uniFECC.compact
Encoding: 65634 -1 458
Width: 1071
GlyphClass: 2
Flags: W
AnchorPoint: "Anchor-2" 598 1101 basechar 0
AnchorPoint: "Anchor-0" 575 -237 basechar 0
LayerCount: 2
Fore
SplineSet
762 202 m 1,0,1
 804 191 804 191 857.5 186.5 c 128,-1,2
 911 182 911 182 961.5 181 c 128,-1,3
 1012 180 1012 180 1045 180 c 2,4,-1
 1091 180 l 1,5,-1
 1091 0 l 1,6,-1
 1045 0 l 2,7,8
 945 0 945 0 822 24 c 128,-1,9
 699 48 699 48 604 103 c 1,10,11
 505 50 505 50 364.5 25 c 128,-1,12
 224 0 224 0 87 0 c 2,13,-1
 -20 0 l 1,14,-1
 -20 180 l 1,15,-1
 90 180 l 2,16,17
 139 180 139 180 204 181 c 128,-1,18
 269 182 269 182 334 187 c 128,-1,19
 399 192 399 192 446 202 c 1,20,21
 374 267 374 267 310.5 335 c 128,-1,22
 247 403 247 403 207 464 c 128,-1,23
 167 525 167 525 167 569 c 0,24,25
 167 638 167 638 233.5 678 c 128,-1,26
 300 718 300 718 401.5 735 c 128,-1,27
 503 752 503 752 607 752 c 0,28,29
 680 752 680 752 756 742.5 c 128,-1,30
 832 733 832 733 896.5 712 c 128,-1,31
 961 691 961 691 1000.5 655.5 c 128,-1,32
 1040 620 1040 620 1040 569 c 0,33,34
 1040 526 1040 526 1001 465.5 c 128,-1,35
 962 405 962 405 899 337 c 128,-1,36
 836 269 836 269 762 202 c 1,0,1
604 582 m 0,37,38
 574 582 574 582 525.5 578.5 c 128,-1,39
 477 575 477 575 425.5 567.5 c 128,-1,40
 374 560 374 560 336 546 c 1,41,42
 392 472 392 472 454 410.5 c 128,-1,43
 516 349 516 349 560 312 c 128,-1,44
 604 275 604 275 604 275 c 257,45,46
 604 275 604 275 647 312 c 128,-1,47
 690 349 690 349 752.5 410.5 c 128,-1,48
 815 472 815 472 872 546 c 1,49,50
 834 560 834 560 783 567.5 c 128,-1,51
 732 575 732 575 683.5 578.5 c 128,-1,52
 635 582 635 582 604 582 c 0,37,38
EndSplineSet
EndChar

StartChar: uniFEEE.compact
Encoding: 65637 -1 461
Width: 876
GlyphClass: 2
Flags: W
AnchorPoint: "Anchor-2" 430 1030 basechar 0
AnchorPoint: "Anchor-0" 416 -620 basechar 0
LayerCount: 2
Fore
SplineSet
427 712 m 0,0,1
 584 712 584 712 672.5 581.5 c 128,-1,2
 761 451 761 451 779 180 c 1,3,-1
 896 180 l 1,4,-1
 896 0 l 1,5,-1
 767 0 l 1,6,7
 729 -205 729 -205 580 -346.5 c 128,-1,8
 431 -488 431 -488 168 -538 c 1,9,-1
 108 -384 l 1,10,11
 324 -343 324 -343 448 -240 c 128,-1,12
 572 -137 572 -137 609 0 c 1,13,-1
 462 0 l 2,14,15
 98 0 98 0 98 296 c 0,16,17
 98 395 98 395 133.5 490.5 c 128,-1,18
 169 586 169 586 242 649 c 128,-1,19
 315 712 315 712 427 712 c 0,0,1
616 180 m 1,20,21
 605 363 605 363 556 449 c 128,-1,22
 507 535 507 535 418 535 c 0,23,24
 358 535 358 535 324 494 c 128,-1,25
 290 453 290 453 276.5 398.5 c 128,-1,26
 263 344 263 344 263 301 c 0,27,28
 263 236 263 236 307 208 c 128,-1,29
 351 180 351 180 452 180 c 2,30,-1
 616 180 l 1,20,21
EndSplineSet
EndChar

StartChar: glyph369
Encoding: 65639 -1 463
Width: 800
GlyphClass: 2
Flags: W
LayerCount: 2
Fore
SplineSet
401 1172 m 1,0,-1
 517 1494 l 1,1,-1
 713 1494 l 1,2,-1
 713 1473 l 1,3,-1
 490 1156 l 1,4,-1
 401 1156 l 1,5,-1
 401 1172 l 1,0,-1
111 1494 m 1,6,-1
 279 1494 l 1,7,-1
 279 1403 l 2,8,9
 282 1280 282 1280 362 1195 c 1,10,-1
 289 1136 l 1,11,12
 111 1231 111 1231 111 1418 c 2,13,-1
 111 1494 l 1,6,-1
EndSplineSet
EndChar

StartChar: dollar.c2sc
Encoding: 65641 -1 465
Width: 1056
GlyphClass: 2
Flags: W
LayerCount: 2
Fore
SplineSet
803 298 m 0,0,1
 803 378 803 378 742.5 422 c 128,-1,2
 682 466 682 466 535 503 c 128,-1,3
 388 540 388 540 302 583 c 0,4,5
 107 681 107 681 107 860 c 0,6,7
 107 990 107 990 208.5 1076 c 128,-1,8
 310 1162 310 1162 476 1178 c 1,9,-1
 476 1395 l 1,10,-1
 625 1395 l 1,11,-1
 625 1176 l 1,12,13
 788 1155 788 1155 887 1058 c 128,-1,14
 986 961 986 961 986 825 c 1,15,-1
 801 825 l 1,16,17
 801 923 801 923 730.5 976.5 c 128,-1,18
 660 1030 660 1030 539 1030 c 0,19,20
 426 1030 426 1030 359 985.5 c 128,-1,21
 292 941 292 941 292 861 c 0,22,23
 292 796 292 796 353.5 752 c 128,-1,24
 415 708 415 708 571 668 c 128,-1,25
 727 628 727 628 815 577.5 c 128,-1,26
 903 527 903 527 946 459 c 128,-1,27
 989 391 989 391 989 300 c 0,28,29
 989 170 989 170 891.5 87 c 128,-1,30
 794 4 794 4 625 -12 c 1,31,-1
 625 -237 l 1,32,-1
 476 -237 l 1,33,-1
 476 -12 l 1,34,35
 290 7 290 7 178.5 104 c 128,-1,36
 67 201 67 201 67 349 c 1,37,-1
 253 349 l 1,38,39
 253 247 253 247 330 190 c 128,-1,40
 407 133 407 133 547 133 c 0,41,42
 673 133 673 133 738 178.5 c 128,-1,43
 803 224 803 224 803 298 c 0,0,1
EndSplineSet
EndChar

StartChar: sterling.c2sc
Encoding: 65642 -1 466
Width: 1075
GlyphClass: 2
Flags: W
LayerCount: 2
Fore
SplineSet
797 500 m 1,0,-1
 397 500 l 1,1,-1
 398 466 l 2,2,3
 403 263 403 263 347 152 c 1,4,-1
 1007 152 l 1,5,-1
 1006 0 l 1,6,-1
 114 0 l 1,7,-1
 114 152 l 1,8,-1
 124 152 l 1,9,10
 203 175 203 175 212 396 c 1,11,-1
 213 466 l 1,12,-1
 212 500 l 1,13,-1
 48 500 l 1,14,-1
 48 621 l 1,15,-1
 208 621 l 1,16,-1
 204 744 l 2,17,18
 198 945 198 945 299.5 1063 c 128,-1,19
 401 1181 401 1181 582 1181 c 0,20,21
 765 1181 765 1181 866 1079 c 128,-1,22
 967 977 967 977 967 794 c 1,23,-1
 782 794 l 1,24,25
 782 906 782 906 730 965.5 c 128,-1,26
 678 1025 678 1025 582 1025 c 0,27,28
 489 1025 489 1025 437 953.5 c 128,-1,29
 385 882 385 882 389 744 c 2,30,-1
 393 621 l 1,31,-1
 797 621 l 1,32,-1
 797 500 l 1,0,-1
EndSplineSet
EndChar

StartChar: yen.c2sc
Encoding: 65643 -1 467
Width: 929
GlyphClass: 2
Flags: W
LayerCount: 2
Fore
SplineSet
465 589 m 1,0,-1
 718 1165 l 1,1,-1
 914 1165 l 1,2,-1
 614 537 l 1,3,-1
 827 537 l 1,4,-1
 827 416 l 1,5,-1
 556 416 l 1,6,-1
 553 409 l 1,7,-1
 553 341 l 1,8,-1
 827 341 l 1,9,-1
 827 221 l 1,10,-1
 553 221 l 1,11,-1
 553 0 l 1,12,-1
 368 0 l 1,13,-1
 368 221 l 1,14,-1
 94 221 l 1,15,-1
 94 341 l 1,16,-1
 368 341 l 1,17,-1
 368 416 l 1,18,-1
 94 416 l 1,19,-1
 94 537 l 1,20,-1
 313 537 l 1,21,-1
 13 1165 l 1,22,-1
 212 1165 l 1,23,-1
 465 589 l 1,0,-1
EndSplineSet
EndChar

StartChar: Delta.c2sc
Encoding: 65644 -1 468
Width: 1127
GlyphClass: 2
Flags: W
LayerCount: 2
Fore
SplineSet
1107 0 m 1,0,-1
 20 0 l 1,1,-1
 477 1165 l 1,2,-1
 650 1165 l 1,3,-1
 1107 0 l 1,0,-1
589 874 m 1,4,-1
 563 966 l 1,5,-1
 538 872 l 1,6,-1
 274 152 l 1,7,-1
 853 152 l 1,8,-1
 589 874 l 1,4,-1
EndSplineSet
EndChar

StartChar: Omega.c2sc
Encoding: 65645 -1 469
Width: 1266
GlyphClass: 2
Flags: W
LayerCount: 2
Fore
SplineSet
699 157 m 1,0,1
 835 188 835 188 898.5 299.5 c 128,-1,2
 962 411 962 411 962 616 c 2,3,-1
 962 654 l 2,4,5
 962 833 962 833 875 929 c 128,-1,6
 788 1025 788 1025 631 1025 c 0,7,8
 475 1025 475 1025 389 928.5 c 128,-1,9
 303 832 303 832 303 649 c 2,10,-1
 303 616 l 2,11,12
 303 412 303 412 373.5 300.5 c 128,-1,13
 444 189 444 189 571 157 c 1,14,-1
 571 0 l 1,15,-1
 121 0 l 1,16,-1
 121 151 l 1,17,-1
 296 151 l 1,18,19
 117 308 117 308 117 622 c 2,20,-1
 117 652 l 2,21,22
 117 890 117 890 258.5 1035.5 c 128,-1,23
 400 1181 400 1181 631 1181 c 0,24,25
 863 1181 863 1181 1005 1035 c 128,-1,26
 1147 889 1147 889 1147 644 c 2,27,-1
 1147 616 l 2,28,29
 1147 307 1147 307 969 151 c 1,30,-1
 1150 151 l 1,31,-1
 1150 0 l 1,32,-1
 699 0 l 1,33,-1
 699 157 l 1,0,1
EndSplineSet
EndChar

StartChar: lira.c2sc
Encoding: 65646 -1 470
Width: 1075
GlyphClass: 2
Flags: W
LayerCount: 2
Fore
SplineSet
391 680 m 1,0,-1
 797 680 l 1,1,-1
 797 559 l 1,2,-1
 395 559 l 1,3,-1
 398 466 l 1,4,-1
 398 450 l 1,5,-1
 797 450 l 1,6,-1
 797 329 l 1,7,-1
 393 329 l 1,8,9
 383 223 383 223 347 152 c 1,10,-1
 1007 152 l 1,11,-1
 1006 0 l 1,12,-1
 114 0 l 1,13,-1
 114 152 l 1,14,-1
 124 152 l 1,15,16
 187 170 187 170 207 329 c 1,17,-1
 48 329 l 1,18,-1
 48 450 l 1,19,-1
 213 450 l 1,20,-1
 213 466 l 1,21,-1
 210 559 l 1,22,-1
 48 559 l 1,23,-1
 48 680 l 1,24,-1
 206 680 l 1,25,-1
 204 744 l 2,26,27
 198 945 198 945 299.5 1063 c 128,-1,28
 401 1181 401 1181 582 1181 c 0,29,30
 765 1181 765 1181 866 1079 c 128,-1,31
 967 977 967 977 967 794 c 1,32,-1
 782 794 l 1,33,34
 782 906 782 906 730 965.5 c 128,-1,35
 678 1025 678 1025 582 1025 c 0,36,37
 489 1025 489 1025 437 953.5 c 128,-1,38
 385 882 385 882 389 744 c 2,39,-1
 391 680 l 1,0,-1
EndSplineSet
EndChar

StartChar: Euro.c2sc
Encoding: 65647 -1 471
Width: 995
GlyphClass: 2
Flags: W
LayerCount: 2
Fore
SplineSet
815 406 m 1,0,-1
 407 406 l 1,1,2
 439 135 439 135 697 135 c 0,3,4
 795 135 795 135 899 163 c 1,5,-1
 926 14 l 1,6,7
 808 -16 808 -16 697 -16 c 0,8,9
 486 -16 486 -16 363.5 93 c 128,-1,10
 241 202 241 202 221 406 c 1,11,-1
 66 406 l 1,12,-1
 66 527 l 1,13,-1
 217 527 l 1,14,-1
 217 636 l 1,15,-1
 66 636 l 1,16,-1
 66 757 l 1,17,-1
 221 757 l 1,18,19
 243 961 243 961 365.5 1071 c 128,-1,20
 488 1181 488 1181 695 1181 c 0,21,22
 791 1181 791 1181 926 1150 c 1,23,-1
 905 1001 l 1,24,25
 816 1029 816 1029 695 1029 c 0,26,27
 439 1029 439 1029 407 757 c 1,28,-1
 815 757 l 1,29,-1
 815 636 l 1,30,-1
 403 636 l 1,31,-1
 403 527 l 1,32,-1
 815 527 l 1,33,-1
 815 406 l 1,0,-1
EndSplineSet
EndChar

StartChar: uni2116.c2sc
Encoding: 65648 -1 472
Width: 2082
GlyphClass: 2
Flags: W
LayerCount: 2
Fore
SplineSet
1902 189 m 1,0,-1
 1345 189 l 1,1,-1
 1345 331 l 1,2,-1
 1902 331 l 1,3,-1
 1902 189 l 1,0,-1
1280 846 m 2,4,5
 1280 995 1280 995 1374 1088 c 128,-1,6
 1468 1181 1468 1181 1622 1181 c 128,-1,7
 1776 1181 1776 1181 1870.5 1089 c 128,-1,8
 1965 997 1965 997 1965 842 c 2,9,-1
 1965 762 l 2,10,11
 1965 610 1965 610 1870 519 c 128,-1,12
 1775 428 1775 428 1624 428 c 0,13,14
 1471 428 1471 428 1375.5 519.5 c 128,-1,15
 1280 611 1280 611 1280 767 c 2,16,-1
 1280 846 l 2,4,5
1443 762 m 2,17,18
 1443 673 1443 673 1490 620 c 128,-1,19
 1537 567 1537 567 1624 567 c 0,20,21
 1708 567 1708 567 1755 619.5 c 128,-1,22
 1802 672 1802 672 1802 764 c 2,23,-1
 1802 846 l 2,24,25
 1802 936 1802 936 1753.5 988 c 128,-1,26
 1705 1040 1705 1040 1622 1040 c 0,27,28
 1540 1040 1540 1040 1491.5 988.5 c 128,-1,29
 1443 937 1443 937 1443 843 c 2,30,-1
 1443 762 l 2,17,18
1112 0 m 1,31,-1
 928 0 l 1,32,-1
 323 876 l 1,33,-1
 323 0 l 1,34,-1
 138 0 l 1,35,-1
 138 1165 l 1,36,-1
 323 1165 l 1,37,-1
 928 288 l 1,38,-1
 928 1165 l 1,39,-1
 1112 1165 l 1,40,-1
 1112 0 l 1,31,-1
EndSplineSet
EndChar

StartChar: uni20BD.c2sc
Encoding: 65649 -1 473
Width: 1195
GlyphClass: 2
Flags: W
LayerCount: 2
Fore
SplineSet
676 180 m 1,0,-1
 418 180 l 1,1,-1
 418 0 l 1,2,-1
 232 0 l 1,3,-1
 232 180 l 1,4,-1
 40 180 l 1,5,-1
 40 332 l 1,6,-1
 232 332 l 1,7,-1
 232 421 l 1,8,-1
 40 421 l 1,9,-1
 40 573 l 1,10,-1
 232 573 l 1,11,-1
 232 1165 l 1,12,-1
 695 1165 l 2,13,14
 892 1165 892 1165 1009 1063 c 128,-1,15
 1126 961 1126 961 1126 793 c 0,16,17
 1126 628 1126 628 1012.5 526.5 c 128,-1,18
 899 425 899 425 709 421 c 1,19,-1
 418 421 l 1,20,-1
 418 332 l 1,21,-1
 676 332 l 1,22,-1
 676 180 l 1,0,-1
418 573 m 1,23,-1
 695 573 l 2,24,25
 809 573 809 573 874.5 633 c 128,-1,26
 940 693 940 693 940 791 c 0,27,28
 940 891 940 891 874 952 c 128,-1,29
 808 1013 808 1013 696 1013 c 2,30,-1
 418 1013 l 1,31,-1
 418 573 l 1,23,-1
EndSplineSet
EndChar
